SplineFontDB: 3.2
FontName: RallyDisplay-Ultra
FullName: Rally Display Ultra
FamilyName: Rally Display
Weight: Ultra
Copyright: Copyright (c) 2023-2024, Zamero Type Foundry
UComments: "2023-12-31: Created with FontForge (http://fontforge.org)+AAoACgAK-Magical cartoon rabbit. :)"
Version: 001.000
ItalicAngle: 0
UnderlinePosition: -100
UnderlineWidth: 50
Ascent: 800
Descent: 200
InvalidEm: 0
LayerCount: 2
Layer: 0 0 "Back" 1
Layer: 1 0 "Fore" 0
XUID: [1021 474 1118879153 10182]
StyleMap: 0x0000
FSType: 0
OS2Version: 0
OS2_WeightWidthSlopeOnly: 0
OS2_UseTypoMetrics: 1
CreationTime: 1704051534
ModificationTime: 1730643801
PfmFamily: 81
TTFWeight: 1000
TTFWidth: 5
LineGap: 90
VLineGap: 90
OS2TypoAscent: 0
OS2TypoAOffset: 1
OS2TypoDescent: 0
OS2TypoDOffset: 1
OS2TypoLinegap: 90
OS2WinAscent: 0
OS2WinAOffset: 1
OS2WinDescent: 0
OS2WinDOffset: 1
HheadAscent: 0
HheadAOffset: 1
HheadDescent: 0
HheadDOffset: 1
OS2Vendor: 'ZAM '
Lookup: 1 0 0 "'ss17' Style Set 17 lookup 29" { "'ss17' Style Set 17 lookup 29-1" ("ss17") } ['ss17' ('DFLT' <'dflt' > 'grek' <'dflt' > 'latn' <'AZE ' 'CAT ' 'CRT ' 'KAZ ' 'MOL ' 'NLD ' 'ROM ' 'TAT ' 'TRK ' 'dflt' > ) ]
Lookup: 1 0 0 "'ss18' Style Set 18 lookup 30" { "'ss18' Style Set 18 lookup 30-1" ("ss18") } ['ss18' ('DFLT' <'dflt' > 'grek' <'dflt' > 'latn' <'AZE ' 'CAT ' 'CRT ' 'KAZ ' 'MOL ' 'NLD ' 'ROM ' 'TAT ' 'TRK ' 'dflt' > ) ]
Lookup: 1 0 0 "'subs' Subscript lookup 0" { "'subs' Subscript lookup 0 subtable" ("inferior") } ['subs' ('DFLT' <'dflt' > ) ]
Lookup: 1 0 0 "'onum' Oldstyle Figures lookup 27" { "'onum' Oldstyle Figures lookup 27-1" ("osf") } ['onum' ('DFLT' <'dflt' > 'grek' <'dflt' > 'latn' <'AZE ' 'CAT ' 'CRT ' 'KAZ ' 'MOL ' 'NLD ' 'ROM ' 'TAT ' 'TRK ' 'dflt' > ) ]
Lookup: 1 0 0 "'ss16' Style Set 16 lookup 26" { "'ss16' Style Set 16 lookup 26-1" ("ss16") } ['ss16' ('DFLT' <'dflt' > 'grek' <'dflt' > 'latn' <'AZE ' 'CAT ' 'CRT ' 'KAZ ' 'MOL ' 'NLD ' 'ROM ' 'TAT ' 'TRK ' 'dflt' > ) ]

StartChar: dotlessi
Encoding: 239 305 1
Width: 330
Flags: W
HStem: 0 21G<83.8301 300.159> 477.011 20G<13.2014 294.948>
VStem: 83.8301 216.329<0 326.084>
AnchorPoint: "Anchor-3" 235 0 basechar 0
AnchorPoint: "Anchor-2" 200 0 basechar 0
AnchorPoint: "Anchor-0" 179 496.019 basechar 0
LayerCount: 2
Back
SplineSet
294.729492188 496.93359375 m 5
 300.159179688 0 l 5
 103.830078125 0 l 5
 110 496.93359375 l 5
 294.729492188 496.93359375 l 5
EndSplineSet
Fore
SplineSet
294.729492188 497.010742188 m 1
 300.159179688 0 l 1
 83.830078125 0 l 1
 88.1513671875 326.083984375 l 5
 10 324.080078125 l 5
 13.6201171875 497.010742188 l 1
 294.729492188 497.010742188 l 1
EndSplineSet
EndChar

StartChar: period
Encoding: 14 46 2
Width: 280
Flags: W
HStem: -10 240<65.1689 214.831>
VStem: 20 240<35.1689 184.831>
LayerCount: 2
Fore
SplineSet
20 110 m 4
 20 183.333806818 66.6661931818 230 140 230 c 4
 213.333806818 230 260 183.333806818 260 110 c 4
 260 36.6661931818 213.333806818 -10 140 -10 c 0
 66.6661931818 -10 20 36.6661931818 20 110 c 4
EndSplineSet
EndChar

StartChar: o
Encoding: 79 111 3
Width: 565
Flags: W
HStem: -10.0664 184.925<236.938 327.524> 322.009 184.925<236.45 328.02>
VStem: 20 199.375<191.851 306.486> 345.625 199.375<191.851 306.486>
AnchorPoint: "Anchor-3" 315 0 basechar 0
AnchorPoint: "Anchor-2" 278 0 basechar 0
AnchorPoint: "Anchor-0" 277 496.019 basechar 0
LayerCount: 2
Fore
SplineSet
219.375 249.858398438 m 4
 219.375 204.02497944 243.738876298 174.858398438 282.025390625 174.858398438 c 0
 320.891983672 174.858398438 345.625 204.02497944 345.625 249.858398438 c 0
 345.625 293.95055869 320.891983672 322.008789062 282.025390625 322.008789062 c 0
 243.738876298 322.008789062 219.375 293.95055869 219.375 249.858398438 c 4
20 249.93359375 m 0
 20 406.989257812 121.888778271 506.93359375 282 506.93359375 c 0
 442.722554052 506.93359375 545 406.989257812 545 249.93359375 c 0
 545 91.0439453125 442.722554052 -10.06640625 282 -10.06640625 c 0
 121.888778271 -10.06640625 20 91.0439453125 20 249.93359375 c 0
EndSplineSet
EndChar

StartChar: slash
Encoding: 15 47 4
Width: 517
Flags: W
LayerCount: 2
Back
SplineSet
1 -123.994140625 m 1
 198.637695312 379 l 1
 317 815.001953125 l 1
 506 763.001953125 l 1
 328.983398438 331 l 1
 190 -175.994140625 l 1
 1 -123.994140625 l 1
EndSplineSet
Fore
SplineSet
1 -113.994140625 m 1
 317 825.001953125 l 1
 516 753.001953125 l 1
 200 -185.994140625 l 1
 1 -113.994140625 l 1
EndSplineSet
Substitution2: "'frac' Diagonal Fractions in Latin lookup 25 subtable" fraction
EndChar

StartChar: d
Encoding: 68 100 5
Width: 682
Flags: W
HStem: -10.0664 180<179.541 337.898> 0 21G<382.271 668.799> 326.934 180<178.333 348.249> 735.002 20G<386.875 594.262>
VStem: 20 212<188.991 306.367> 382.271 82.7295<121.651 416.323> 387 207.17<273.934 755.002>
AnchorPoint: "Anchor-2" 328 0 basechar 0
AnchorPoint: "Anchor-0" 483 755.01 basechar 0
LayerCount: 2
Back
SplineSet
387.270507812 755.001953125 m 5
 381.840820312 0 l 5
 578.169921875 0 l 5
 573.848632812 604.075195312 l 5
 672 602.071289062 l 5
 668.379882812 755.001953125 l 5
 387.270507812 755.001953125 l 5
EndSplineSet
Fore
SplineSet
367 246.93359375 m 4xb8
 367 295.82265625 340.944695133 326.93359375 300 326.93359375 c 4
 258.444025213 326.93359375 232 295.82265625 232 246.93359375 c 4
 232 199.877607523 258.444025213 169.93359375 300 169.93359375 c 4
 340.944695133 169.93359375 367 199.877607523 367 246.93359375 c 4xb8
465 273.93359375 m 0xbc
 465 121.651121386 389.767707186 -10.06640625 248 -10.06640625 c 0
 108.666015625 -10.06640625 20 89.8779296875 20 246.93359375 c 0
 20 405.823242188 108.666015625 506.93359375 248 506.93359375 c 0
 380.611526019 506.93359375 465 416.323049502 465 273.93359375 c 0xbc
382.270507812 0 m 1x7c
 387 755.001953125 l 1
 594.169921875 755.001953125 l 1x7a
 596.848632812 170.926757812 l 1
 672 172.930664062 l 1
 668.379882812 0 l 1
 382.270507812 0 l 1x7c
EndSplineSet
EndChar

StartChar: p
Encoding: 80 112 6
Width: 682
Flags: W
HStem: -10.0664 180<337.298 503.667> 326.934 180<340.252 502.459> 477.011 20G<13.2014 294.891>
VStem: 83.8301 216.329<-174 242.934> 217 77.7295<88.3219 384.492> 450 212<190.5 307.876>
AnchorPoint: "Anchor-2" 201 -173.994 basechar 0
AnchorPoint: "Anchor-0" 359 496.019 basechar 0
LayerCount: 2
Fore
SplineSet
315 249.93359375 m 0xc4
 315 201.04453125 341.055304867 169.93359375 382 169.93359375 c 0
 423.555974787 169.93359375 450 201.04453125 450 249.93359375 c 0
 450 296.989579977 423.555974787 326.93359375 382 326.93359375 c 0
 341.055304867 326.93359375 315 296.989579977 315 249.93359375 c 0xc4
217 242.93359375 m 4xcc
 217 384.491948342 292.232292814 506.93359375 434 506.93359375 c 0
 573.333984375 506.93359375 662 406.989257812 662 249.93359375 c 0
 662 91.0439453125 573.333984375 -10.06640625 434 -10.06640625 c 0
 301.388473981 -10.06640625 217 88.3218671174 217 242.93359375 c 4xcc
294.729492188 497.010742188 m 1xac
 300.159179688 -174 l 1
 83.830078125 -174 l 1xb4
 88.1513671875 326.083984375 l 1
 10 324.080078125 l 1
 13.6201171875 497.010742188 l 1
 294.729492188 497.010742188 l 1xac
EndSplineSet
EndChar

StartChar: t
Encoding: 84 116 7
Width: 443
Flags: W
HStem: 477 20G<11.4152 190 190 422.57>
VStem: 93.8301 199.299<208.854 483.061>
AnchorPoint: "Anchor-2" 248 0 basechar 0
AnchorPoint: "Anchor-0" 203 648.019 basechar 0
LayerCount: 2
Fore
SplineSet
12 497 m 1
 190 493 l 1
 423 500 l 1
 419 314 l 1
 187 331 l 1
 7 326 l 1
 12 497 l 1
293.12890625 282 m 0
 293.12890625 213.952815236 308.401979786 188.464655317 397.159179688 176.930664062 c 5
 363.5390625 -16 l 1
 142.422764791 33.078125 93.830078125 72 93.830078125 262 c 0
 93.830078125 363 108.151367188 652.046875 108.151367188 652.046875 c 1
 298.729492188 645 l 1
 298.729492188 645 293.12890625 404 293.12890625 282 c 0
EndSplineSet
EndChar

StartChar: l
Encoding: 76 108 8
Width: 407
Flags: W
HStem: 0 21G<93.8301 393.958> 735.002 20G<13.2014 304.88>
VStem: 93.8301 215.299<171.397 584.075>
AnchorPoint: "Anchor-2" 230 0 basechar 0
AnchorPoint: "Anchor-0" 174 755.01 basechar 0
LayerCount: 2
Back
SplineSet
105.334960938 140.244140625 m 5
 109.862304688 751.69921875 l 5
 349.01953125 797.84375 l 5
 404.7265625 645.374023438 l 5
 295.80859375 623.6875 l 5
 300.63671875 14.7734375 l 5
 48.3994140625 -44.3125 l 5
 -7.3076171875 108.157226562 l 5
 105.334960938 140.244140625 l 5
EndSplineSet
Fore
SplineSet
309.12890625 171.397460938 m 5
 397.159179688 172.930664062 l 5
 393.5390625 0 l 1
 93.830078125 0 l 1
 98.1513671875 584.075195312 l 1
 10 582.071289062 l 1
 13.6201171875 755.001953125 l 1
 304.729492188 755.001953125 l 1
 309.12890625 171.397460938 l 5
EndSplineSet
EndChar

StartChar: e
Encoding: 69 101 9
Width: 541
Flags: W
HStem: -23.9004 165.801<292.562 421.819> 193 103<160 337> 352.934 154<239.435 325.083>
VStem: 20 502.619<196.02 368.259>
AnchorPoint: "Anchor-3" 355 0 basechar 0
AnchorPoint: "Anchor-2" 288 0 basechar 0
AnchorPoint: "Anchor-0" 274 496.019 basechar 0
LayerCount: 2
Back
SplineSet
145 251.93359375 m 0
 145 118.399011671 234.924400059 91.0845098901 427.2890625 79.900390625 c 1
 411.819335938 -23.900390625 l 1
 195.319904327 -22.2919921875 30 49 30 259 c 0
 30 399.989257812 114.333684792 506.93359375 271 506.93359375 c 0
 466.952995619 506.93359375 517.619140625 377.117081999 517.619140625 261.659179688 c 0
 517.619140625 223.858398438 512 196 512 196 c 1
 130 193 l 1
 115 279 l 1
 404 283 l 1
 404 283 404.043226139 284.065301324 404.043226139 285.999999724 c 0
 404.043226139 306 397.916066056 408.93359375 277 408.93359375 c 0
 172.754005142 408.93359375 145 332.861387567 145 251.93359375 c 0
EndSplineSet
Fore
SplineSet
219 251.93359375 m 0
 219 166.524280157 290.448249558 154.554448629 443.2890625 141.900390625 c 1
 421.819335938 -23.900390625 l 1
 193.979492188 -22.2919921875 20 49 20 259 c 0
 20 399.989257812 107.833007812 506.93359375 271 506.93359375 c 0
 470.92578125 506.93359375 522.619140625 377.117081999 522.619140625 261.659179688 c 0
 522.619140625 223.858398438 517 196 517 196 c 1
 160 193 l 1
 145 296 l 1
 337 300 l 1
 337 300 336.960186226 303.996132867 335.729492188 310 c 0
 332.844344096 324.075022114 321.937285787 352.93359375 281 352.93359375 c 0
 232.035972112 352.93359375 219 303.995422894 219 251.93359375 c 0
EndSplineSet
Substitution2: "'ss17' Style Set 17 lookup 29-1" e.ss17
Substitution2: "'ss15' Style Set 15 lookup 23-1" e.ss15
Substitution2: "'ss04' Style Set 4 lookup 12-1" e.ss04
EndChar

StartChar: s
Encoding: 83 115 10
Width: 388
Flags: W
HStem: 495.9 20G<307.303 310.622>
AnchorPoint: "Anchor-2" 186 0 basechar 0
AnchorPoint: "Anchor-0" 189 496.019 basechar 0
LayerCount: 2
Fore
SplineSet
307.302734375 515.900390625 m 1
 331.232421875 371.700195312 l 1
 331.232421875 371.700195312 246.431640625 367.12467297 246.431640625 335 c 0
 246.431640625 324.089535717 252.275122528 316.976849444 283.732421875 298.299804688 c 0
 344.27982765 262.351181283 368.2890625 231.15803155 368.2890625 172 c 0
 368.2890625 -19.900390625 53.0390625 -23.900390625 53.0390625 -23.900390625 c 1
 31.5693359375 121.900390625 l 1
 31.5693359375 121.900390625 139.4375 126.101671231 139.4375 164 c 0
 139.4375 178.826784784 130.51409831 186.173284674 109.036132812 198.700195312 c 0
 43.17999029 237.11044476 20 273.594425003 20 335 c 0
 20 511.299804688 307.302734375 515.900390625 307.302734375 515.900390625 c 1
EndSplineSet
EndChar

StartChar: b
Encoding: 66 98 11
Width: 682
Flags: W
HStem: -10.0664 180<344.102 503.667> 0 21G<93.8301 310.159> 326.934 180<333.751 503.667> 735.002 20G<13.2014 304.873>
VStem: 98.1514 206.578<273.934 584.075> 217 93.1592<121.651 416.323> 450 212<188.991 306.367>
AnchorPoint: "Anchor-2" 358 0 basechar 0
AnchorPoint: "Anchor-0" 174 755.01 basechar 0
LayerCount: 2
Fore
SplineSet
315 246.93359375 m 4xb2
 315 199.877607523 341.055304867 169.93359375 382 169.93359375 c 4
 423.555974787 169.93359375 450 199.877607523 450 246.93359375 c 4
 450 295.82265625 423.555974787 326.93359375 382 326.93359375 c 4
 341.055304867 326.93359375 315 295.82265625 315 246.93359375 c 4xb2
217 273.93359375 m 4xb6
 217 416.323049502 301.388473981 506.93359375 434 506.93359375 c 4
 573.333984375 506.93359375 662 405.823242188 662 246.93359375 c 4
 662 89.8779296875 573.333984375 -10.06640625 434 -10.06640625 c 4
 292.232292814 -10.06640625 217 121.651121386 217 273.93359375 c 4xb6
304.729492188 755.001953125 m 1x7a
 310.159179688 0 l 1x76
 93.830078125 0 l 1
 98.1513671875 584.075195312 l 1
 10 582.071289062 l 1
 13.6201171875 755.001953125 l 1
 304.729492188 755.001953125 l 1x7a
EndSplineSet
EndChar

StartChar: grave
Encoding: 64 96 12
Width: 250
Flags: W
HStem: 503.72 236.784
VStem: 1 248.518
LayerCount: 2
Fore
SplineSet
112.676757812 740.50390625 m 1
 249.517578125 589.465820312 l 5
 170.080078125 503.719726562 l 5
 1 626.18359375 l 1
 112.676757812 740.50390625 l 1
EndSplineSet
EndChar

StartChar: q
Encoding: 81 113 13
Width: 682
Flags: W
HStem: -10.0664 180<178.333 337.898> 326.934 180<178.333 348.249> 476.934 20G<376.859 584.277>
VStem: 20 212<188.991 306.367> 377 207.17<273.934 496.934> 377 88<121.651 416.323>
AnchorPoint: "Anchor-2" 506 -173.994 basechar 0
AnchorPoint: "Anchor-0" 323 496.019 basechar 0
LayerCount: 2
Fore
SplineSet
367 246.93359375 m 4xd0
 367 295.82265625 340.944695133 326.93359375 300 326.93359375 c 4
 258.444025213 326.93359375 232 295.82265625 232 246.93359375 c 4
 232 199.877607523 258.444025213 169.93359375 300 169.93359375 c 4
 340.944695133 169.93359375 367 199.877607523 367 246.93359375 c 4xd0
465 273.93359375 m 0xd4
 465 121.651121386 389.767707186 -10.06640625 248 -10.06640625 c 0
 108.666015625 -10.06640625 20 89.8779296875 20 246.93359375 c 0
 20 405.823242188 108.666015625 506.93359375 248 506.93359375 c 0
 380.611526019 506.93359375 465 416.323049502 465 273.93359375 c 0xd4
372.270507812 -173.994140625 m 1
 377 496.93359375 l 1
 584.169921875 496.93359375 l 1xb8
 586.848632812 -3.0673828125 l 1
 672 -1.0634765625 l 1
 668.379882812 -173.994140625 l 1
 372.270507812 -173.994140625 l 1
EndSplineSet
EndChar

StartChar: a
Encoding: 65 97 14
Width: 682
Flags: W
HStem: -10.0664 180<179.541 337.898> 0 21G<382.271 668.799> 326.934 180<178.333 348.249> 477.002 20G<386.81 594.334>
VStem: 20 212<188.991 306.367> 387 207.17<273.934 497.002> 387 78<121.651 416.323>
AnchorPoint: "Anchor-3" 475 0 basechar 0
AnchorPoint: "Anchor-2" 328 0 basechar 0
AnchorPoint: "Anchor-0" 323 496.019 basechar 0
LayerCount: 2
Back
SplineSet
434 246.93359375 m 0xac
 434 342.267265625 377.222768499 402.93359375 288 402.93359375 c 0
 200.610229493 402.93359375 145 342.267265625 145 246.93359375 c 0
 145 153.432738 200.610229493 93.93359375 288 93.93359375 c 0
 377.222768499 93.93359375 434 153.432738 434 246.93359375 c 0xac
505 263.93359375 m 0xa9
 505 117.013180272 422.833855314 -10.06640625 268 -10.06640625 c 0
 122.554875959 -10.06640625 30 89.8779296875 30 246.93359375 c 0
 30 405.823242188 122.554875959 506.93359375 268 506.93359375 c 0
 412.833786481 506.93359375 505 412.434184942 505 263.93359375 c 0xa9
442.270507812 0 m 1x5c
 447 497.001953125 l 1
 554.169921875 497.001953125 l 1x5a
 556.848632812 90.9267578125 l 1
 662 92.9306640625 l 1
 658.379882812 0 l 1
 442.270507812 0 l 1x5c
EndSplineSet
Fore
SplineSet
367 246.93359375 m 4xa8
 367 295.82265625 340.944695133 326.93359375 300 326.93359375 c 4
 258.444025213 326.93359375 232 295.82265625 232 246.93359375 c 4
 232 199.877607523 258.444025213 169.93359375 300 169.93359375 c 4
 340.944695133 169.93359375 367 199.877607523 367 246.93359375 c 4xa8
465 273.93359375 m 0xaa
 465 121.651121386 389.767707186 -10.06640625 248 -10.06640625 c 0
 108.666015625 -10.06640625 20 89.8779296875 20 246.93359375 c 0
 20 405.823242188 108.666015625 506.93359375 248 506.93359375 c 0
 380.611526019 506.93359375 465 416.323049502 465 273.93359375 c 0xaa
382.270507812 0 m 1x5c
 387 497.001953125 l 1
 594.169921875 497.001953125 l 1
 596.848632812 170.926757812 l 1
 672 172.930664062 l 1
 668.379882812 0 l 1
 382.270507812 0 l 1x5c
EndSplineSet
Substitution2: "'ss03' Style Set 3 lookup 11-1" a.ss03
EndChar

StartChar: h
Encoding: 72 104 15
Width: 653
Flags: W
HStem: 0 21G<83.8301 300.159> 327.934 179<319.285 490.535> 735.002 20G<13.2014 294.873>
VStem: 83.8301 216.329<0 584.075> 416 212<-1.22201 314.71>
AnchorPoint: "Anchor-2" 360 0 basechar 0
AnchorPoint: "Anchor-0" 174 755.01 basechar 0
LayerCount: 2
Fore
SplineSet
188 253.93359375 m 5
 210.000338808 411.989257812 279.388472577 506.93359375 423 506.93359375 c 4
 558.0703125 506.93359375 628 429.158131451 628 278.93359375 c 4
 628 134.376986611 610.159179688 -15 610.159179688 -15 c 5
 395.830078125 0 l 5
 395.830078125 0 416 138.277935542 416 251.93359375 c 4
 416 300.174055232 400.619551064 327.93359375 357 327.93359375 c 4
 309.194151182 327.93359375 289.38811761 296.718981095 276 216.93359375 c 5
 188 253.93359375 l 5
294.729492188 755.001953125 m 1
 300.159179688 0 l 1
 83.830078125 0 l 1
 88.1513671875 584.075195312 l 1
 10 582.071289062 l 1
 13.6201171875 755.001953125 l 1
 294.729492188 755.001953125 l 1
EndSplineSet
EndChar

StartChar: n
Encoding: 78 110 16
Width: 653
Flags: W
HStem: 0 21G<83.8301 300.159> 327.934 179<319.285 480.892> 477.002 20G<13.2014 294.948>
VStem: 83.8301 216.329<0 253.934> 416 212<-1.22201 314.71>
AnchorPoint: "Anchor-2" 360 0 basechar 0
AnchorPoint: "Anchor-0" 343 496.019 basechar 0
AnchorPoint: "Anchor-0" 343 496.019 basechar 0
LayerCount: 2
Fore
SplineSet
188 253.93359375 m 1xd8
 210.000338808 411.989257812 279.388472577 506.93359375 423 506.93359375 c 0
 558.0703125 506.93359375 628 429.158131451 628 278.93359375 c 0
 628 134.376986611 610.159179688 -15 610.159179688 -15 c 1
 395.830078125 0 l 1
 395.830078125 0 416 138.277935542 416 251.93359375 c 0
 416 300.174055232 400.619551064 327.93359375 357 327.93359375 c 4
 309.194151182 327.93359375 289.38811761 296.718981095 276 216.93359375 c 1
 188 253.93359375 l 1xd8
294.729492188 497.001953125 m 1xb8
 300.159179688 0 l 1
 83.830078125 0 l 1
 88.1513671875 326.075195312 l 1
 10 324.071289062 l 1
 13.6201171875 497.001953125 l 1
 294.729492188 497.001953125 l 1xb8
EndSplineSet
EndChar

StartChar: I
Encoding: 41 73 17
Width: 468
Flags: W
HStem: 0 194<13.958 108.084 352.21 455.287> 528.08 202.931<18.748 111.279 349.135 445.857>
VStem: 108.084 244.126<194 529>
AnchorPoint: "Anchor-3" 305 0 basechar 0
AnchorPoint: "Anchor-2" 228 0 basechar 0
AnchorPoint: "Anchor-2" 228 0 basechar 0
AnchorPoint: "Anchor-0" 233 731.008 basechar 0
LayerCount: 2
Back
SplineSet
339.857421875 731.010742188 m 5
 345.287109375 0 l 5
 128.958007812 0 l 5
 133.279296875 560.083984375 l 5
 15.1279296875 558.080078125 l 5
 18.748046875 731.010742188 l 5
 339.857421875 731.010742188 l 5
EndSplineSet
Fore
SplineSet
445.857421875 731.010742188 m 1
 452.127929688 526 l 1
 349.134765625 529 l 5
 352.209960938 194 l 5
 458.26953125 198 l 1
 455.287109375 0 l 1
 13.9580078125 0 l 1
 10 196 l 1
 108.083984375 194 l 5
 111.279296875 530.083984375 l 5
 15.1279296875 528.080078125 l 1
 18.748046875 731.010742188 l 1
 445.857421875 731.010742188 l 1
EndSplineSet
EndChar

StartChar: c
Encoding: 67 99 18
Width: 471
Flags: W
HStem: -10.0664 180<262.8 409.536> 326.934 180<263.924 388.87>
VStem: 20 221<191.73 306.074>
AnchorPoint: "Anchor-0" 297 496.019 basechar 0
AnchorPoint: "Anchor-2" 288 0 basechar 0
LayerCount: 2
Back
SplineSet
20 249.93359375 m 0
 20 406.989257812 127.722105271 506.93359375 297 506.93359375 c 0
 415.535915516 506.93359375 465.916992188 450.782226562 465.916992188 450.782226562 c 1
 409.647460938 308.369140625 l 1
 409.647460938 308.369140625 373.776884975 346.93359375 318 346.93359375 c 4
 252.610710758 346.93359375 211 309.211914062 211 249.93359375 c 0
 211 180.822265625 247.426625003 154.52486356 323.040039062 139.244140625 c 0
 407.435563152 122.917258333 455.553710938 87 455.553710938 1.279296875 c 0
 455.553710938 -81.1748046875 404 -147 404 -147 c 1
 280 -97 l 1
 280 -97 295.76171875 -74 295.76171875 -54 c 0
 295.76171875 -29.5654296875 282.579369985 -17.3599949932 223.834960938 -5.6943359375 c 0
 112.853515625 16.3447265625 20 91.0439453125 20 249.93359375 c 0
EndSplineSet
Fore
SplineSet
20 249.93359375 m 0
 20 406.989257812 127.722105271 506.93359375 297 506.93359375 c 0
 415.535915516 506.93359375 465.916992188 450.782226562 465.916992188 450.782226562 c 1
 409.647460938 288.369140625 l 1
 409.647460938 288.369140625 373.776884975 326.93359375 318 326.93359375 c 4
 270.94415634 326.93359375 241 296.989579977 241 249.93359375 c 4
 241 201.04453125 268.066406249 169.93359375 321 169.93359375 c 4
 395.442711847 169.93359375 433.1484375 208.364257812 433.1484375 208.364257812 c 1
 475.146484375 32.31640625 l 1
 475.146484375 32.31640625 429.284695862 -10.06640625 287 -10.06640625 c 0
 123.833220605 -10.06640625 20 91.0439453125 20 249.93359375 c 0
EndSplineSet
EndChar

StartChar: equal
Encoding: 29 61 19
Width: 450
Flags: W
HStem: 147 156<223 393> 158 159<49 223> 349 168<174.455 401> 360 153<49 271.545>
LayerCount: 2
Fore
SplineSet
49 317 m 1x40
 397 303 l 1
 393 147 l 5x80
 45 158 l 5
 49 317 l 1x40
49 513 m 1x10
 405 517 l 1
 401 349 l 1x20
 45 360 l 1
 49 513 l 1x10
EndSplineSet
EndChar

StartChar: k
Encoding: 75 107 20
Width: 618
Flags: W
HStem: 0 21G<83.8301 300.159> 494 20G<423.636 463.656> 735.002 20G<13.2014 294.873>
VStem: 83.8301 216.329<0 584.075>
AnchorPoint: "Anchor-2" 368 0 basechar 0
AnchorPoint: "Anchor-0" 174 755.01 basechar 0
LayerCount: 2
Fore
SplineSet
441 514 m 1
 586 386 l 1
 454 261 l 1
 608 117 l 1
 451 -17 l 1
 217 256 l 1
 441 514 l 1
294.729492188 755.001953125 m 1
 300.159179688 0 l 1
 83.830078125 0 l 1
 88.1513671875 584.075195312 l 1
 10 582.071289062 l 1
 13.6201171875 755.001953125 l 1
 294.729492188 755.001953125 l 1
EndSplineSet
Substitution2: "'ss06' Style Set 6 lookup 14-1" k.ss06
EndChar

StartChar: m
Encoding: 77 109 21
Width: 958
Flags: W
HStem: 0 21G<83.8301 300.159> 327.934 179<329.55 461.838 644.55 791.332> 477.002 20G<13.2014 294.948>
VStem: 83.8301 216.329<0 253.934> 406 212<0.30744 374.163> 721 212<-0.584388 321.022>
AnchorPoint: "Anchor-2" 510 0 basechar 0
AnchorPoint: "Anchor-0" 549 496.019 basechar 0
LayerCount: 2
Fore
SplineSet
503 253.93359375 m 1xdc
 524.064453125 411.989257812 610.5 506.93359375 748 506.93359375 c 0
 869.892578125 506.93359375 933 439.391601562 933 308.93359375 c 0
 933 149.623046875 915.159179688 -15 915.159179688 -15 c 1
 700.830078125 0 l 1
 700.830078125 0 721 143.766793898 721 261.93359375 c 4
 721 303.826171875 708.226065943 327.93359375 672 327.93359375 c 0
 633.660804069 327.93359375 601.736666537 296.718981095 591 216.93359375 c 1
 503 253.93359375 l 1xdc
188 253.93359375 m 1
 209.064453125 411.989257812 295.5 506.93359375 433 506.93359375 c 0
 554.892578125 506.93359375 618 439.391601562 618 308.93359375 c 0
 618 154.541015625 605.159179688 -5 605.159179688 -5 c 1
 395.830078125 0 l 1
 395.830078125 0 406 143.766793898 406 261.93359375 c 4
 406 303.826171875 393.226065943 327.93359375 357 327.93359375 c 0
 318.660804069 327.93359375 286.736666537 296.718981095 276 216.93359375 c 1
 188 253.93359375 l 1
294.729492188 497.001953125 m 1xbc
 300.159179688 0 l 1
 83.830078125 0 l 1
 88.1513671875 326.075195312 l 1
 10 324.071289062 l 1
 13.6201171875 497.001953125 l 1
 294.729492188 497.001953125 l 1xbc
EndSplineSet
EndChar

StartChar: hyphen
Encoding: 13 45 23
Width: 380
Flags: W
HStem: 155 212<139.455 366> 166 197<14 236.545>
LayerCount: 2
Fore
SplineSet
14 363 m 1x40
 370 367 l 1
 366 155 l 1x80
 10 166 l 1
 14 363 l 1x40
EndSplineSet
EndChar

StartChar: three
Encoding: 19 51 24
Width: 581
Flags: W
HStem: -10.0664 204<94.3707 293.435> 512.008 219<30 253.848>
VStem: 305.917 254<208.067 283.782>
LayerCount: 2
Fore
SplineSet
406 421 m 1
 406 421 416.87498123 418.984096711 433 414 c 0
 488 397 559.916992188 347.967246868 559.916992188 216.9921875 c 0
 559.916992188 68.2338010229 445.97265625 -10.06640625 266.916992188 -10.06640625 c 0
 85.2246769868 -10.06640625 8 34.0849609375 8 34.0849609375 c 1
 50 234 l 1
 50 234 122.680349773 193.93359375 223.916992188 193.93359375 c 0
 281.698069853 193.93359375 305.916992188 213.25717013 305.916992188 245.9921875 c 0
 305.916992188 276.7921875 280.719366776 297.9921875 230.916992188 297.9921875 c 0
 181.527845864 297.9921875 155.2578125 288.43359375 155.2578125 288.43359375 c 1
 129 402 l 1
 253.84765625 518.0078125 l 5
 20 512.0078125 l 1
 30 731.0078125 l 1
 529.016601562 731.0078125 l 1
 539.016601562 553.0078125 l 1
 406 421 l 1
EndSplineSet
Substitution2: "'onum' Oldstyle Figures lookup 27-1" three.osf
Substitution2: "'ss01' Style Set 1 lookup 9-1" three.ss01
Substitution2: "'frac' Diagonal Fractions in Latin lookup 26 subtable" three.numr
Substitution2: "'dnom' Denominators lookup 0 subtable" three.dnom
Substitution2: "'numr' Numerators lookup 0 subtable" three.numr
Substitution2: "'sinf' Scientific Inferiors lookup 0 subtable" three.inferior
Substitution2: "'sups' Superscript lookup 0 subtable" three.superior
EndChar

StartChar: eight
Encoding: 24 56 25
Width: 608
Flags: W
HStem: -10.0078 193.739<251.444 341.111> 548.656 190.336<271.535 344.891>
VStem: 20 223.311<132.886 284.922> 46.6787 221.121<476.268 543.505> 349.693 239.235<190.277 271.32> 351.223 208.935<459.105 606.532>
LayerCount: 2
Fore
SplineSet
299.500976562 183.731445312 m 0xe8
 330.626061883 183.731445312 349.693359375 200.581390876 349.693359375 228.086914062 c 0xe8
 349.693359375 260.929093181 329.738210101 278.583946332 264.751953125 304.103515625 c 0
 118.992928947 361.341887101 46.6787109375 424.477461525 46.6787109375 536 c 0
 46.6787109375 660.085723141 148.472772262 738.9921875 308.55078125 738.9921875 c 0
 462.738371775 738.9921875 560.157226562 669.31262037 560.157226562 543.611328125 c 0
 560.157226562 403.589553122 404.053710938 352 404.053710938 352 c 1
 275.579101562 416.384765625 l 1
 275.579101562 416.384765625 351.22265625 453.276793052 351.22265625 502.682617188 c 0
 351.22265625 531.271726869 334.888949327 548.65625 308.02734375 548.65625 c 0
 283.217962279 548.65625 267.799804688 533.65049705 267.799804688 509.504882812 c 0xd4
 267.799804688 484.647203458 282.762898175 472.19220496 333.245117188 456.96484375 c 0
 520.2578125 400.5546875 588.928710938 330.89826254 588.928710938 216.379882812 c 0
 588.928710938 75.260500131 482.219824711 -10.0078125 305.616210938 -10.0078125 c 0
 134.082920797 -10.0078125 20 72.9892081907 20 197.782226562 c 0
 20 342.571249545 168.459960938 389.984375 168.459960938 389.984375 c 1
 302.620117188 318.284179688 l 1
 302.620117188 318.284179688 243.310546875 291.321119168 243.310546875 233.194335938 c 0
 243.310546875 203.241836377 265.474582244 183.731445312 299.500976562 183.731445312 c 0xe8
EndSplineSet
Substitution2: "'onum' Oldstyle Figures lookup 27-1" eight.osf
Substitution2: "'frac' Diagonal Fractions in Latin lookup 26 subtable" eight.numr
Substitution2: "'dnom' Denominators lookup 0 subtable" eight.dnom
Substitution2: "'numr' Numerators lookup 0 subtable" eight.numr
Substitution2: "'sinf' Scientific Inferiors lookup 0 subtable" eight.inferior
Substitution2: "'sups' Superscript lookup 0 subtable" eight.superior
EndChar

StartChar: g
Encoding: 71 103 26
Width: 609
Flags: W
HStem: -196.994 164.931<163.891 272.596> 29.9336 170<174.861 343.332> 336.934 170<174.861 341.012> 477.934 20G<364.101 567.271>
VStem: 20 212<215.055 320.303> 365 209<23.6399 496.264> 369.422 83.5781<78.1481 456.717>
AnchorPoint: "Anchor-2" 310 -190 basechar 0
AnchorPoint: "Anchor-0" 313 496.019 basechar 0
LayerCount: 2
Back
SplineSet
382.270507812 -173.994140625 m 5
 387 496.93359375 l 5
 574.169921875 496.93359375 l 5xf8
 576.848632812 -23.0673828125 l 5
 672 -21.0634765625 l 5
 668.379882812 -173.994140625 l 5
 382.270507812 -173.994140625 l 5
EndSplineSet
Fore
SplineSet
365 266.93359375 m 4xec
 365 309.711523438 339.33358028 336.93359375 299 336.93359375 c 4
 258.05514249 336.93359375 232 309.711523438 232 266.93359375 c 4
 232 225.988774565 258.05514249 199.93359375 299 199.93359375 c 4
 339.33358028 199.93359375 365 225.988774565 365 266.93359375 c 4xec
453 279.93359375 m 0xea
 453 145.882121598 399.285464432 29.93359375 243 29.93359375 c 0
 106.721585458 29.93359375 20 122.100160354 20 266.93359375 c 0
 20 413.600961538 106.721585458 506.93359375 243 506.93359375 c 0
 371.333734857 506.93359375 453 418.656368238 453 279.93359375 c 0xea
574 83 m 0xdc
 574 -58 529.124616281 -180.994140625 163.890625 -196.994140625 c 1
 135.270507812 -32.0634765625 l 1
 320.548345705 -15.5589230003 369.421875 10.4141257898 369.421875 96.9326171875 c 0xda
 369.421875 281 364.100585938 494.93359375 364.100585938 494.93359375 c 1
 567.270507812 497.93359375 l 1
 567.270507812 497.93359375 574 247 574 83 c 0xdc
EndSplineSet
Substitution2: "'ss05' Style Set 5 lookup 13-1" g.ss05
EndChar

StartChar: u
Encoding: 85 117 27
Width: 653
Flags: W
HStem: -9.93164 179<172.98 317.291> 0 21G<353.271 639.799> 477.002 20G<42.8408 257.17 357.81 565.334>
VStem: 25 212<183.037 498.226> 358 207.17<213.068 497.002>
AnchorPoint: "Anchor-3" 465 0 basechar 0
AnchorPoint: "Anchor-2" 325 0 basechar 0
AnchorPoint: "Anchor-0" 298 496.019 basechar 0
LayerCount: 2
Fore
SplineSet
353.270507812 0 m 1x78
 358 497.001953125 l 1
 565.169921875 497.001953125 l 1
 567.848632812 170.926757812 l 1
 643 172.930664062 l 1
 639.379882812 0 l 1
 353.270507812 0 l 1x78
455 213.068359375 m 1
 436 122 379.72265625 -9.931640625 217 -9.931640625 c 0
 94.9296875 -9.931640625 25 67.8438216743 25 218.068359375 c 0
 25 362.624966514 42.8408203125 512.001953125 42.8408203125 512.001953125 c 1
 257.169921875 497.001953125 l 1
 257.169921875 497.001953125 237 364.212683602 237 255.068359375 c 0
 237 200.48046875 252.380448936 169.068359375 296 169.068359375 c 0xb8
 339.311341002 169.068359375 361.538461538 195.478883045 367 250.068359375 c 1
 455 213.068359375 l 1
EndSplineSet
EndChar

StartChar: exclam
Encoding: 1 33 28
Width: 276
Flags: W
HStem: -10 240<63.1689 212.831> 274.635 456.365<42.0248 232.979>
VStem: 18 240<35.1689 184.831>
LayerCount: 2
Fore
SplineSet
14 731 m 1
 262 731 l 1
 233 261 l 5
 233 261 204.97260274 274.634765625 140 274.634765625 c 0
 75.9230769231 274.634765625 42 259 42 259 c 5
 14 731 l 1
18 110 m 0
 18 183.333806818 64.6661931818 230 138 230 c 0
 211.333806818 230 258 183.333806818 258 110 c 0
 258 36.6661931818 211.333806818 -10 138 -10 c 0
 64.6661931818 -10 18 36.6661931818 18 110 c 0
EndSplineSet
Substitution2: "'ss16' Style Set 16 lookup 26-1" exclam.ss16
EndChar

StartChar: r
Encoding: 82 114 29
Width: 498
Flags: W
HStem: 0 21G<83.8301 300.159> 496.934 0.0683594G<13.2014 294.948 396.765 434.601>
VStem: 83.8301 216.329<0 252.607>
AnchorPoint: "Anchor-2" 308 0 basechar 0
AnchorPoint: "Anchor-0" 269 496.019 basechar 0
LayerCount: 2
Fore
SplineSet
427 516.93359375 m 1
 498.068359375 329.926757812 l 1
 271.962890625 252.607421875 l 1
 220.669921875 380.447265625 l 5
 427 516.93359375 l 1
294.729492188 497.001953125 m 1
 300.159179688 0 l 1
 83.830078125 0 l 1
 88.1513671875 326.075195312 l 1
 10 324.071289062 l 1
 13.6201171875 497.001953125 l 1
 294.729492188 497.001953125 l 1
EndSplineSet
Substitution2: "'ss07' Style Set 7 lookup 15-1" r.ss07
EndChar

StartChar: f
Encoding: 70 102 30
Width: 433
Flags: W
HStem: 0 21G<93.335 308.637> 326 171<12 224> 480 20G<190 412.57>
VStem: 74.8691 213.533<496.497 599.613> 95.9941 208.644<0 476.558>
AnchorPoint: "Anchor-2" 208 0 basechar 0
AnchorPoint: "Anchor-0" 254 765.01 basechar 0
LayerCount: 2
Fore
SplineSet
12 497 m 1xc0
 190 493 l 1
 413 500 l 1xa0
 409 314 l 1
 187 331 l 1
 7 326 l 1
 12 497 l 1xc0
95.984375 412.096679688 m 2
 95.9908695046 413.106851635 95.9940772295 414.107757517 95.9940772295 415.099589509 c 0x88
 95.9940772295 495.588724833 74.869140625 516.320441961 74.869140625 580 c 0
 74.869140625 711.412976765 178.933523082 767.86158329 362.01953125 797.84375 c 1
 387.7265625 628.374023438 l 1
 315.458737611 616.168643108 288.40234375 595.276646113 288.40234375 556 c 0x90
 288.40234375 514.735543854 303.871883933 476.557950382 304.637695312 399.96484375 c 2x88
 308.63671875 0 l 1
 93.3349609375 0 l 1
 95.984375 412.096679688 l 2
EndSplineSet
EndChar

StartChar: one
Encoding: 17 49 32
Width: 379
Flags: W
HStem: 0 21G<103.83 350.159> 711.011 20G<13.2633 13.6201>
VStem: 103.83 246.329<0 530.084>
LayerCount: 2
Fore
SplineSet
344.729492188 731.010742188 m 5
 350.159179688 0 l 5
 103.830078125 0 l 5
 108.151367188 530.083984375 l 5
 10 528.080078125 l 1
 13.6201171875 731.010742188 l 1
 13.6201171875 731.010742188 344.729492188 731.010742188 344.729492188 731.010742188 c 5
EndSplineSet
Substitution2: "'onum' Oldstyle Figures lookup 27-1" one.osf
Substitution2: "'frac' Diagonal Fractions in Latin lookup 26 subtable" one.numr
Substitution2: "'dnom' Denominators lookup 0 subtable" one.dnom
Substitution2: "'numr' Numerators lookup 0 subtable" one.numr
Substitution2: "'sinf' Scientific Inferiors lookup 0 subtable" one.inferior
Substitution2: "'sups' Superscript lookup 0 subtable" one.superior
EndChar

StartChar: zero
Encoding: 16 48 33
Width: 675
Flags: W
HStem: -10.0664 225.351<291.862 382.359> 513.583 225.351<291.862 382.359>
VStem: 20 235.487<258.301 468.001> 419.513 235.487<259.509 466.748>
LayerCount: 2
Fore
SplineSet
255.487304688 361.704101562 m 0
 255.487304688 272.225093179 287.068742932 215.284179688 336.697265625 215.284179688 c 4
 387.306909857 215.284179688 419.512695312 272.225093179 419.512695312 361.704101562 c 0
 419.512695312 454.519525227 387.306909857 513.583007812 336.697265625 513.583007812 c 0
 287.068742932 513.583007812 255.487304688 454.519525227 255.487304688 361.704101562 c 0
20 361.93359375 m 0
 20 592.322641811 143.277643938 738.93359375 337 738.93359375 c 0
 531.333734557 738.93359375 655 592.322641811 655 361.93359375 c 0
 655 134.599173678 531.333734557 -10.06640625 337 -10.06640625 c 0
 143.277643938 -10.06640625 20 134.599173678 20 361.93359375 c 0
EndSplineSet
Substitution2: "'onum' Oldstyle Figures lookup 27-1" zero.osf
Substitution2: "'frac' Diagonal Fractions in Latin lookup 26 subtable" zero.numr
Substitution2: "'dnom' Denominators lookup 0 subtable" zero.dnom
Substitution2: "'numr' Numerators lookup 0 subtable" zero.numr
Substitution2: "'sinf' Scientific Inferiors lookup 0 subtable" zero.inferior
Substitution2: "'sups' Superscript lookup 0 subtable" zero.superior
EndChar

StartChar: uni0237
Encoding: 424 567 35
Width: 330
Flags: W
HStem: 477.011 20G<13.2014 294.957>
VStem: 83.8301 216.329<40 326.084>
AnchorPoint: "Anchor-0" 179 496.019 basechar 0
AnchorPoint: "Anchor-2" 100 -165 basechar 0
LayerCount: 2
Fore
SplineSet
294.729492188 497.010742188 m 1
 300.159179688 20 l 5
 193 -204 l 1
 1 -118 l 1
 83.830078125 40 l 5
 88.1513671875 326.083984375 l 1
 10 324.080078125 l 1
 13.6201171875 497.010742188 l 1
 294.729492188 497.010742188 l 1
EndSplineSet
EndChar

StartChar: y
Encoding: 89 121 36
Width: 593
Flags: W
HStem: 491 20G<10 283.202 389.966 511.52>
AnchorPoint: "Anchor-2" 223 -186.994 basechar 0
AnchorPoint: "Anchor-0" 333 496.019 basechar 0
AnchorPoint: "Anchor-0" 333 496.019 basechar 0
LayerCount: 2
Fore
SplineSet
377.905273438 84.1328125 m 1
 367 30 l 1
 217.174804688 30 l 1
 120.151367188 332 l 1
 17.0458984375 324 l 1
 10 497 l 1
 278.546875 511 l 1
 377.905273438 84.1328125 l 1
266.198242188 74.158203125 m 2
 395.904296875 511 l 1
 592.450195312 477 l 1
 449.540039062 72.2880859375 l 2
 379.225050302 -126.83910992 309 -225 309 -225 c 1
 129 -143.994140625 l 1
 129 -143.994140625 232.466144678 -39.4493699673 266.198242188 74.158203125 c 2
EndSplineSet
Substitution2: "'ss08' Style Set 8 lookup 16-1" y.ss08
EndChar

StartChar: x
Encoding: 88 120 37
Width: 571
Flags: W
HStem: 494 20G<134.266 252.337 383.126 425.677>
AnchorPoint: "Anchor-2" 321 0 basechar 0
AnchorPoint: "Anchor-0" 313 496.019 basechar 0
LayerCount: 2
Fore
SplineSet
396 514 m 1
 580 390 l 1
 450 253 l 5
 581 118 l 1
 397 -17 l 1
 228 253 l 5
 396 514 l 1
125.142578125 324.638671875 m 1
 30.1806640625 307.47265625 l 1
 1.2314453125 468.8359375 l 1
 240 514 l 1
 401 253 l 5
 232 -17 l 1
 48 118 l 1
 179 253 l 5
 125.142578125 324.638671875 l 1
EndSplineSet
EndChar

StartChar: S
Encoding: 51 83 38
Width: 487
Flags: W
HStem: 718.393 20G<385.69 389.141>
AnchorPoint: "Anchor-2" 207 0 basechar 0
AnchorPoint: "Anchor-2" 207 0 basechar 0
AnchorPoint: "Anchor-0" 227 731.008 basechar 0
LayerCount: 2
Fore
SplineSet
385.690429688 738.392578125 m 1
 416.541015625 559.592773438 l 1
 416.541015625 559.592773438 292.268554688 550.275259185 292.268554688 506.93359375 c 0
 292.268554688 484.339956503 311.98254433 470.386263597 380.284179688 425.650390625 c 4
 444.807873316 383.388975555 467.3359375 332.715162183 467.3359375 251.044921875 c 0
 467.3359375 -14.0094951877 74.4423828125 -19.8779296875 74.4423828125 -19.8779296875 c 1
 47.220703125 176.682617188 l 1
 47.220703125 176.682617188 193.12109375 183.621951099 193.12109375 246 c 0
 193.12109375 270.619308786 179.886400644 286.751939322 131.401367188 312.655273438 c 4
 36.2206886373 363.505953371 20 418.572197532 20 486 c 0
 20 731.98828125 385.690429688 738.392578125 385.690429688 738.392578125 c 1
EndSplineSet
EndChar

StartChar: v
Encoding: 86 118 39
Width: 593
Flags: W
HStem: 0 21G<220.728 431.645> 491 20G<10 283.169 391.388 511.52>
AnchorPoint: "Anchor-2" 328 0 basechar 0
AnchorPoint: "Anchor-0" 336 496.019 basechar 0
LayerCount: 2
Fore
SplineSet
424.607421875 0 m 1
 227.174804688 0 l 1
 120.151367188 332 l 1
 17.0458984375 324 l 1
 10 497 l 1
 278.546875 511 l 1
 337.905273438 254.1328125 l 1
 395.904296875 511 l 1
 592.450195312 477 l 1
 424.607421875 0 l 1
EndSplineSet
EndChar

StartChar: w
Encoding: 87 119 40
Width: 862
Flags: W
HStem: 0 21G<199.113 438.377 506.81 735.254> 491 20G<10 282.813 394.845 515.52 669.761 784.637>
AnchorPoint: "Anchor-2" 470 0 basechar 0
AnchorPoint: "Anchor-0" 503 496.019 basechar 0
LayerCount: 2
Fore
SplineSet
431.607421875 0 m 1
 204.174804688 0 l 1
 120.151367188 332 l 1
 17.0458984375 324 l 1
 10 497 l 1
 278.546875 511 l 1
 332.905273438 256.1328125 l 5
 399.904296875 521 l 1
 596.450195312 487 l 1
 431.607421875 0 l 1
729.607421875 0 m 1
 513.174804688 0 l 1
 401.151367188 352 l 1
 555 453 l 1
 610.905273438 252.1328125 l 5
 674.904296875 501 l 1
 861.450195312 467 l 1
 729.607421875 0 l 1
EndSplineSet
EndChar

StartChar: six
Encoding: 22 54 41
Width: 619
Flags: W
HStem: -10 191.858<274.374 356.523> 296.009 169.718<272.752 451.189>
VStem: 20 243.375<191.443 420.339> 369.625 229.691<194.367 285.78>
LayerCount: 2
Back
SplineSet
498.310546875 748.9921875 m 1
 512 637.533203125 l 1
 175.065365254 610.146952891 170.458007812 416.932617188 170.458007812 416.932617188 c 1
 170.458007812 416.932617188 215.209080523 483.7265625 336.600585938 483.7265625 c 0
 472.674581172 483.7265625 572.31640625 388.819152798 572.31640625 245.249023438 c 0
 572.31640625 100.798835154 490.925518401 -10 316.310546875 -10 c 0
 170.896357089 -10 45 80.6409024463 45 300.348632812 c 4
 45 516.020480109 153.586977651 728.185507446 498.310546875 748.9921875 c 1
176.375 242.858398438 m 0
 176.375 154.857510653 229.905346038 98.8583984375 314.025390625 98.8583984375 c 0
 398.725511696 98.8583984375 452.625 154.857510653 452.625 242.858398438 c 0
 452.625 329.728081597 398.725511696 385.008789062 314.025390625 385.008789062 c 0
 229.905346038 385.008789062 176.375 329.728081597 176.375 242.858398438 c 0
EndSplineSet
Fore
SplineSet
498.310546875 748.9921875 m 1
 522 546.533203125 l 5
 300.309126118 524.143993801 271.458007812 443.932617188 271.458007812 443.932617188 c 1
 271.458007812 443.932617188 301.933348917 465.7265625 384.600585938 465.7265625 c 0
 517.778228596 465.7265625 599.31640625 374.002929688 599.31640625 235.249023438 c 0
 599.31640625 96.4580218707 520.52726296 -10 316.310546875 -10 c 0
 138.863937848 -10 20 85.3138872312 20 316.348632812 c 0
 20 524.328963045 134.575531105 728.927537232 498.310546875 748.9921875 c 1
263.375 239.858398438 m 0
 263.375 204.413596413 283.850013666 181.858398438 316.025390625 181.858398438 c 0
 348.780846603 181.858398438 369.625 204.413596413 369.625 239.858398438 c 0
 369.625 274.172526042 348.780846603 296.008789062 316.025390625 296.008789062 c 0
 283.850013666 296.008789062 263.375 274.172526042 263.375 239.858398438 c 0
EndSplineSet
Substitution2: "'onum' Oldstyle Figures lookup 27-1" six.osf
Substitution2: "'frac' Diagonal Fractions in Latin lookup 26 subtable" six.numr
Substitution2: "'dnom' Denominators lookup 0 subtable" six.dnom
Substitution2: "'numr' Numerators lookup 0 subtable" six.numr
Substitution2: "'sinf' Scientific Inferiors lookup 0 subtable" six.inferior
Substitution2: "'sups' Superscript lookup 0 subtable" six.superior
EndChar

StartChar: z
Encoding: 90 122 42
Width: 461
Flags: W
HStem: 0 184<277.169 431.017> 318 179<30 173.848>
AnchorPoint: "Anchor-2" 238 0 basechar 0
AnchorPoint: "Anchor-0" 231 496.019 basechar 0
LayerCount: 2
Fore
SplineSet
20 318 m 1
 30 497 l 1
 399.016601562 497 l 1
 431.016601562 349 l 1
 277.168945312 184 l 5
 441.016601562 190 l 1
 431.016601562 0 l 1
 41 0 l 1
 12 148 l 1
 173.84765625 324 l 1
 20 318 l 1
EndSplineSet
EndChar

StartChar: O
Encoding: 47 79 43
Width: 785
Flags: W
HStem: -10.0664 236.351<322.688 460.306> 502.583 236.351<322.688 460.306>
VStem: 20 249.487<280.153 445.681> 515.513 249.487<281.474 444.307>
AnchorPoint: "Anchor-3" 435 0 basechar 0
AnchorPoint: "Anchor-2" 377 0 basechar 0
AnchorPoint: "Anchor-2" 377 0 basechar 0
AnchorPoint: "Anchor-0" 377 731.008 basechar 0
AnchorPoint: "Anchor-0" 377 731.008 basechar 0
LayerCount: 2
Back
SplineSet
295.487304688 361.704101562 m 0
 295.487304688 247.780273438 320.957605563 175.284179688 376.697265625 175.284179688 c 0
 439.529183996 175.284179688 469.512695312 247.780273438 469.512695312 361.704101562 c 0
 469.512695312 478.963867188 439.529183996 553.583007812 376.697265625 553.583007812 c 0
 320.957605563 553.583007812 295.487304688 478.963867188 295.487304688 361.704101562 c 0
90 361.93359375 m 0
 90 592.322265625 195.499874605 738.93359375 377 738.93359375 c 0
 565.222610829 738.93359375 675 592.322265625 675 361.93359375 c 0
 675 134.599609375 565.222610829 -10.06640625 377 -10.06640625 c 0
 195.499874605 -10.06640625 90 134.599609375 90 361.93359375 c 0
EndSplineSet
Fore
SplineSet
269.487304688 361.704101562 m 0
 269.487304688 278.447111753 317.61510681 226.284179688 386.697265625 226.284179688 c 4
 462.829767688 226.284179688 515.512695312 278.447111753 515.512695312 361.704101562 c 0
 515.512695312 448.301394267 462.829767688 502.583007812 386.697265625 502.583007812 c 0
 317.61510681 502.583007812 269.487304688 448.301394267 269.487304688 361.704101562 c 0
20 361.93359375 m 0
 20 592.322641811 162.722067273 738.93359375 387 738.93359375 c 0
 618.000476926 738.93359375 765 592.322641811 765 361.93359375 c 0
 765 134.599173678 618.000476926 -10.06640625 387 -10.06640625 c 0
 162.722067273 -10.06640625 20 134.599173678 20 361.93359375 c 0
EndSplineSet
EndChar

StartChar: L
Encoding: 44 76 44
Width: 620
Flags: W
HStem: 0 201.293<359.064 606.539> 711.011 20G<13.2633 354.729>
VStem: 113.43 245.635<201.293 530.084>
AnchorPoint: "Anchor-2" 377 0 basechar 0
AnchorPoint: "Anchor-2" 377 0 basechar 0
AnchorPoint: "Anchor-0" 206 731.008 basechar 0
LayerCount: 2
Fore
SplineSet
359.064453125 201.29296875 m 5
 610.159179688 202.930664062 l 5
 606.5390625 0 l 1
 113.4296875 0 l 1
 118.151367188 530.083984375 l 1
 10 528.080078125 l 1
 13.6201171875 731.010742188 l 1
 354.729492188 731.009765625 l 1
 359.064453125 201.29296875 l 5
EndSplineSet
EndChar

StartChar: K
Encoding: 43 75 45
Width: 757
Flags: W
HStem: 0 21G<113.83 360.159> 711.011 20G<13.2633 13.6201>
VStem: 113.83 246.329<0 530.084>
AnchorPoint: "Anchor-2" 426 0 basechar 0
AnchorPoint: "Anchor-2" 426 0 basechar 0
AnchorPoint: "Anchor-0" 416 731.008 basechar 0
LayerCount: 2
Fore
SplineSet
354.729492188 731.010742188 m 1
 360.159179688 0 l 1
 113.830078125 0 l 1
 118.151367188 530.083984375 l 1
 10 528.080078125 l 1
 13.6201171875 731.010742188 l 1
 13.6201171875 731.010742188 354.729492188 731.010742188 354.729492188 731.010742188 c 1
528 745.0078125 m 1
 742 601.0078125 l 1
 516 364 l 5
 747 128 l 1
 543 -27 l 1
 244 364 l 5
 528 745.0078125 l 1
EndSplineSet
EndChar

StartChar: J
Encoding: 42 74 46
Width: 370
Flags: W
HStem: 711.011 20G<13.2633 13.6201>
VStem: 113.83 246.329<100 530.084>
AnchorPoint: "Anchor-2" 100 -148 basechar 0
AnchorPoint: "Anchor-2" 100 -148 basechar 0
AnchorPoint: "Anchor-0" 186 731.008 basechar 0
LayerCount: 2
Fore
SplineSet
354.729492188 731.010742188 m 1
 360.159179688 60 l 1
 218 -197 l 1
 0 -80 l 1
 113.830078125 100 l 1
 118.151367188 530.083984375 l 5
 10 528.080078125 l 5
 13.6201171875 731.010742188 l 1
 13.6201171875 731.010742188 354.729492188 731.010742188 354.729492188 731.010742188 c 1
EndSplineSet
Substitution2: "'ss12' Style Set 12 lookup 20-1" J.ss12
EndChar

StartChar: H
Encoding: 40 72 47
Width: 780
Flags: W
HStem: 0 21G<113.83 360.159 503.83 750.159> 225 202<377.455 604> 236 187<252 474.545> 530.084 200.927<13.6201 118.151 413.62 508.151>
VStem: 113.83 246.329<0 236 423 530.084> 248 112.159<236 423> 503.83 246.329<0 225 427 530.084>
AnchorPoint: "Anchor-2" 432 0 basechar 0
AnchorPoint: "Anchor-2" 432 0 basechar 0
AnchorPoint: "Anchor-0" 386 731.008 basechar 0
LayerCount: 2
Back
SplineSet
252 393 m 1xb6
 608 397 l 1
 604 285 l 1xd6
 248 296 l 1
 252 393 l 1xb6
704.729492188 731.010742188 m 1
 710.159179688 0 l 1
 573.830078125 0 l 1
 578.151367188 620.083984375 l 1
 440 618.080078125 l 5
 443.620117188 731.010742188 l 5
 704.729492188 731.010742188 l 1
294.729492188 731.010742188 m 1
 300.159179688 0 l 1
 163.830078125 0 l 1x9a
 168.151367188 620.083984375 l 1
 30 618.080078125 l 5
 33.6201171875 731.010742188 l 5
 294.729492188 731.010742188 l 1
EndSplineSet
Fore
SplineSet
252 423 m 1xb6
 608 427 l 1
 604 225 l 5xd6
 248 236 l 5
 252 423 l 1xb6
744.729492188 731.010742188 m 1
 750.159179688 0 l 1
 503.830078125 0 l 1
 508.151367188 530.083984375 l 5
 410 528.080078125 l 5
 413.620117188 731.010742188 l 1
 413.620117188 731.010742188 744.729492188 731.010742188 744.729492188 731.010742188 c 1
354.729492188 731.010742188 m 1
 360.159179688 0 l 1
 113.830078125 0 l 1x9a
 118.151367188 530.083984375 l 5
 10 528.080078125 l 5
 13.6201171875 731.010742188 l 1
 13.6201171875 731.010742188 354.729492188 731.010742188 354.729492188 731.010742188 c 1
EndSplineSet
EndChar

StartChar: backslash
Encoding: 60 92 48
Width: 517
Flags: W
LayerCount: 2
Back
SplineSet
506 -123.994140625 m 1
 317 -175.994140625 l 1
 178.016601562 331 l 1
 1 763.001953125 l 1
 190 815.001953125 l 1
 308.362304688 379 l 1
 506 -123.994140625 l 1
EndSplineSet
Fore
SplineSet
516 -113.994140625 m 5
 317 -185.994140625 l 1
 1 753.001953125 l 1
 200 825.001953125 l 5
 516 -113.994140625 l 5
EndSplineSet
EndChar

StartChar: F
Encoding: 38 70 49
Width: 620
Flags: W
HStem: 0 21G<103.83 350.159> 245 172<327.455 554> 256 157<202 424.545> 528.08 202.931<13.6201 108.151 346.104 598.729>
VStem: 198 152.159<256 413>
AnchorPoint: "Anchor-2" 367 0 basechar 0
AnchorPoint: "Anchor-2" 367 0 basechar 0
AnchorPoint: "Anchor-0" 327 731.008 basechar 0
LayerCount: 2
Fore
SplineSet
202 413 m 1xb8
 558 417 l 1
 554 245 l 1xd8
 198 256 l 1
 202 413 l 1xb8
598.729492188 731.010742188 m 1
 604.61328125 524 l 5
 346.103515625 528 l 5
 350.159179688 0 l 1
 103.830078125 0 l 1
 108.151367188 530.083984375 l 5
 10 528.080078125 l 5
 13.6201171875 731.010742188 l 1
 598.729492188 731.010742188 l 1
EndSplineSet
EndChar

StartChar: E
Encoding: 37 69 50
Width: 620
Flags: W
HStem: 0 201.48<349.018 606.539> 278 172<327.455 554> 289 157<202 424.545> 528.08 202.931<13.6201 108.151 346.104 598.729>
VStem: 198 151.018<289 446>
AnchorPoint: "Anchor-3" 535 0 basechar 0
AnchorPoint: "Anchor-2" 377 0 basechar 0
AnchorPoint: "Anchor-2" 377 0 basechar 0
AnchorPoint: "Anchor-0" 327 731.008 basechar 0
LayerCount: 2
Fore
SplineSet
202 446 m 1xb8
 558 450 l 1
 554 278 l 5xd8
 198 289 l 5
 202 446 l 1xb8
598.729492188 731.010742188 m 1
 604.61328125 524 l 1
 346.103515625 528 l 1
 349.017578125 201.48046875 l 1
 369.064453125 201.29296875 l 1
 610.159179688 202.930664062 l 1
 606.5390625 0 l 1
 103.4296875 0 l 1
 108.151367188 530.083984375 l 1
 10 528.080078125 l 1
 13.6201171875 731.010742188 l 1
 598.729492188 731.010742188 l 1
EndSplineSet
Substitution2: "'ss15' Style Set 15 lookup 23-1" E.ss15
EndChar

StartChar: N
Encoding: 46 78 51
Width: 800
Flags: W
HStem: -10 21G<532.073 770.539> 0 21G<115.21 351.539> 711.011 20G<541.76 765.258>
VStem: 115.21 236.329<0 311.793> 538.151 226.958<409.889 731.011>
AnchorPoint: "Anchor-2" 438 0 basechar 0
AnchorPoint: "Anchor-2" 438 0 basechar 0
AnchorPoint: "Anchor-0" 441 731.008 basechar 0
LayerCount: 2
Fore
SplineSet
765.109375 731.010742188 m 1x78
 770.5390625 0 l 1x78
 544.209960938 -10 l 1xb8
 348.92578125 311.79296875 l 1
 351.5390625 0 l 1
 115.209960938 0 l 1
 119.53125 534.083984375 l 5
 14.3798828125 528.080078125 l 5
 10 731.010742188 l 1
 356.109375 741.010742188 l 1
 538.151367188 409.888671875 l 1
 542 731.010742188 l 1
 765.109375 731.010742188 l 1x78
EndSplineSet
EndChar

StartChar: bar
Encoding: 92 124 52
Width: 266
Flags: W
VStem: 30 206.329<-170 788.992>
LayerCount: 2
Back
SplineSet
220.899414062 788.9921875 m 1
 193.418945312 334 l 1
 226.329101562 -170 l 1
 30 -170 l 1
 63.3330078125 338 l 1
 36.169921875 788.9921875 l 1
 220.899414062 788.9921875 l 1
EndSplineSet
Fore
SplineSet
230.899414062 788.9921875 m 5
 236.329101562 -170 l 5
 30 -170 l 1
 36.169921875 788.9921875 l 1
 230.899414062 788.9921875 l 5
EndSplineSet
EndChar

StartChar: U
Encoding: 53 85 53
Width: 767
Flags: W
HStem: -10 222<372.241 481.472> 530.084 200.927<13.6201 125.151 407.62 496.151>
VStem: 113.517 238.643<232.922 630.378> 500.83 236.812<233.955 526.709>
AnchorPoint: "Anchor-3" 490 0 basechar 0
AnchorPoint: "Anchor-2" 420 0 basechar 0
AnchorPoint: "Anchor-2" 420 0 basechar 0
AnchorPoint: "Anchor-0" 386 731.008 basechar 0
AnchorPoint: "Anchor-0" 386 731.008 basechar 0
LayerCount: 2
Fore
SplineSet
737.641601562 270.946289062 m 0
 737.641601562 85.0810974474 618.397442476 -10 418.830078125 -10 c 0
 219.850320624 -10 113.516601562 84.5172625506 113.516601562 290.099609375 c 0
 113.516601562 383.780669819 125.151367188 530.083984375 125.151367188 530.083984375 c 1
 10 528.080078125 l 1
 13.6201171875 731.010742188 l 1
 13.6201171875 731.010742188 355.729492188 731.010742188 355.729492188 731.010742188 c 1
 355.729492188 731.010742188 352.159179688 410.898395891 352.159179688 299 c 0
 352.159179688 247.181180514 371.06761488 212 425 212 c 4
 477.871834485 212 500.830078125 243.630793645 500.830078125 299 c 0
 500.830078125 388.327246413 496.151367188 530.083984375 496.151367188 530.083984375 c 1
 404 528.080078125 l 1
 407.620117188 731.010742188 l 1
 724.729492188 731.010742188 l 1
 724.729492188 731.010742188 737.641601562 450.456085293 737.641601562 270.946289062 c 0
EndSplineSet
EndChar

StartChar: A
Encoding: 33 65 54
Width: 710
Flags: W
HStem: 118 172<297.455 524> 129 157<172 394.545> 499.069 221.931<25.8193 167.508> 711 20G<21.4395 480.11>
AnchorPoint: "Anchor-3" 525 0 basechar 0
AnchorPoint: "Anchor-2" 358 0 basechar 0
AnchorPoint: "Anchor-2" 358 0 basechar 0
AnchorPoint: "Anchor-0" 336 731.008 basechar 0
LayerCount: 2
Fore
SplineSet
172 286 m 5x40
 528 290 l 5
 524 118 l 5x80
 168 129 l 5
 172 286 l 5x40
167.5078125 504.112304688 m 1
 25.8193359375 499.069335938 l 1
 21.439453125 721 l 1x20
 473.548828125 731 l 1x10
 708.450195312 14.9111328125 l 1
 467.176757812 -15 l 1
 356.818359375 456.8671875 l 1
 239.819335938 -15 l 1
 0.2734375 19 l 1
 167.5078125 504.112304688 l 1
EndSplineSet
Substitution2: "'fina' Terminal Forms lookup 25-1" A.fina
Substitution2: "'init' Initial Forms lookup 24-1" A.init
Substitution2: "'ss14' Style Set 14 lookup 22-1" A.ss14
EndChar

StartChar: B
Encoding: 34 66 55
Width: 759
Flags: W
HStem: -10.0664 184<358.969 480.445> 286.992 150.941<359.462 457.942> 545.992 193<359.806 456.587> 545.992 43.2578<181.228 355.67>
VStem: 118 239.714<177.246 277.434 443.877 589.25> 470.917 229<453.319 529.584> 497.917 242<191.037 269.341>
AnchorPoint: "Anchor-2" 427 0 basechar 0
AnchorPoint: "Anchor-2" 427 0 basechar 0
AnchorPoint: "Anchor-0" 386 731.008 basechar 0
LayerCount: 2
Fore
SplineSet
285.196289062 443.876953125 m 1xda
 285.196289062 443.876953125 313.094989602 437.93359375 382.916992188 437.93359375 c 0
 444.813476562 437.93359375 470.916992188 460.74036679 470.916992188 490.93359375 c 4
 470.916992188 526.859699444 440.510752918 545.9921875 375.916992188 545.9921875 c 0
 181.22753011 545.9921875 39.26953125 481.427734375 39.26953125 481.427734375 c 1
 -2 664.840820312 l 1
 -2 664.840820312 113.998046875 738.9921875 386.916992188 738.9921875 c 0
 578.194885878 738.9921875 699.916992188 654.581054688 699.916992188 521.93359375 c 0xec
 699.916992188 405.540145178 606.275390625 374.96875 606.275390625 374.96875 c 1
 606.275390625 374.96875 739.916992188 346.117181818 739.916992188 196.9921875 c 0
 739.916992188 70.4560546875 618.194885878 -10.06640625 426.916992188 -10.06640625 c 0
 210.137695312 -10.06640625 118 24.0849609375 118 24.0849609375 c 1
 123.940429688 589.25 l 1
 355.669921875 589.25 l 1
 357.713867188 177.24609375 l 1
 357.713867188 177.24609375 367.780379744 173.93359375 400.916992188 173.93359375 c 0
 466.073817172 173.93359375 497.916992188 194.947885596 497.916992188 231.9921875 c 0
 497.916992188 262.2421875 472.128303785 286.9921875 397 286.9921875 c 0
 315.639565832 286.9921875 285.2578125 277.43359375 285.2578125 277.43359375 c 1
 285.196289062 443.876953125 l 1xda
EndSplineSet
EndChar

StartChar: C
Encoding: 35 67 56
Width: 651
Flags: W
HStem: -10.0664 234<344.153 542.141> 505.992 233<353.088 527.429>
VStem: 20 267<279.597 443.811>
AnchorPoint: "Anchor-0" 387 731.008 basechar 0
AnchorPoint: "Anchor-2" 378 0 basechar 0
AnchorPoint: "Anchor-2" 378 0 basechar 0
LayerCount: 2
Fore
SplineSet
20 361.93359375 m 0
 20 592.358449127 166.61095194 738.9921875 397 738.9921875 c 0
 571.675165443 738.9921875 645.916992188 662.840820312 645.916992188 662.840820312 c 1
 584.647460938 447.427734375 l 1
 584.647460938 447.427734375 526.075837018 505.9921875 435 505.9921875 c 0
 344.555001797 505.9921875 287 449.970206782 287 361.93359375 c 0
 287 277.599960937 334.704541015 223.93359375 428 223.93359375 c 4
 544.925100942 223.93359375 604.1484375 282.364257812 604.1484375 282.364257812 c 5
 661.146484375 52.31640625 l 1
 661.146484375 52.31640625 594.321700857 -10.06640625 387 -10.06640625 c 0
 162.722067273 -10.06640625 20 134.599173678 20 361.93359375 c 0
EndSplineSet
EndChar

StartChar: D
Encoding: 36 68 57
Width: 783
Flags: W
HStem: -10.0664 227<359.003 466.802> 509.992 229<363.106 459.579> 509.992 89.2578<170.25 355.67>
VStem: 123.94 231.729<218.847 599.25> 518.917 245<271.308 447.863>
AnchorPoint: "Anchor-2" 399 0 basechar 0
AnchorPoint: "Anchor-2" 399 0 basechar 0
AnchorPoint: "Anchor-0" 386 731.008 basechar 0
LayerCount: 2
Fore
SplineSet
763.916992188 361.93359375 m 0xd8
 763.916992188 134.599609375 621.195104604 -10.06640625 396.916992188 -10.06640625 c 0
 185.814453125 -10.06640625 117.770507812 37.31640625 117.770507812 37.31640625 c 1
 123.940429688 599.25 l 1
 355.669921875 599.25 l 1xb8
 359.002929688 218.846679688 l 5
 359.002929688 218.846679688 372.86177342 216.93359375 390.916992188 216.93359375 c 4
 475.610821301 216.93359375 518.916992188 273.321763393 518.916992188 361.93359375 c 0
 518.916992188 452.414567288 471.316554213 509.9921875 373.916992188 509.9921875 c 0
 170.25 509.9921875 39.26953125 441.427734375 39.26953125 441.427734375 c 1
 -2 664.840820312 l 1
 -2 664.840820312 113.998046875 738.9921875 386.916992188 738.9921875 c 0
 617.306438394 738.9921875 763.916992188 592.358398438 763.916992188 361.93359375 c 0xd8
EndSplineSet
EndChar

StartChar: P
Encoding: 48 80 58
Width: 741
Flags: W
HStem: 0 21G<117.771 359.003> 169.934 195<360.01 461.809> 512.992 226<360.846 460.491> 512.992 86.2578<199.71 355.67>
VStem: 117.771 241.232<0 214.434 395.877 599.25> 482.917 239<387.609 489.232>
AnchorPoint: "Anchor-2" 377 0 basechar 0
AnchorPoint: "Anchor-2" 377 0 basechar 0
AnchorPoint: "Anchor-0" 396 731.008 basechar 0
LayerCount: 2
Fore
SplineSet
359.002929688 0 m 1xdc
 117.770507812 0 l 1
 123.940429688 599.25 l 1
 355.669921875 599.25 l 1
 359.002929688 0 l 1xdc
284.196289062 395.876953125 m 1
 284.196289062 395.876953125 315.615473126 364.93359375 396.916992188 364.93359375 c 0
 453.283977004 364.93359375 482.916992188 393.230198637 482.916992188 438.93359375 c 4
 482.916992188 488.522310351 450.816993775 512.9921875 379.916992188 512.9921875 c 0
 199.709864346 512.9921875 39.26953125 441.427734375 39.26953125 441.427734375 c 1
 -2 664.840820312 l 1
 -2 664.840820312 116.980638256 738.9921875 396.916992188 738.9921875 c 0xec
 597.419301835 738.9921875 721.916992188 627.940722392 721.916992188 433.93359375 c 0
 721.916992188 273.821289062 612.983433948 169.93359375 436.916992188 169.93359375 c 0
 323.528692805 169.93359375 255.2578125 214.43359375 255.2578125 214.43359375 c 1
 284.196289062 395.876953125 l 1
EndSplineSet
EndChar

StartChar: M
Encoding: 45 77 59
Width: 887
VWidth: 1111
Flags: W
HStem: 509.08 21G<12.6053 118.817>
AnchorPoint: "Anchor-2" 493 0 basechar 0
AnchorPoint: "Anchor-2" 493 0 basechar 0
AnchorPoint: "Anchor-0" 504 731.008 basechar 0
LayerCount: 2
Back
SplineSet
198.817382812 545.212890625 m 1
 93 539.080078125 l 1
 88.6201171875 731.010742188 l 1
 430.729492188 741.010742188 l 1
 483 547 l 1
 552 740 l 1
 766 731 l 1
 825 5 l 1
 613 -9 l 1
 584 361 l 5
 486 160 l 5
 390 352 l 5
 356 -6 l 1
 155 9 l 1
 198.817382812 545.212890625 l 1
EndSplineSet
Fore
SplineSet
118.817382812 515.212890625 m 5
 13 509.080078125 l 5
 8.6201171875 731.010742188 l 1
 380.729492188 741.010742188 l 1
 477 547 l 1
 580 740 l 1
 834 731 l 1
 893 5 l 1
 641 -9 l 1
 612 361 l 5
 470 150 l 5
 340 352 l 5
 306 -6 l 1
 75 9 l 1
 118.817382812 515.212890625 l 5
EndSplineSet
Substitution2: "'fina' Terminal Forms lookup 25-1" M.fina
Substitution2: "'init' Initial Forms lookup 24-1" M.init
EndChar

StartChar: G
Encoding: 39 71 60
Width: 794
Flags: W
HStem: -10.0664 237<343.886 481.099> 505.992 233<350.575 537.921>
VStem: 20 267<281.097 444.464>
AnchorPoint: "Anchor-2" 388 0 basechar 0
AnchorPoint: "Anchor-2" 388 0 basechar 0
AnchorPoint: "Anchor-0" 387 731.008 basechar 0
LayerCount: 2
Fore
SplineSet
488.987304688 399.25 m 5
 780.096679688 399.25 l 1
 783.716796875 216.319335938 l 1
 705.565429688 218.323242188 l 5
 709.88671875 -87.7607421875 l 5
 483.557617188 -87.7607421875 l 5
 488.987304688 399.25 l 5
20 361.93359375 m 0
 20 592.358449127 166.61095194 738.9921875 397 738.9921875 c 0
 585.709977925 738.9921875 665.916992188 662.840820312 665.916992188 662.840820312 c 1
 604.647460938 447.427734375 l 1
 604.647460938 447.427734375 536.290902555 505.9921875 430 505.9921875 c 0
 342.61057606 505.9921875 287 451.136856669 287 364.93359375 c 0
 287 280.599960937 333.012890625 226.93359375 423 226.93359375 c 0
 529.968290998 226.93359375 584.1484375 298.364257812 584.1484375 298.364257812 c 1
 651.146484375 152.31640625 l 1
 651.146484375 152.31640625 581.884143298 -10.06640625 367 -10.06640625 c 0
 154.944297939 -10.06640625 20 134.599173678 20 361.93359375 c 0
EndSplineSet
Substitution2: "'ss11' Style Set 11 lookup 19-1" G.ss11
EndChar

StartChar: T
Encoding: 52 84 61
Width: 590
Flags: W
HStem: 0 21G<166.83 413.159> 528 20<171.151 409.104> 528.08 202.931<13.6201 171.151 409.104 568.729>
VStem: 166.83 246.329<0 548>
AnchorPoint: "Anchor-2" 288 0 basechar 0
AnchorPoint: "Anchor-2" 288 0 basechar 0
AnchorPoint: "Anchor-0" 289 731.008 basechar 0
LayerCount: 2
Fore
SplineSet
409.103515625 548 m 1xd0
 413.159179688 0 l 1
 166.830078125 0 l 1
 171.151367188 550.083984375 l 1
 409.103515625 548 l 1xd0
292.103515625 528 m 5
 10 528.080078125 l 5
 13.6201171875 731.010742188 l 1
 568.729492188 731.010742188 l 1xb0
 574.61328125 524 l 5
 292.103515625 528 l 5
EndSplineSet
EndChar

StartChar: V
Encoding: 54 86 62
Width: 774
Flags: W
HStem: 0 21G<288.318 540.597> 518 21G<16.3874 140.151>
AnchorPoint: "Anchor-2" 416 0 basechar 0
AnchorPoint: "Anchor-2" 416 0 basechar 0
AnchorPoint: "Anchor-0" 415 731.008 basechar 0
LayerCount: 2
Fore
SplineSet
533.607421875 0 m 1
 294.174804688 0 l 1
 140.151367188 526 l 1
 17.0458984375 518 l 1
 10 732 l 1
 328.546875 746 l 1
 428.905273438 314.1328125 l 5
 535.904296875 746 l 1
 782.450195312 712 l 1
 533.607421875 0 l 1
EndSplineSet
Substitution2: "'fina' Terminal Forms lookup 25-1" V.fina
Substitution2: "'init' Initial Forms lookup 24-1" V.init
EndChar

StartChar: W
Encoding: 55 87 63
Width: 1134
Flags: W
HStem: 0 21G<270.041 531.389 677.654 939.557> 518 21G<16.3874 140.151> 716 20G<891.876 1040.93>
AnchorPoint: "Anchor-2" 609 0 basechar 0
AnchorPoint: "Anchor-2" 609 0 basechar 0
AnchorPoint: "Anchor-0" 655 731.008 basechar 0
LayerCount: 2
Fore
SplineSet
524.607421875 0 m 1
 275.174804688 0 l 1
 140.151367188 526 l 1
 17.0458984375 518 l 1
 10 732 l 1
 328.546875 746 l 1
 419.905273438 294.1328125 l 1
 523.904296875 759 l 1
 770.450195312 725 l 1
 524.607421875 0 l 1
933.607421875 0 m 1
 684.174804688 0 l 1
 543 433 l 1
 696.395507812 623 l 1
 806.905273438 294.1328125 l 1
 895.904296875 736 l 1
 1142.45019531 702 l 1
 933.607421875 0 l 1
EndSplineSet
Substitution2: "'fina' Terminal Forms lookup 25-1" W.fina
Substitution2: "'init' Initial Forms lookup 24-1" W.init
EndChar

StartChar: Q
Encoding: 49 81 64
Width: 785
Flags: W
HStem: -10.0664 236.351<322.688 460.306> 502.583 236.351<322.688 460.306>
VStem: 20 249.487<280.153 445.681> 515.513 249.487<281.474 444.307>
AnchorPoint: "Anchor-0" 377 731.008 basechar 0
LayerCount: 2
Fore
SplineSet
109 199 m 5
 823 41 l 5
 770 -184 l 1
 64 19 l 1
 109 199 l 5
EndSplineSet
Refer: 43 79 N 1 0 0 1 0 0 2
Substitution2: "'ss10' Style Set 10 lookup 18-1" Q.ss10
EndChar

StartChar: underscore
Encoding: 63 95 65
Width: 580
Flags: W
HStem: -188 192<212.182 566> -177 177<14 363.818>
LayerCount: 2
Fore
SplineSet
14 0 m 1x40
 570 4 l 1
 566 -188 l 5x80
 10 -177 l 5
 14 0 l 1x40
EndSplineSet
EndChar

StartChar: R
Encoding: 50 82 66
Width: 739
Flags: W
HStem: 0 21G<117.771 359.003> 517.992 221<360.449 450.995> 517.992 81.2578<226 355.67>
VStem: 117.771 241.232<0 264.434 397.877 599.25> 474.917 234<399.426 493.227>
AnchorPoint: "Anchor-2" 417 0 basechar 0
AnchorPoint: "Anchor-2" 417 0 basechar 0
AnchorPoint: "Anchor-0" 386 731.008 basechar 0
LayerCount: 2
Back
SplineSet
289.002929688 0 m 5xb8
 157.770507812 0 l 5
 163.940429688 669.25 l 1
 285.669921875 669.25 l 1
 289.002929688 0 l 5xb8
274.196289062 355.876953125 m 1
 274.196289062 355.876953125 298.311785784 334.93359375 373.916992188 334.93359375 c 0
 487.119605202 334.93359375 551.916992188 395.921142577 551.916992188 475.93359375 c 0
 551.916992188 563.722489841 489.063645233 617.9921875 353 617.9921875 c 0
 219.214256452 617.9921875 49.26953125 556.427734375 49.26953125 556.427734375 c 1
 18 674.840820312 l 1
 18 674.840820312 122.067681352 738.9921875 366.916992188 738.9921875 c 0xd8
 557.583984375 738.9921875 678.916992188 638.247073955 678.916992188 479.93359375 c 0
 678.916992188 277.943443494 474.740234375 245.040039062 474.740234375 245.040039062 c 1
 701.770507812 69 l 1
 625.770507812 -37 l 1
 235.2578125 285.43359375 l 1
 274.196289062 355.876953125 l 1
EndSplineSet
Fore
SplineSet
359.002929688 0 m 1xb8
 117.770507812 0 l 1
 123.940429688 599.25 l 1
 355.669921875 599.25 l 1
 359.002929688 0 l 1xb8
284.196289062 397.876953125 m 1
 284.196289062 397.876953125 309.03727696 376.93359375 386.916992188 376.93359375 c 0
 442.882328958 376.93359375 474.916992188 407.21110026 474.916992188 446.93359375 c 4
 474.916992188 490.84614658 442.713488605 517.9921875 373 517.9921875 c 0
 226 517.9921875 39.26953125 441.427734375 39.26953125 441.427734375 c 1
 -2 664.840820312 l 1
 -2 664.840820312 113.998046875 738.9921875 386.916992188 738.9921875 c 0xd8
 583.695105919 738.9921875 708.916992188 636.302627487 708.916992188 474.93359375 c 0
 708.916992188 361.116305972 643.100428476 309.068311453 597.467773438 285 c 0
 578.354000338 274.918705286 564.740234375 271.040039062 564.740234375 271.040039062 c 1
 731.770507812 175 l 1
 595.770507812 -37 l 1
 235.2578125 264.43359375 l 1
 284.196289062 397.876953125 l 1
EndSplineSet
EndChar

StartChar: five
Encoding: 21 53 67
Width: 581
Flags: W
HStem: -10.0664 204<103.48 294.498> 530 201.008<259 519.017>
VStem: 310.917 249<211.587 302.949>
LayerCount: 2
Back
SplineSet
529.016601562 549.0078125 m 5
 239 550 l 29
 224 471 l 21
 224 471 248.642857143 479 316 479 c 4
 492.46964774 479 559.916992188 386.635747331 559.916992188 246.9921875 c 4
 559.916992188 68.1744133844 445.97265625 -10.06640625 266.916992188 -10.06640625 c 4
 85.2246769868 -10.06640625 8 44.0849609375 8 44.0849609375 c 5
 50 207 l 5
 50 207 126.85984585 163.93359375 233.916992188 163.93359375 c 4
 305.791015625 163.93359375 340.916992188 195.456256431 340.916992188 244.9921875 c 4
 340.916992188 289.603298611 303.700683594 317.9921875 230.916992188 317.9921875 c 4
 164.966339317 317.9921875 125.2578125 288.43359375 125.2578125 288.43359375 c 5
 19 392 l 5
 80 731.0078125 l 5
 365 731.0078125 l 5
 362 798.0078125 l 5
 515.016601562 800.0078125 l 5
 529.016601562 549.0078125 l 5
EndSplineSet
Fore
SplineSet
519.016601562 529.0078125 m 1
 259 530 l 1
 244 461 l 1
 244 461 265.964285715 479 326 479 c 0
 495.23482387 479 559.916992188 386.635747331 559.916992188 246.9921875 c 0
 559.916992188 68.1744133844 445.97265625 -10.06640625 266.916992188 -10.06640625 c 0
 85.2246769868 -10.06640625 8 44.0849609375 8 44.0849609375 c 1
 50 237 l 1
 50 237 126.85984585 193.93359375 233.916992188 193.93359375 c 0
 285.639420268 193.93359375 310.916992188 217.678509193 310.916992188 254.9921875 c 4
 310.916992188 293.4921875 284.865576172 317.9921875 233.916992188 317.9921875 c 0
 180.449997257 317.9921875 148.2578125 288.43359375 148.2578125 288.43359375 c 1
 19 382 l 1
 80 731.0078125 l 1
 519.016601562 731.0078125 l 1
 519.016601562 731.0078125 519.016601562 529.0078125 519.016601562 529.0078125 c 1
EndSplineSet
Substitution2: "'onum' Oldstyle Figures lookup 27-1" five.osf
Substitution2: "'ss02' Style Set 2 lookup 10-1" five.ss02
Substitution2: "'frac' Diagonal Fractions in Latin lookup 26 subtable" five.numr
Substitution2: "'dnom' Denominators lookup 0 subtable" five.dnom
Substitution2: "'numr' Numerators lookup 0 subtable" five.numr
Substitution2: "'sinf' Scientific Inferiors lookup 0 subtable" five.inferior
Substitution2: "'sups' Superscript lookup 0 subtable" five.superior
EndChar

StartChar: Z
Encoding: 58 90 68
Width: 601
Flags: W
HStem: 0 224<337.169 571.017> 502.008 229<30 253.848>
AnchorPoint: "Anchor-2" 315 0 basechar 0
AnchorPoint: "Anchor-2" 315 0 basechar 0
AnchorPoint: "Anchor-0" 294 731.008 basechar 0
LayerCount: 2
Fore
SplineSet
20 502.0078125 m 1
 30 731.0078125 l 1
 559.016601562 731.0078125 l 1
 589.016601562 543.0078125 l 1
 337.168945312 224 l 5
 581.016601562 230 l 5
 571.016601562 0 l 1
 42 0 l 1
 12 188 l 5
 253.84765625 508.0078125 l 1
 20 502.0078125 l 1
EndSplineSet
EndChar

StartChar: Y
Encoding: 57 89 69
Width: 754
Flags: W
HStem: 0 21G<279.83 532.159> 508 21G<25.4528 150.151>
VStem: 283.623 245.111<0 250.155>
AnchorPoint: "Anchor-2" 413 0 basechar 0
AnchorPoint: "Anchor-2" 413 0 basechar 0
AnchorPoint: "Anchor-0" 411 731.008 basechar 0
AnchorPoint: "Anchor-0" 411 731.008 basechar 0
LayerCount: 2
Fore
SplineSet
283.623046875 250.155273438 m 5
 150.151367188 521 l 1
 27.0458984375 508 l 1
 10 722 l 1
 318.546875 746 l 1
 415.905273438 474.1328125 l 1
 515.904296875 746 l 1
 762.450195312 672 l 1
 528.734375 256.650390625 l 5
 532.159179688 0 l 1
 279.830078125 0 l 1
 283.623046875 250.155273438 l 5
EndSplineSet
Substitution2: "'ss13' Style Set 13 lookup 21-1" Y.ss13
EndChar

StartChar: X
Encoding: 56 88 70
Width: 776
Flags: W
AnchorPoint: "Anchor-2" 425 0 basechar 0
AnchorPoint: "Anchor-2" 425 0 basechar 0
AnchorPoint: "Anchor-0" 422 731.008 basechar 0
LayerCount: 2
Fore
SplineSet
307 745.0078125 m 1
 541 364 l 1
 292 -27 l 1
 68 108 l 1
 279 364 l 1
 174 501.0078125 l 1
 44 466.93359375 l 1
 -2 671 l 1
 307 745.0078125 l 1
552 745.0078125 m 1
 776 621.0078125 l 1
 570 364 l 1
 781 108 l 1
 557 -27 l 5
 308 364 l 1
 552 745.0078125 l 1
EndSplineSet
EndChar

StartChar: comma
Encoding: 12 44 71
Width: 290
Flags: W
VStem: -31 317
LayerCount: 2
Fore
SplineSet
81 214 m 29
 286 101 l 29
 106 -143 l 29
 -31 -69 l 29
 81 214 l 29
EndSplineSet
EndChar

StartChar: nine
Encoding: 25 57 73
Width: 619
Flags: W
HStem: 263.266 169.718<168.127 346.564> 547.134 191.858<262.793 344.943>
VStem: 20 229.691<445.027 536.784> 355.941 243.375<316.25 536.564>
LayerCount: 2
Fore
SplineSet
121.005859375 -20 m 1
 97.31640625 182.458984375 l 5
 319.007334573 204.84765625 347.858398438 285.059570312 347.858398438 285.059570312 c 5
 347.858398438 285.059570312 317.38299307 263.265625 234.715820312 263.265625 c 0
 101.537499735 263.265625 20 351.0095367 20 483.743164062 c 0
 20 628.193352346 98.7890625 738.9921875 303.005859375 738.9921875 c 0
 480.452148438 738.9921875 599.31640625 646.598632812 599.31640625 422.643554688 c 0
 599.31640625 209.85546875 484.740234375 0.5283203125 121.005859375 -20 c 1
355.94140625 489.133789062 m 0
 355.94140625 524.578591087 335.466392584 547.133789062 303.291015625 547.133789062 c 0
 270.535559647 547.133789062 249.69140625 524.578591087 249.69140625 489.133789062 c 0
 249.69140625 454.819661458 270.535559647 432.983398438 303.291015625 432.983398438 c 0
 335.466392584 432.983398438 355.94140625 454.819661458 355.94140625 489.133789062 c 0
EndSplineSet
Substitution2: "'onum' Oldstyle Figures lookup 27-1" nine.osf
Substitution2: "'frac' Diagonal Fractions in Latin lookup 26 subtable" nine.numr
Substitution2: "'dnom' Denominators lookup 0 subtable" nine.dnom
Substitution2: "'numr' Numerators lookup 0 subtable" nine.numr
Substitution2: "'sinf' Scientific Inferiors lookup 0 subtable" nine.inferior
Substitution2: "'sups' Superscript lookup 0 subtable" nine.superior
EndChar

StartChar: at
Encoding: 32 64 74
Width: 925
Flags: W
HStem: -159.727 120.877<342.188 661.063> 48.4209 162.636<405.844 487.771> 48.4209 126.558<700.053 768.398> 332.86 160.646<405.478 488.143> 589.433 118.294<335.532 606.313>
VStem: 20 128<147.14 402.047> 207.529 187.595<222.034 322.088> 516.985 104.309<127.216 383.729> 784.404 120.883<186.85 422.853>
LayerCount: 2
Back
SplineSet
365.124023438 363.1875 m 4
 365.124023438 312.997070312 392.912109375 281.056640625 436.578125 281.056640625 c 4
 480.749023438 281.056640625 508.856445312 312.997070312 508.856445312 363.1875 c 4
 508.856445312 411.876953125 480.749023438 442.860351562 436.578125 442.860351562 c 4
 392.912109375 442.860351562 365.124023438 411.876953125 365.124023438 363.1875 c 4
207.529296875 362.254882812 m 4
 207.529296875 497.463867188 289.260742188 583.505859375 417.694335938 583.505859375 c 4
 542.1171875 583.505859375 621.293945312 489.212890625 621.293945312 341.037109375 c 4
 621.293945312 217.215820312 542.1171875 138.420898438 417.694335938 138.420898438 c 4
 289.260742188 138.420898438 207.529296875 225.466796875 207.529296875 362.254882812 c 4
482.713867188 -69.7265625 m 4
 196.205078125 -69.7265625 20 94.120869497 20 358.08984375 c 4
 20 614.04161915 179.602962903 797.7265625 458.420898438 797.7265625 c 4
 719.309753403 797.7265625 905.287109375 654.481445312 905.287109375 383.712890625 c 4
 905.287109375 234.838867187 845.620117188 138.420898438 718.064453125 138.420898438 c 4
 609.642578125 138.420898438 536.985351562 205.224609375 536.985351562 370.025390625 c 4xbec0
 536.985351562 473.729492188 566.369140625 581.030273438 566.369140625 581.030273438 c 5
 721.677734375 569.944335938 l 5
 721.677734375 569.944335938 689.767578125 428.384765625 689.767578125 333.604492188 c 4
 689.767578125 282.138671875 704.185546875 254.978515625 740.811523438 254.978515625 c 4xbf40
 782.825195312 254.978515625 804.404296875 305.185546875 804.404296875 383.712890625 c 4
 804.404296875 614.064453125 662.40625 699.432617188 459.420898438 699.432617188 c 4
 248.553710938 699.432617188 128 560.595703125 128 361.93359375 c 4
 128 157.513671875 252.708984375 31.150390625 483.713867188 31.150390625 c 4
 665.813476562 31.150390625 793 94 793 94 c 5
 818.250976562 5.7744140625 l 5
 818.250976562 5.7744140625 708.095703125 -69.7265625 482.713867188 -69.7265625 c 4
EndSplineSet
Fore
SplineSet
395.124023438 273.1875 m 0xdf80
 395.124023438 235.219133997 415.134225298 211.056640625 446.578125 211.056640625 c 0
 478.52657603 211.056640625 498.856445312 235.219133997 498.856445312 273.1875 c 0
 498.856445312 309.654608331 478.52657603 332.860351562 446.578125 332.860351562 c 0
 415.134225298 332.860351562 395.124023438 309.654608331 395.124023438 273.1875 c 0xdf80
207.529296875 272.254882812 m 0
 207.529296875 407.463867188 289.260742188 493.505859375 417.694335938 493.505859375 c 0
 542.1171875 493.505859375 621.293945312 399.212890625 621.293945312 251.037109375 c 0
 621.293945312 127.215820312 542.1171875 48.4208984375 417.694335938 48.4208984375 c 0
 289.260742188 48.4208984375 207.529296875 135.466796875 207.529296875 272.254882812 c 0
482.713867188 -159.7265625 m 0
 196.205078125 -159.7265625 20 4.12109375 20 268.08984375 c 0
 20 524.041992188 179.602539062 707.7265625 458.420898438 707.7265625 c 0
 719.309570312 707.7265625 905.287109375 564.481445312 905.287109375 293.712890625 c 0
 905.287109375 144.838867188 845.620117188 48.4208984375 718.064453125 48.4208984375 c 0
 597.667493859 48.4208984375 516.985351562 115.224609375 516.985351562 280.025390625 c 0
 516.985351562 383.729492188 545.369140625 491.030273438 545.369140625 491.030273438 c 1
 712.677734375 481.944335938 l 1
 712.677734375 481.944335938 685.767578125 345.391324324 685.767578125 254.604492188 c 0
 685.767578125 203.138671875 704.185546875 174.978515625 740.811523438 174.978515625 c 0xbf80
 769.611847441 174.978515625 784.404296875 221.285498325 784.404296875 293.712890625 c 0
 784.404296875 509.472297924 650.638416969 589.432617188 459.420898438 589.432617188 c 0
 261.278749612 589.432617188 148 458.823099616 148 271.93359375 c 0
 148 79.8734241202 265.697225999 -38.849609375 483.713867188 -38.849609375 c 0
 659.925737344 -38.849609375 783 24 783 24 c 1
 818.250976562 -84.2255859375 l 1
 818.250976562 -84.2255859375 708.095703125 -159.7265625 482.713867188 -159.7265625 c 0
EndSplineSet
EndChar

StartChar: percent
Encoding: 5 37 75
Width: 909
Flags: W
HStem: -10 148.558<664.803 723.514> 222.225 148.654<664.62 726.314> 358.113 148.558<184.803 243.514> 590.338 148.654<184.62 246.314>
VStem: 19.5205 159.304<511.009 586.878> 249.784 159.336<511.009 586.878> 499.521 159.304<142.895 218.764> 729.784 159.336<142.895 218.764>
LayerCount: 2
Fore
SplineSet
658.82421875 181.256835938 m 0xdf
 658.82421875 155.162929886 672.509505745 138.557617188 694.015625 138.557617188 c 0
 715.874215214 138.557617188 729.784179688 155.162929886 729.784179688 181.256835938 c 0
 729.784179688 206.29281808 715.874215214 222.224609375 694.015625 222.224609375 c 0
 672.509505745 222.224609375 658.82421875 206.29281808 658.82421875 181.256835938 c 0xdf
499.520507812 181.399414062 m 0
 499.520507812 297.192737064 575.151113526 370.87890625 694 370.87890625 c 0
 813.240276768 370.87890625 889.120117188 297.192737064 889.120117188 181.399414062 c 0
 889.120117188 64.4329057751 813.240276768 -10 694 -10 c 0
 575.151113526 -10 499.520507812 64.4329057751 499.520507812 181.399414062 c 0
178.82421875 549.370117188 m 0
 178.82421875 523.276211136 192.509505745 506.670898438 214.015625 506.670898438 c 0xbf
 235.874215214 506.670898438 249.784179688 523.276211136 249.784179688 549.370117188 c 0
 249.784179688 574.40609933 235.874215214 590.337890625 214.015625 590.337890625 c 0
 192.509505745 590.337890625 178.82421875 574.40609933 178.82421875 549.370117188 c 0
19.5205078125 549.512695312 m 0
 19.5205078125 665.306018314 95.1511135263 738.9921875 214 738.9921875 c 0
 333.240276768 738.9921875 409.120117188 665.306018314 409.120117188 549.512695312 c 0
 409.120117188 432.546187025 333.240276768 358.11328125 214 358.11328125 c 0
 95.1511135263 358.11328125 19.5205078125 432.546187025 19.5205078125 549.512695312 c 0
EndSplineSet
Refer: 168 8260 N 1 0 0 1 314 0 2
EndChar

StartChar: ampersand
Encoding: 6 38 76
Width: 722
Flags: W
HStem: -9.99805 199.998<270.049 397.983>
VStem: 20 243<123.04 272.988> 38 236<460.248 589.5> 584 40<254 433> 591 26<254 433>
LayerCount: 2
Fore
SplineSet
702 437 m 1x88
 699 245 l 1
 584 254 l 1x90
 591 433 l 1
 702 437 l 1x88
355 745 m 5
 375 553 l 5
 318.273972603 548.838334417 274 537.389365143 274 498.010742188 c 0xa0
 274 467.422092174 298.096539836 448.589744787 357 444 c 1
 350 289 l 1
 294.230769231 284.985915493 263 274.549295775 263 232 c 0
 263 206.524590164 281 190 323 190 c 0
 376.797752809 190 399 207 399 207 c 1
 406 567 l 1
 617 557 l 1xc8
 624 46 l 1
 624 46 514.625069413 -9.998046875 320 -9.998046875 c 0
 145.084745763 -9.998046875 20 48.9660983365 20 201 c 0xd0
 20 336.196243274 153 374 153 374 c 1
 153 374 38 415.049946433 38 537 c 0xa0
 38 642 121.370030581 729 355 745 c 5
EndSplineSet
Substitution2: "'ss18' Style Set 18 lookup 30-1" ampersand.ss18
Substitution2: "'ss09' Style Set 9 lookup 17-1" ampersand.ss09
EndChar

StartChar: two
Encoding: 18 50 77
Width: 595
Flags: W
HStem: 0 216<362.152 565> 521 218<136.888 280.572>
VStem: 299.364 255.6<393.926 574.121>
LayerCount: 2
Fore
SplineSet
362.15234375 216 m 5
 575 222 l 1
 565 0 l 1
 29.9833984375 0 l 1
 19.9833984375 180 l 1
 19.9833984375 180 299.364257812 300.478288294 299.364257812 439 c 0
 299.364257812 494.187959559 271.279731897 521 223.955078125 521 c 0
 137.888709207 521 86.4638671875 462 86.4638671875 462 c 1
 16.5634765625 663 l 1
 16.5634765625 663 111.962992259 739 272.03125 739 c 0
 454.892314605 739 554.963867188 646.292324216 554.963867188 498.93359375 c 0
 554.963867188 304.775626025 362.15234375 216 362.15234375 216 c 5
EndSplineSet
Substitution2: "'onum' Oldstyle Figures lookup 27-1" two.osf
Substitution2: "'frac' Diagonal Fractions in Latin lookup 26 subtable" two.numr
Substitution2: "'dnom' Denominators lookup 0 subtable" two.dnom
Substitution2: "'numr' Numerators lookup 0 subtable" two.numr
Substitution2: "'sinf' Scientific Inferiors lookup 0 subtable" two.inferior
Substitution2: "'sups' Superscript lookup 0 subtable" two.superior
EndChar

StartChar: three.ss01
Encoding: 736 -1 78
Width: 579
Flags: W
HStem: -10.0664 174<98.0262 316.557> 297.992 149.941<145.272 303.429> 521.428 21G<57.5099 62.2695> 565.992 173<109.638 300.544>
VStem: 317.917 223<465.034 548.471> 340.917 219<188.942 278.44>
LayerCount: 2
Fore
SplineSet
50 204 m 1xf4
 50 204 126.85984585 163.93359375 233.916992188 163.93359375 c 0
 305.791015625 163.93359375 340.916992188 191.567382812 340.916992188 234.9921875 c 0xf4
 340.916992188 273.4921875 308.850585938 297.9921875 236.916992188 297.9921875 c 0
 164.724609375 297.9921875 145.2578125 291.43359375 145.2578125 291.43359375 c 1
 145.196289062 451.876953125 l 1
 145.196289062 451.876953125 163.407226562 447.93359375 222.916992188 447.93359375 c 0
 290.407226562 447.93359375 317.916992188 470.322265625 317.916992188 503.93359375 c 0
 317.916992188 542.469726562 288.416992188 565.9921875 221.916992188 565.9921875 c 0
 125.625976562 565.9921875 62.26953125 521.427734375 62.26953125 521.427734375 c 1
 21 694.840820312 l 1
 21 694.840820312 92.2587890625 738.9921875 259.916992188 738.9921875 c 0
 434.083984375 738.9921875 540.916992188 663.358398438 540.916992188 542.93359375 c 0xf8
 540.916992188 418.620117188 426.275390625 384.96875 426.275390625 384.96875 c 1
 426.275390625 384.96875 559.916992188 354.49609375 559.916992188 196.9921875 c 0
 559.916992188 70.4560546875 445.97265625 -10.06640625 266.916992188 -10.06640625 c 0
 85.2246769868 -10.06640625 8 34.0849609375 8 34.0849609375 c 1
 50 204 l 1xf4
EndSplineSet
Validated: 1
Substitution2: "'dnom' Denominators lookup 0 subtable" three.ss01.dnom
Substitution2: "'numr' Numerators lookup 0 subtable" three.ss01.numr
Substitution2: "'subs' Subscript lookup 0 subtable" three.ss01.subscript
Substitution2: "'sinf' Scientific Inferiors lookup 0 subtable" three.ss01.inferior
Substitution2: "'sups' Superscript lookup 0 subtable" three.ss01.superior
EndChar

StartChar: four
Encoding: 20 52 79
Width: 709
Flags: W
HStem: 0 21G<352 590.329> 134.68 213.28<282.72 679.76> 142.12 200.96<282.72 642.527>
LayerCount: 2
Fore
SplineSet
584.899414062 576.93359375 m 1x80
 590.329101562 0 l 1
 352 0 l 1
 358.169921875 576.93359375 l 1
 584.899414062 576.93359375 l 1x80
298.559570312 752.280273438 m 1
 480.759765625 654.400390625 l 5
 282.719726562 343.080078125 l 1xa0
 685.639648438 347.959960938 l 1
 679.759765625 134.6796875 l 1xc0
 50.759765625 142.120117188 l 1xa0
 13.5595703125 298.360351562 l 1
 298.559570312 752.280273438 l 1
EndSplineSet
Substitution2: "'onum' Oldstyle Figures lookup 27-1" four.osf
Substitution2: "'frac' Diagonal Fractions in Latin lookup 26 subtable" four.numr
Substitution2: "'dnom' Denominators lookup 0 subtable" four.dnom
Substitution2: "'numr' Numerators lookup 0 subtable" four.numr
Substitution2: "'sinf' Scientific Inferiors lookup 0 subtable" four.inferior
Substitution2: "'sups' Superscript lookup 0 subtable" four.superior
EndChar

StartChar: seven
Encoding: 23 55 80
Width: 578
Flags: W
HStem: 711.008 20G<35.0132 543.346>
LayerCount: 2
Fore
SplineSet
7 429.0078125 m 1
 37 731.0078125 l 1
 537.016601562 731.0078125 l 5
 587.016601562 573.0078125 l 5
 361 -16 l 1
 120 48 l 1
 312.84765625 516.0078125 l 1
 227 514.712890625 l 1
 211 411 l 1
 7 429.0078125 l 1
EndSplineSet
Substitution2: "'onum' Oldstyle Figures lookup 27-1" seven.osf
Substitution2: "'frac' Diagonal Fractions in Latin lookup 26 subtable" seven.numr
Substitution2: "'dnom' Denominators lookup 0 subtable" seven.dnom
Substitution2: "'numr' Numerators lookup 0 subtable" seven.numr
Substitution2: "'sinf' Scientific Inferiors lookup 0 subtable" seven.inferior
Substitution2: "'sups' Superscript lookup 0 subtable" seven.superior
EndChar

StartChar: dollar
Encoding: 4 36 81
Width: 408
Flags: W
HStem: 0 21G<138 295> 719 20G<103 260>
LayerCount: 2
Fore
SplineSet
295 0 m 25
 138 0 l 25
 155 215 l 25
 276 215 l 25
 295 0 l 25
103 739 m 25
 260 739 l 25
 243 524 l 25
 122 524 l 25
 103 739 l 25
317.302734375 645.848632812 m 1
 341.232421875 503.830078125 l 1
 341.232421875 503.830078125 254.431640625 494.62109375 254.431640625 466.092773438 c 0
 254.431640625 449.807189651 275.004373885 444.600645528 317.732421875 419.959960938 c 0
 367.725577224 391.129587668 388.2890625 353.952936784 388.2890625 295.793945312 c 0
 388.2890625 107.013671875 63.0390625 87.0791015625 63.0390625 87.0791015625 c 1
 41.5693359375 236.671875 l 1
 41.5693359375 236.671875 162.4375 241.786132812 162.4375 287.923828125 c 0
 162.4375 306.712890625 142.064458515 314.505195071 102.036132812 331.897460938 c 0
 40.1920649153 358.768644088 20 400.168945312 20 456.14453125 c 0
 20 629.578125 317.302734375 645.848632812 317.302734375 645.848632812 c 1
EndSplineSet
EndChar

StartChar: quotesingle
Encoding: 7 39 82
Width: 276
Flags: W
HStem: 465 300<47 223>
VStem: 14 248
LayerCount: 2
Fore
SplineSet
14 765 m 1
 262 765 l 5
 223 465 l 5
 47 465 l 1
 14 765 l 1
EndSplineSet
EndChar

StartChar: quotedbl
Encoding: 2 34 83
Width: 502
VWidth: 1111
Flags: W
HStem: 453 315
LayerCount: 2
Fore
SplineSet
9 755 m 1
 221 768 l 1
 216 462 l 1
 61 453 l 1
 9 755 l 1
271 767 m 1
 487 751 l 1
 426 454 l 1
 264 460 l 1
 271 767 l 1
EndSplineSet
EndChar

StartChar: plus
Encoding: 11 43 84
Width: 450
Flags: W
HStem: 160.5 127.5<222 307.647> 283 174<21 256.667>
VStem: 144.5 165<296.971 547.25>
LayerCount: 2
Fore
SplineSet
317.5 569.5 m 5xa0
 309.5 391.5 l 5
 316.5 158.5 l 5
 127.5 160.5 l 1
 144.5 392.5 l 1
 136.5 572.5 l 1
 317.5 569.5 l 5xa0
21 457 m 1x60
 223 453 l 1
 432 460 l 1
 430 271 l 1
 222 288 l 1xa0
 18 283 l 1
 21 457 l 1x60
EndSplineSet
EndChar

StartChar: minus
Encoding: 719 8722 85
Width: 450
Flags: W
HStem: 245 172<174.455 401> 256 157<49 271.545>
LayerCount: 2
Fore
SplineSet
49 413 m 5x40
 405 417 l 5
 401 245 l 5x80
 45 256 l 5
 49 413 l 5x40
EndSplineSet
Validated: 1
EndChar

StartChar: question
Encoding: 31 63 86
Width: 437
Flags: W
HStem: -10 240<71.1689 220.831> 274.635 189.839<60.0223 177.192>
VStem: 26 240<35.1689 184.831>
LayerCount: 2
Fore
SplineSet
20 569 m 1
 50.490234375 745.383789062 l 1
 301.833984375 712.414266652 417 638.8046875 417 497.010742188 c 0
 417 395.624233704 343.070050676 350.200325597 285.438476562 331.552734375 c 0
 263.178356682 324.350126734 239.327148438 320 239.327148438 320 c 1
 231 261 l 1
 231 261 205.98630137 274.634765625 148 274.634765625 c 0
 90.4615384615 274.634765625 60 259 60 259 c 1
 50.9052734375 469 l 1
 50.9052734375 469 74.6714439798 464.473632812 122 464.473632812 c 0
 157.527472527 464.473632812 183 475.539118089 183 505 c 0
 183 541.628720238 145.981237856 555.299107143 20 569 c 1
26 110 m 0
 26 183.333806818 72.6661931818 230 146 230 c 0
 219.333806818 230 266 183.333806818 266 110 c 0
 266 36.6661931818 219.333806818 -10 146 -10 c 0
 72.6661931818 -10 26 36.6661931818 26 110 c 0
EndSplineSet
EndChar

StartChar: parenleft
Encoding: 8 40 87
Width: 381
Flags: W
VStem: 20 231.137<116.161 478.583>
LayerCount: 2
Fore
SplineSet
251.13671875 300.836914062 m 4
 251.13671875 21.0000000002 380 -128.994140625 380 -128.994140625 c 5
 200 -198.994140625 l 1
 200 -198.994140625 20 -37 20 301.005859375 c 0
 20 613 200 791.001953125 200 791.001953125 c 1
 380 721.001953125 l 5
 380 721.001953125 251.13671875 577 251.13671875 300.836914062 c 4
EndSplineSet
EndChar

StartChar: parenright
Encoding: 9 41 88
Width: 381
Flags: W
VStem: 129.863 231.137<113.424 475.847>
LayerCount: 2
Fore
SplineSet
129.86328125 291.170898438 m 0
 129.86328125 571.0078125 1 721.001953125 1 721.001953125 c 1
 181 791.001953125 l 5
 181 791.001953125 361 629.0078125 361 291.001953125 c 4
 361 -20.9921875 181 -198.994140625 181 -198.994140625 c 5
 1 -128.994140625 l 1
 1 -128.994140625 129.86328125 15.0078125 129.86328125 291.170898438 c 0
EndSplineSet
EndChar

StartChar: bracketleft
Encoding: 59 91 89
Width: 394
Flags: W
HStem: -190 174<253.747 381.824> 606 185.011<250.672 372.395>
VStem: 30 223.747<-16 609>
LayerCount: 2
Fore
SplineSet
372.39453125 791.010742188 m 1
 378.665039062 606 l 1
 250.671875 609 l 1
 253.747070312 -16 l 5
 384.806640625 -12 l 5
 381.82421875 -190 l 1
 30 -190 l 1
 32.69140625 791.010742188 l 1
 372.39453125 791.010742188 l 1
EndSplineSet
EndChar

StartChar: bracketright
Encoding: 61 93 90
Width: 394
Flags: W
HStem: -190 178<12.9824 141.06> 606 185.011<22.4121 144.135>
VStem: 141.06 223.747<-16 609>
LayerCount: 2
Fore
SplineSet
22.412109375 791.010742188 m 1
 362.115234375 791.010742188 l 1
 364.806640625 -190 l 1
 12.982421875 -190 l 1
 10 -12 l 5
 141.059570312 -16 l 5
 144.134765625 609 l 1
 16.1416015625 606 l 1
 22.412109375 791.010742188 l 1
EndSplineSet
EndChar

StartChar: less
Encoding: 28 60 91
Width: 450
Flags: W
LayerCount: 2
Fore
SplineSet
309.37109375 341.5 m 5
 435.349609375 271 l 1
 355.349609375 112 l 1
 14.650390625 332 l 1
 355.349609375 571 l 1
 435.349609375 412 l 1
 309.37109375 341.5 l 5
EndSplineSet
EndChar

StartChar: greater
Encoding: 30 62 92
Width: 450
Flags: W
LayerCount: 2
Fore
SplineSet
140.62890625 341.5 m 1
 14.650390625 412 l 1
 94.650390625 571 l 5
 435.349609375 351 l 1
 94.650390625 112 l 1
 14.650390625 271 l 1
 140.62890625 341.5 l 1
EndSplineSet
EndChar

StartChar: asciicircum
Encoding: 62 94 93
Width: 392
Flags: W
LayerCount: 2
Fore
SplineSet
194 748 m 1
 397 512 l 1
 249 396 l 1
 195 510 l 5
 139 402 l 1
 -5 496 l 1
 194 748 l 1
EndSplineSet
EndChar

StartChar: asterisk
Encoding: 10 42 94
Width: 421
Flags: W
LayerCount: 2
Fore
SplineSet
127.857421875 765 m 1
 291.857421875 765 l 5
 283.416992188 644.537109375 l 5
 378.330078125 683.889648438 l 1
 420.1640625 552.8046875 l 1
 323.74609375 523.580078125 l 1
 402.087890625 430.75 l 1
 260.510742188 353.079101562 l 1
 211.842773438 460.431640625 l 1
 162.2734375 353.079101562 l 1
 21.6962890625 430.75 l 1
 100.038085938 523.580078125 l 1
 1 561.254882812 l 1
 48.8681640625 683.889648438 l 1
 140.368164062 644.537109375 l 1
 127.857421875 765 l 1
EndSplineSet
EndChar

StartChar: sterling
Encoding: 97 163 95
Width: 576
Flags: W
HStem: 0 201.293<289.064 556.539> 255 192<172.182 456> 266 177<14 293.818>
LayerCount: 2
Fore
SplineSet
14 443 m 1xa0
 460 447 l 5
 456 255 l 5xc0
 10 266 l 1
 14 443 l 1xa0
289.064453125 201.29296875 m 1
 560.159179688 202.930664062 l 1
 556.5390625 0 l 1
 23.4296875 0 l 1
 43.8920514108 452.125433501 132.684464706 623.005046291 411.930664062 747.6640625 c 1
 508.798828125 566.354492188 l 1
 369.707604193 505.252080226 304.631174145 397.135629655 289.064453125 201.29296875 c 1
EndSplineSet
EndChar

StartChar: braceleft
Encoding: 91 123 96
Width: 474
Flags: W
HStem: -199.681 172.12<225.235 445.139> -29.6504 20G<443.53 445.864> 220.602 160.4<10.0328 138.283> 628.927 172.12<225.235 445.137>
VStem: 73.3398 230.227<-92.4478 52.4678 522.034 677.974> 142.296 210.451<125.273 215.775 385.119 475.767>
LayerCount: 2
Fore
SplineSet
296.986328125 801.046875 m 0xb8
 401.322686383 801.046875 462.4609375 773.2265625 462.4609375 773.2265625 c 1
 443.530273438 611.016601562 l 1
 443.530273438 611.016601562 413.371838919 628.926757812 370.157226562 628.926757812 c 0
 326.250645687 628.926757812 303.56640625 612.704188208 303.56640625 572 c 0xb8
 303.56640625 504.04118289 355.350585938 493.410504411 355.350585938 389.743164062 c 0
 355.350585938 320.680364452 289.905273438 296.681640625 289.905273438 296.681640625 c 1
 289.905273438 296.681640625 352.747070312 266.810162193 352.747070312 204.143554688 c 0xb4
 352.747070312 131.924379563 303.56640625 107.399296123 303.56640625 31 c 0
 303.56640625 -11.3371495863 326.516141088 -27.560546875 370.157226562 -27.560546875 c 0xb8
 419.854372439 -27.560546875 443.530273438 -9.650390625 443.530273438 -9.650390625 c 1x78
 462.4609375 -171.860351562 l 1
 462.4609375 -171.860351562 401.322686383 -199.680664062 296.986328125 -199.680664062 c 0
 153.484375 -199.680664062 73.33984375 -145.895507812 73.33984375 -39 c 0xb8
 73.33984375 59.4572663968 142.295898438 105.053955926 142.295898438 178.765625 c 0
 142.295898438 208.299804688 123.784557308 220.6015625 93.7431640625 220.6015625 c 0
 51.3464752527 220.6015625 10 218.721679688 10 218.721679688 c 1
 10 385 l 1
 10 385 55.0248106136 381.001953125 98.982421875 381.001953125 c 0
 124.420788466 381.001953125 142.295898438 389.53125 142.295898438 413.12109375 c 0xb4
 142.295898438 477.113614659 73.33984375 505.006620615 73.33984375 622 c 0
 73.33984375 733.947265625 153.484375 801.046875 296.986328125 801.046875 c 0xb8
EndSplineSet
EndChar

StartChar: braceright
Encoding: 93 125 97
Width: 474
Flags: W
HStem: -199.681 172.12<28.8633 248.765> -29.6504 20G<28.1356 30.4697> 220.364 160.4<335.717 463.967> 628.927 172.12<28.861 248.765>
VStem: 118.649 213.055<125.599 216.247 385.591 470.737> 170.434 230.227<-76.6074 79.3327 548.898 693.814>
LayerCount: 2
Fore
SplineSet
177.013671875 -199.680664062 m 0xb4
 72.677313617 -199.680664062 11.5390625 -171.860351562 11.5390625 -171.860351562 c 1
 30.4697265625 -9.650390625 l 1x74
 30.4697265625 -9.650390625 60.62816108 -27.560546875 103.842773438 -27.560546875 c 0
 147.749354313 -27.560546875 170.43359375 -11.3379772708 170.43359375 29.3662109375 c 0xb4
 170.43359375 97.3250280474 118.649414062 107.955706527 118.649414062 211.623046875 c 0xb8
 118.649414062 280.685846486 184.094726562 304.684570312 184.094726562 304.684570312 c 1
 184.094726562 304.684570312 121.252929688 334.556048745 121.252929688 397.22265625 c 0
 121.252929688 469.441831374 170.43359375 493.966914814 170.43359375 570.366210938 c 0
 170.43359375 612.703360524 147.483858912 628.926757812 103.842773438 628.926757812 c 0
 54.1456275609 628.926757812 30.4697265625 611.016601562 30.4697265625 611.016601562 c 1
 11.5390625 773.2265625 l 1
 11.5390625 773.2265625 72.677313617 801.046875 177.013671875 801.046875 c 0
 320.515625 801.046875 400.66015625 747.26171875 400.66015625 640.366210938 c 0xb4
 400.66015625 541.90894454 331.704101562 496.31225501 331.704101562 422.600585938 c 0
 331.704101562 393.06640625 350.215442692 380.764648438 380.256835938 380.764648438 c 0
 422.653524747 380.764648438 464 382.64453125 464 382.64453125 c 1
 464 216.366210938 l 1
 464 216.366210938 418.975189387 220.364257812 375.017578125 220.364257812 c 0
 349.579211534 220.364257812 331.704101562 211.834960938 331.704101562 188.245117188 c 0xb8
 331.704101562 124.252596278 400.66015625 96.3595903231 400.66015625 -20.6337890625 c 0
 400.66015625 -132.581054688 320.515625 -199.680664062 177.013671875 -199.680664062 c 0xb4
EndSplineSet
EndChar

StartChar: cent
Encoding: 96 162 98
Width: 391
Flags: W
HStem: 0 21G<168 325> 158.934 55.0664<185 306> 524 52.9336<183 304> 719 20G<164 321>
VStem: 20 189<324.065 411.978>
LayerCount: 2
Fore
SplineSet
325 0 m 1
 168 0 l 1
 185 214 l 1
 306 214 l 1
 325 0 l 1
164 739 m 1
 321 739 l 1
 304 524 l 1
 183 524 l 1
 164 739 l 1
20 369.93359375 m 0
 20 496.433681147 104.38879727 576.93359375 237 576.93359375 c 0
 341.501103034 576.93359375 385.916992188 534.782226562 385.916992188 534.782226562 c 1
 339.647460938 403.369140625 l 1
 339.647460938 403.369140625 313.561819438 425.93359375 273 425.93359375 c 4
 233.888649425 425.93359375 209 404.156129188 209 369.93359375 c 0
 209 333.266796875 232.945644077 309.93359375 285 309.93359375 c 4
 339.069097122 309.93359375 369.1484375 335.364257812 369.1484375 335.364257812 c 1
 401.146484375 191.31640625 l 1
 401.146484375 191.31640625 343.572391561 158.93359375 247 158.93359375 c 0
 108.277681937 158.93359375 20 240.988532903 20 369.93359375 c 0
EndSplineSet
EndChar

StartChar: asciitilde
Encoding: 94 126 99
Width: 544
Flags: W
HStem: 206.96 315.04 484.28 20G<408.127 448.876>
LayerCount: 2
Fore
SplineSet
342.321289062 421.168945312 m 5x80
 428.98046875 504.280273438 l 5x40
 543.66015625 389 l 5
 362.280273438 206.959960938 l 5
 197.33984375 307.791015625 l 5
 115.680664062 224.6796875 l 5
 1 339.959960938 l 5
 182.380859375 522 l 5
 342.321289062 421.168945312 l 5x80
EndSplineSet
EndChar

StartChar: numbersign
Encoding: 3 35 100
Width: 704
Flags: W
HStem: 168 152<248.364 648> 179 137<24 419.636> 420 152<288 680> 431 137<68 456>
LayerCount: 2
Fore
SplineSet
24 316 m 1x40
 652 320 l 1
 648 168 l 1x80
 20 179 l 1
 24 316 l 1x40
68 568 m 1x10
 684 572 l 1
 680 420 l 1x20
 64 431 l 1
 68 568 l 1x10
334 13 m 1
 477 744.0078125 l 1
 623 718.0078125 l 1
 490 -13 l 1
 334 13 l 1
74 13 m 1
 217 744.0078125 l 1
 363 718.0078125 l 1
 230 -13 l 1
 74 13 l 1
EndSplineSet
EndChar

StartChar: five.ss02
Encoding: 737 -1 101
Width: 581
Flags: W
HStem: -10.0664 174<103.48 311.019> 317.992 161.008<224.416 410.617> 550 181.008<239 369>
VStem: 340.917 219<190.952 292.134> 376 143.017<731.008 798.008>
LayerCount: 2
Fore
SplineSet
519.016601562 549.0078125 m 5xe8
 239 550 l 25
 224 461 l 17
 224 461 251.321428572 479 326 479 c 0
 495.23482387 479 559.916992188 386.635747331 559.916992188 246.9921875 c 0
 559.916992188 68.1744133844 445.97265625 -10.06640625 266.916992188 -10.06640625 c 0
 85.2246769868 -10.06640625 8 44.0849609375 8 44.0849609375 c 1
 50 207 l 1
 50 207 126.85984585 163.93359375 233.916992188 163.93359375 c 0
 305.791015625 163.93359375 340.916992188 195.456256431 340.916992188 244.9921875 c 0xf0
 340.916992188 289.603298611 303.700683594 317.9921875 230.916992188 317.9921875 c 0
 164.966339317 317.9921875 125.2578125 288.43359375 125.2578125 288.43359375 c 1
 19 382 l 1
 80 731.0078125 l 1
 369 731.0078125 l 5
 376 798.0078125 l 5
 519.016601562 800.0078125 l 5
 519.016601562 549.0078125 l 5xe8
EndSplineSet
Substitution2: "'dnom' Denominators lookup 0 subtable" five.ss02.dnom
Substitution2: "'numr' Numerators lookup 0 subtable" five.ss02.numr
Substitution2: "'numr' Numerators lookup 0 subtable" five.ss02.numr
Substitution2: "'subs' Subscript lookup 0 subtable" five.ss02.subscript
Substitution2: "'sinf' Scientific Inferiors lookup 0 subtable" five.ss02.inferior
Substitution2: "'sups' Superscript lookup 0 subtable" five.ss02.superior
EndChar

StartChar: yen
Encoding: 99 165 102
Width: 754
Flags: W
HStem: 0 21G<279.83 532.159> 99.7119 119<520.294 662> 107.712 110<162 450.563> 245.712 119<439.625 666> 253 103.712<166 629.09> 253.712 110<166 407> 508 21G<25.4528 150.151>
VStem: 283.623 245.111<0 250.155>
LayerCount: 2
Fore
SplineSet
162 217.711914062 m 1xa3
 403 216.711914062 l 1
 664 218.711914062 l 1
 662 99.7119140625 l 1xc3
 393 113 l 1
 160 107.711914062 l 1
 162 217.711914062 l 1xa3
166 363.711914062 m 5x87
 407 356.711914062 l 5x8b
 668 364.711914062 l 5
 666 245.711914062 l 1x93
 397 253 l 1x8b
 164 253.711914062 l 1
 166 363.711914062 l 5x87
EndSplineSet
Refer: 69 89 N 1 0 0 1 0 0 2
EndChar

StartChar: brokenbar
Encoding: 100 166 103
Width: 266
Flags: W
VStem: 32.3164 201.975<-170 239.44 355.92 788.992>
LayerCount: 2
Back
SplineSet
193.022460938 355.919921875 m 5
 63.7568359375 355.919921875 l 5
 36.169921875 788.9921875 l 5
 220.899414062 788.9921875 l 5
 193.022460938 355.919921875 l 5
194.291015625 239.440429688 m 5
 226.329101562 -170 l 5
 30 -170 l 5
 62.31640625 239.440429688 l 5
 194.291015625 239.440429688 l 5
EndSplineSet
Fore
SplineSet
233.022460938 355.919921875 m 5
 33.7568359375 355.919921875 l 1
 36.169921875 788.9921875 l 1
 230.899414062 788.9921875 l 5
 233.022460938 355.919921875 l 5
234.291015625 239.440429688 m 5
 236.329101562 -170 l 5
 30 -170 l 1
 32.31640625 239.440429688 l 1
 32.31640625 239.440429688 234.291015625 239.440429688 234.291015625 239.440429688 c 5
EndSplineSet
EndChar

StartChar: section
Encoding: 101 167 104
Width: 609
Flags: W
LayerCount: 2
Fore
SplineSet
69.890625 438.674804688 m 1
 119.677734375 358.076217315 202.94182757 329.322431183 326.131835938 288.893554688 c 0
 451.97265625 247.594726562 504.102539062 185.8046875 504.102539062 102.5 c 0
 504.102539062 -108.239257812 165.088867188 -114.163085938 165.088867188 -114.163085938 c 5
 146.552734375 61.9765625 l 5
 146.552734375 61.9765625 260.00390625 62.183502946 260.00390625 104.279296875 c 0
 260.00390625 118.89771371 252.321935348 135.094805019 198.58984375 155.873046875 c 0
 88.647460938 198.387852317 20 261.819186914 20 337.936523438 c 0
 20 393.939898947 69.890625 438.674804688 69.890625 438.674804688 c 1
539.46484375 232.325195312 m 1
 489.677734375 312.923782685 406.277861999 341.289296501 283.223632812 382.106445312 c 0
 157.215258678 423.903485466 105.252929688 485.1953125 105.252929688 568.5 c 0
 105.252929688 779.239257812 444.266601562 785.163085938 444.266601562 785.163085938 c 1
 462.802734375 609.0234375 l 1
 462.802734375 609.0234375 349.3515625 608.816497054 349.3515625 566.720703125 c 0
 349.3515625 552.10228629 357.19910555 536.328391665 410.765625 515.126953125 c 0
 520.708007812 471.612147683 589.35546875 409.180813086 589.35546875 333.063476562 c 0
 589.35546875 277.060101053 539.46484375 232.325195312 539.46484375 232.325195312 c 1
EndSplineSet
EndChar

StartChar: currency
Encoding: 98 164 105
Width: 465
Flags: W
VStem: 25.2803 165.989<318.72 396.518> 273.991 165.988<318.72 396.518>
LayerCount: 2
Fore
SplineSet
251.239257812 208.436523438 m 1
 379.889648438 251.325195312 l 1
 464.259765625 119.765625 l 1
 305.580078125 61.1455078125 l 1
 251.239257812 208.436523438 l 1
214.020507812 208.436523438 m 1
 159.6796875 61.1455078125 l 1
 1 119.765625 l 1
 85.3701171875 251.325195312 l 1
 214.020507812 208.436523438 l 1
251.239257812 502.74609375 m 5
 305.580078125 650.036132812 l 5
 464.259765625 591.416015625 l 5
 379.889648438 459.856445312 l 5
 251.239257812 502.74609375 l 5
214.020507812 502.74609375 m 5
 85.3701171875 459.856445312 l 5
 1 591.416015625 l 5
 159.6796875 650.036132812 l 5
 214.020507812 502.74609375 l 5
191.26953125 355.671875 m 0
 191.26953125 327.859493806 209.087270274 312.498046875 232.629882812 312.498046875 c 0
 256.174651319 312.498046875 273.991210938 327.859493806 273.991210938 355.671875 c 0
 273.991210938 384.766734307 256.174651319 401.688476562 232.629882812 401.688476562 c 0
 209.087270274 401.688476562 191.26953125 384.766734307 191.26953125 355.671875 c 0
25.2802734375 355.590820312 m 0
 25.2802734375 485.24609375 114.739257812 560.655273438 232.629882812 560.655273438 c 0
 350.520507812 560.655273438 439.979492188 485.24609375 439.979492188 355.590820312 c 0
 439.979492188 225.424804688 350.520507812 153.532226562 232.629882812 153.532226562 c 0
 114.739257812 153.532226562 25.2802734375 225.424804688 25.2802734375 355.590820312 c 0
EndSplineSet
EndChar

StartChar: dieresis
Encoding: 102 168 106
Width: 530
Flags: W
HStem: 519.008 220<69.35 210.65 319.35 460.65>
VStem: 30 220<558.358 699.658> 280 220<558.358 699.658>
LayerCount: 2
Fore
SplineSet
280 629.0078125 m 4
 280 696.23046875 322.77734375 739.0078125 390 739.0078125 c 4
 457.22265625 739.0078125 500 696.23046875 500 629.0078125 c 4
 500 561.78515625 457.22265625 519.0078125 390 519.0078125 c 4
 322.77734375 519.0078125 280 561.78515625 280 629.0078125 c 4
30 629.0078125 m 0
 30 696.23046875 72.77734375 739.0078125 140 739.0078125 c 4
 207.22265625 739.0078125 250 696.23046875 250 629.0078125 c 4
 250 561.78515625 207.22265625 519.0078125 140 519.0078125 c 4
 72.77734375 519.0078125 30 561.78515625 30 629.0078125 c 0
EndSplineSet
EndChar

StartChar: guillemotleft
Encoding: 105 171 107
Width: 632
Flags: W
HStem: 491 20G<213.112 259.982>
LayerCount: 2
Fore
SplineSet
525.720703125 269.5 m 1
 631.69921875 169 l 1
 511.69921875 50 l 1
 311 260 l 1
 511.69921875 479 l 1
 631.69921875 380 l 1
 525.720703125 269.5 l 1
225.720703125 261.5 m 1
 371.69921875 121 l 1
 231.69921875 2 l 1
 -9 252 l 1
 231.69921875 511 l 1
 371.69921875 412 l 1
 225.720703125 261.5 l 1
EndSplineSet
EndChar

StartChar: guillemotright
Encoding: 121 187 108
Width: 632
Flags: W
HStem: 491 20G<376.471 419.256>
LayerCount: 2
Fore
SplineSet
105.978515625 243.5 m 5
 0 344 l 1
 120 463 l 1
 320.69921875 253 l 1
 120 34 l 1
 0 133 l 1
 105.978515625 243.5 l 5
405.978515625 251.5 m 5
 260 392 l 1
 400 511 l 1
 640.69921875 261 l 1
 400 2 l 1
 260 101 l 1
 405.978515625 251.5 l 5
EndSplineSet
EndChar

StartChar: logicalnot
Encoding: 106 172 109
Width: 497
Flags: W
HStem: 238.966 188.034<14 296> 246 177<14 294.61>
VStem: 292 191<128.824 238.966>
LayerCount: 2
Fore
SplineSet
14 423 m 1x60
 480 427 l 1
 483 125 l 1
 292 128.82421875 l 1
 296 238.965820312 l 1xa0
 10 246 l 1
 14 423 l 1x60
EndSplineSet
EndChar

StartChar: macron
Encoding: 109 175 111
Width: 330
Flags: W
HStem: 589.008 142<121.273 316> 600.008 127<14 204.727>
VStem: 10 310
LayerCount: 2
Fore
SplineSet
14 727.0078125 m 1x60
 320 731.0078125 l 1
 316 589.0078125 l 5xa0
 10 600.0078125 l 5
 14 727.0078125 l 1x60
EndSplineSet
EndChar

StartChar: mu
Encoding: 115 181 112
Width: 653
Flags: W
HStem: -9.93164 159<247.933 336.146> 0 21G<353.271 639.799> 492.002 5G<42.8408 257.17 357.81 565.334>
VStem: 25 212<-114.316 498.01> 358 207.17<213.068 497.002>
LayerCount: 2
Fore
SplineSet
237 235.068359375 m 0x38
 237 4.92836574607 266 -167 266 -167 c 1
 52 -187 l 1
 52 -187 25 -6.66644428042 25 208.068359375 c 0
 25 357.54296875 42.8408203125 512.001953125 42.8408203125 512.001953125 c 1
 257.169921875 497.001953125 l 1
 257.169921875 497.001953125 237 353.235351562 237 235.068359375 c 0x38
266 -9.931640625 m 0xb8
 170.45323989 -9.931640625 128.894957983 122 117 213.068359375 c 1
 225 280.068359375 l 1
 222.161443495 191.781675434 248.788847871 149.068359375 286 149.068359375 c 4
 334.191492102 149.068359375 358.923076923 174.430682056 365 280.068359375 c 1
 415 213.068359375 l 1
 392.509433962 90 373.800563754 -9.931640625 266 -9.931640625 c 0xb8
353.270507812 0 m 1x78
 358 497.001953125 l 1
 565.169921875 497.001953125 l 1
 567.848632812 170.926757812 l 1
 643 172.930664062 l 1
 639.379882812 0 l 1
 353.270507812 0 l 1x78
EndSplineSet
EndChar

StartChar: acute
Encoding: 114 180 113
Width: 250
Flags: W
HStem: 503.72 236.784
VStem: 1 248.518
LayerCount: 2
Fore
SplineSet
137.840820312 740.50390625 m 25
 249.517578125 626.18359375 l 25
 80.4375 503.719726562 l 29
 1 589.465820312 l 29
 137.840820312 740.50390625 l 25
EndSplineSet
EndChar

StartChar: plusminus
Encoding: 111 177 114
Width: 450
Flags: W
HStem: 84 166<223 430> 96 151<21 258.333> 198.5 44.5<122.5 311.5> 313 184<21 256.667> 480 20G<223 431.799>
VStem: 18 412<96 243 318 493> 139.5 165<336.971 587.25>
LayerCount: 2
Fore
SplineSet
21 497 m 1x14
 223 493 l 1
 432 500 l 1x0c
 430 301 l 1
 222 318 l 1
 18 313 l 1
 21 497 l 1x14
312.5 609.5 m 5
 304.5 431.5 l 5
 311.5 198.5 l 5
 122.5 200.5 l 5
 139.5 432.5 l 5x22
 131.5 612.5 l 5
 312.5 609.5 l 5
21 247 m 1x44
 223 243 l 1x24
 432 250 l 1
 430 84 l 1x84
 18 96 l 1
 21 247 l 1x44
EndSplineSet
EndChar

StartChar: copyright
Encoding: 103 169 116
Width: 795
Flags: W
HStem: -10.0664 110.877<285.188 511.295> 139.745 140.4<371.494 519.031> 449.381 139.8<376.179 508.585> 630.64 108.294<285.188 511.295>
VStem: 20 118<250.113 480.794> 188.229 160.2<302.676 420.633> 664.117 110.883<250.113 476.147>
LayerCount: 2
Fore
SplineSet
188.229492188 362.9453125 m 0
 188.229492188 501.200345084 276.196139306 589.180664062 414.4296875 589.180664062 c 0
 519.234375589 589.180664062 563.779296875 543.489257812 563.779296875 543.489257812 c 1
 527.017578125 414.2421875 l 1
 527.017578125 414.2421875 491.874756663 449.380859375 437.229492188 449.380859375 c 0
 382.962612624 449.380859375 348.4296875 415.767519037 348.4296875 362.9453125 c 0
 348.4296875 312.34525217 377.052279949 280.145507812 433.029296875 280.145507812 c 0
 503.184616732 280.145507812 538.71875 315.204101562 538.71875 315.204101562 c 1
 572.916992188 177.174804688 l 1
 572.916992188 177.174804688 532.822264902 139.745117188 408.4296875 139.745117188 c 0
 273.862808506 139.745117188 188.229492188 226.544541099 188.229492188 362.9453125 c 0
20 361.93359375 m 0
 20 592.322641811 166.610951939 738.93359375 397 738.93359375 c 0
 628.000476926 738.93359375 775 592.322641811 775 361.93359375 c 0
 775 134.599173678 628.000476926 -10.06640625 397 -10.06640625 c 0
 166.610951939 -10.06640625 20 134.599173678 20 361.93359375 c 0
138 361.93359375 m 0
 138 202.358055182 239.110208333 100.810546875 398 100.810546875 c 4
 560.627599216 100.810546875 664.1171875 202.358055182 664.1171875 361.93359375 c 0
 664.1171875 526.144149006 560.627599216 630.639648438 398 630.639648438 c 0
 239.110208333 630.639648438 138 526.144149006 138 361.93359375 c 0
EndSplineSet
EndChar

StartChar: registered
Encoding: 108 174 117
Width: 795
Flags: W
HStem: -10.0664 110.877<285.188 511.295> 451.193 132.601<400.998 456.741> 451.193 48.7549<324.602 399.356> 630.64 108.294<285.188 511.295>
VStem: 20 118<250.113 480.794> 256.616 144.739<140.398 299.059 379.125 499.948> 462.904 140.4<371.537 443.872> 664.117 110.883<250.113 476.147>
LayerCount: 2
Fore
SplineSet
401.35546875 140.3984375 m 1xbf
 256.616210938 140.3984375 l 1
 260.318359375 499.948242188 l 1
 399.356445312 499.948242188 l 1
 401.35546875 140.3984375 l 1xbf
356.471679688 379.125 m 1
 356.471679688 379.125 371.376366891 366.55859375 418.104492188 366.55859375 c 0
 446.595812149 366.55859375 462.904296875 384.725097656 462.904296875 408.55859375 c 0
 462.904296875 434.905884051 444.846044078 451.193359375 405.75390625 451.193359375 c 0
 324.601509691 451.193359375 221.515625 409.254882812 221.515625 409.254882812 c 1
 196.75390625 543.302734375 l 1
 196.75390625 543.302734375 261.580704673 583.793945312 414.104492188 583.793945312 c 0xdf
 529.727031166 583.793945312 603.3046875 522.180057395 603.3046875 425.358398438 c 0
 603.3046875 357.068142811 568.538819583 325.839399622 544.434570312 311.3984375 c 0
 533.312115391 304.734925668 524.797851562 303.022460938 524.797851562 303.022460938 c 1
 605.016601562 255.3984375 l 1
 523.416015625 128.198242188 l 1
 327.108398438 299.05859375 l 1
 356.471679688 379.125 l 1
20 361.93359375 m 0
 20 592.322641811 166.610951939 738.93359375 397 738.93359375 c 0
 628.000476926 738.93359375 775 592.322641811 775 361.93359375 c 0
 775 134.599173678 628.000476926 -10.06640625 397 -10.06640625 c 0
 166.610951939 -10.06640625 20 134.599173678 20 361.93359375 c 0
138 361.93359375 m 0
 138 202.358055182 239.110208333 100.810546875 398 100.810546875 c 0
 560.627599216 100.810546875 664.1171875 202.358055182 664.1171875 361.93359375 c 0
 664.1171875 526.144149006 560.627599216 630.639648438 398 630.639648438 c 0
 239.110208333 630.639648438 138 526.144149006 138 361.93359375 c 0
EndSplineSet
EndChar

StartChar: degree
Encoding: 110 176 118
Width: 429
Flags: W
HStem: 358.113 145.303<181.582 247.698> 593.593 145.399<181.375 247.908>
VStem: 20 156.384<507.383 588.025> 253.184 156.416<507.383 588.025>
LayerCount: 2
Fore
SplineSet
176.383789062 549.416015625 m 0
 176.383789062 521.305350168 191.198183097 503.416015625 214.479492188 503.416015625 c 4
 238.132041811 503.416015625 253.18359375 521.305350168 253.18359375 549.416015625 c 0
 253.18359375 576.413232852 238.132041811 593.592773438 214.479492188 593.592773438 c 0
 191.198183097 593.592773438 176.383789062 576.413232852 176.383789062 549.416015625 c 0
20 549.512695312 m 0
 20 665.305664062 95.630859375 738.9921875 214.479492188 738.9921875 c 0
 333.719726562 738.9921875 409.599609375 665.305664062 409.599609375 549.512695312 c 0
 409.599609375 432.545898438 333.719726562 358.11328125 214.479492188 358.11328125 c 0
 95.630859375 358.11328125 20 432.545898438 20 549.512695312 c 0
EndSplineSet
EndChar

StartChar: AE
Encoding: 132 198 119
Width: 960
Flags: W
HStem: 0 201.293<689.064 946.539> 129 157<262 444.545> 278 172<667.455 894> 289 1<538 578> 523.08 207.928<169 447.991 686.104 938.729>
VStem: 542 144.104<290 446>
AnchorPoint: "Anchor-2" 538 0 basechar 0
AnchorPoint: "Anchor-2" 538 0 basechar 0
AnchorPoint: "Anchor-0" 536 731.008 basechar 0
LayerCount: 2
Fore
SplineSet
262 286 m 1x5c
 578 290 l 1
 574 118 l 1
 218 129 l 1
 262 286 l 1x5c
938.729492188 731.010742188 m 1
 944.61328125 524 l 1
 686.103515625 528 l 1
 689.017578125 201.48046875 l 1
 689.064453125 201.29296875 l 1
 950.159179688 202.930664062 l 1
 946.5390625 0 l 1
 443.4296875 0 l 1x8c
 448.151367188 530.083984375 l 1
 160 523.080078125 l 1
 169 731.0078125 l 1
 938.729492188 731.010742188 l 1
542 446 m 1
 898 450 l 1
 894 278 l 1x2c
 538 289 l 1x1c
 542 446 l 1
552 590 m 1
 197.819335938 -20 l 5
 -9.7265625 119 l 1
 403 663 l 1
 552 590 l 1
EndSplineSet
EndChar

StartChar: ae
Encoding: 164 230 120
Width: 880
Flags: W
HStem: -23.9004 165.801<642.562 771.819> -10.0664 126<207.475 314.484> 193 103<510 687> 226.934 110<206.108 316.697> 352.934 154<589.435 675.083> 501 20G<169.641 173>
VStem: 20 174<129.43 214.484> 329 133<129.231 189.267> 370 502.619<196.02 368.259>
AnchorPoint: "Anchor-0" 439 496.019 basechar 0
AnchorPoint: "Anchor-2" 440 0 basechar 0
LayerCount: 2
Fore
SplineSet
329 173.93359375 m 0x53
 329 204.600585938 302.944335938 226.93359375 262 226.93359375 c 0
 220.444335938 226.93359375 194 204.600585938 194 173.93359375 c 0
 194 138.989257812 220.444335938 115.93359375 262 115.93359375 c 0
 302.944335938 115.93359375 329 138.989257812 329 173.93359375 c 0x53
462 133.93359375 m 0
 462 86.7197265625 400.506009616 -10.06640625 238 -10.06640625 c 0
 104.777550331 -10.06640625 20 61.8776979608 20 174.93359375 c 4
 20 273.934317556 96.9992000499 336.93359375 218 336.93359375 c 0
 387.111528051 336.93359375 462 216.989257812 462 133.93359375 c 0
473.848632812 150.926757812 m 1
 332.270507812 151 l 1
 332.270507812 151 337 244.29296875 337 311 c 0
 337 376.921875 151 390 151 390 c 1
 173 521 l 1x06
 173 521 471.169921875 513.875646888 471.169921875 297.001953125 c 0
 471.169921875 241.854141501 473.848632812 150.926757812 473.848632812 150.926757812 c 1
EndSplineSet
Refer: 9 101 N 1 0 0 1 350 0 2
EndChar

StartChar: cedilla
Encoding: 118 184 121
Width: 227
Flags: W
HStem: -248 91<12 87.4528>
VStem: 6 201
LayerCount: 2
Fore
SplineSet
37 20 m 1
 140 17 l 1
 120 -49 l 1
 120 -49 207 -55.1298701299 207 -136 c 0
 207 -216.730463477 140.680203046 -242 12 -248 c 1
 6 -157 l 1
 66.2727272727 -156.659090909 91 -149.886719598 91 -132 c 4
 91 -116.508264463 72.8617407651 -109.915581669 19 -109 c 1
 13 -62 l 1
 37 20 l 1
EndSplineSet
EndChar

StartChar: paragraph
Encoding: 116 182 124
Width: 823
Flags: W
HStem: 718.992 20G<267.448 519.172>
VStem: 20 422.6<370.374 534.243> 225 217.6<-173.994 -12.6106> 243 199.6<79.6086 243.185> 510 216<-173.994 249.7> 510 204.261<112.862 536.557>
LayerCount: 2
Fore
SplineSet
803 714.984375 m 1xc0
 792 527.984375 l 1
 792 527.984375 743.155204179 535.9921875 714.260742188 536.556640625 c 1xc4
 726 -173.994140625 l 1
 510 -173.994140625 l 1x88
 510 540.9921875 l 1
 442.599609375 540.9921875 l 5x94
 442.599609375 -173.994140625 l 5
 225 -173.994140625 l 1xa0
 243 240.9921875 l 1x90
 112.36962441 253.871308694 20 324.077035731 20 485.9921875 c 0
 20 667.805875713 146.896484375 738.9921875 388 738.9921875 c 0
 650.344926883 738.9921875 803 714.984375 803 714.984375 c 1xc0
EndSplineSet
EndChar

StartChar: Eth
Encoding: 142 208 125
Width: 783
Flags: W
HStem: -10.0664 227<359.003 466.802> 275 152<178.545 456> 286 137<24 297.455> 509.992 89.2578<170.25 355.67> 509.992 229<363.106 459.579>
VStem: 123.94 231.729<218.847 599.25> 518.917 245<271.308 447.863>
AnchorPoint: "Anchor-0" 386 731.008 basechar 0
AnchorPoint: "Anchor-2" 399 0 basechar 0
AnchorPoint: "Anchor-2" 399 0 basechar 0
LayerCount: 2
Fore
SplineSet
24 423 m 5xa6
 460 427 l 1
 456 275 l 1xc6
 20 286 l 5
 24 423 l 5xa6
EndSplineSet
Refer: 57 68 N 1 0 0 1 0 0 2
EndChar

StartChar: eth
Encoding: 174 240 126
Width: 585
Flags: W
HStem: -10.0664 184.925<241.524 333.768> 322.009 184.925<167.222 317.635> 510.966 21G<178.882 225.201>
VStem: 20 204.375<191.851 306.486> 350.625 214.375<192.705 475.98>
AnchorPoint: "Anchor-0" 240 755.01 basechar 0
AnchorPoint: "Anchor-2" 287 0 basechar 0
LayerCount: 2
Fore
SplineSet
137.401367188 618.420898438 m 5
 310.440429688 692.025390625 l 5
 464.33984375 782.794921875 l 5
 521.955078125 661.89453125 l 5
 352.1171875 599.879882812 l 5
 188.368164062 510.965820312 l 5
 137.401367188 618.420898438 l 5
224.375 249.858398438 m 0
 224.375 204.02497944 248.738876298 174.858398438 287.025390625 174.858398438 c 0
 325.891983672 174.858398438 350.625 204.02497944 350.625 249.858398438 c 0
 350.625 293.95055869 325.891983672 322.008789062 287.025390625 322.008789062 c 0
 248.738876298 322.008789062 224.375 293.95055869 224.375 249.858398438 c 0
20 249.93359375 m 0
 20 406.989257812 102.444354937 506.93359375 232 506.93359375 c 0
 303.16785012 506.93359375 323.90234375 479.057617188 323.90234375 479.057617188 c 1
 282 620 122.021484375 678.267578125 122.021484375 678.267578125 c 1
 322.770507812 782.510742188 l 1
 322.770507812 782.510742188 565 639.959487241 565 312 c 0
 565 76.5609773511 456.889239644 -10.06640625 287 -10.06640625 c 0
 123.833220605 -10.06640625 20 91.0439453125 20 249.93359375 c 0
EndSplineSet
EndChar

StartChar: multiply
Encoding: 149 215 127
Width: 450
Flags: W
LayerCount: 2
Fore
SplineSet
303.034179688 568.0859375 m 1
 429 446.36328125 l 1
 297.42578125 335.126953125 l 5
 154.036132812 158.670898438 l 1
 23.12109375 286.7578125 l 1
 176.318359375 427.094726562 l 1
 303.034179688 568.0859375 l 1
149.086914062 568.0859375 m 1
 275.802734375 427.094726562 l 5
 429 286.7578125 l 1
 298.084960938 158.670898438 l 1
 154.6953125 335.126953125 l 1
 23.12109375 446.36328125 l 1
 149.086914062 568.0859375 l 1
EndSplineSet
EndChar

StartChar: divide
Encoding: 181 247 128
Width: 450
Flags: W
HStem: 98 170<153.733 296.267> 299 144<30 421> 471 170<153.733 296.267>
VStem: 125 200<126.855 239.145 499.855 612.145>
LayerCount: 2
Fore
SplineSet
125 556 m 0
 125 607.945103236 163.888888889 641 225 641 c 0
 286.111111111 641 325 607.945103236 325 556 c 0
 325 504.054896764 286.111111111 471 225 471 c 0
 163.888888889 471 125 504.054896764 125 556 c 0
29 443 m 1
 425 447 l 1
 421 295 l 1
 30 299 l 1
 29 443 l 1
125 183 m 4
 125 234.945103236 163.888888889 268 225 268 c 0
 286.111111111 268 325 234.945103236 325 183 c 4
 325 131.054896764 286.111111111 98 225 98 c 0
 163.888888889 98 125 131.054896764 125 183 c 4
EndSplineSet
EndChar

StartChar: Oslash
Encoding: 150 216 129
Width: 785
Flags: W
HStem: -10.0664 236.351<322.688 460.306> 502.583 236.351<322.688 460.306>
VStem: 20 249.487<280.153 445.681> 515.513 249.487<281.474 444.307>
AnchorPoint: "Anchor-0" 377 731.008 basechar 0
AnchorPoint: "Anchor-0" 377 731.008 basechar 0
AnchorPoint: "Anchor-2" 377 0 basechar 0
AnchorPoint: "Anchor-2" 377 0 basechar 0
LayerCount: 2
Fore
SplineSet
710.94921875 723.93359375 m 5
 432.330078125 346.799804688 l 5
 185.37890625 -84 l 5
 74.05078125 -14 l 5
 356.529296875 381.200195312 l 5
 606.220703125 796.93359375 l 5
 710.94921875 723.93359375 l 5
EndSplineSet
Refer: 43 79 N 1 0 0 1 0 0 2
EndChar

StartChar: oslash
Encoding: 182 248 130
Width: 565
Flags: W
HStem: -10.0664 184.925<236.938 327.524> 322.009 184.925<236.45 328.02>
VStem: 20 199.375<191.851 306.486> 345.625 199.375<191.851 306.486>
AnchorPoint: "Anchor-0" 277 496.019 basechar 0
AnchorPoint: "Anchor-2" 278 0 basechar 0
LayerCount: 2
Fore
SplineSet
503.0390625 510.638671875 m 5
 310.294921875 246.815429688 l 5
 137.185546875 -40.2802734375 l 5
 71.9609375 0.599609375 l 5
 267.09765625 265.624023438 l 5
 441.90625 553.37890625 l 5
 503.0390625 510.638671875 l 5
EndSplineSet
Refer: 3 111 N 1 0 0 1 0 0 2
EndChar

StartChar: Thorn
Encoding: 156 222 131
Width: 714
Flags: W
HStem: 0 21G<98.958 345.287> 114.934 189<345.01 454.581> 419.992 200<343.918 453.047> 711.011 20G<18.3913 340.006>
VStem: 98.958 246.329<0 159.434 334.877 388.428> 468.917 233<319.488 403.194>
LayerCount: 2
Fore
SplineSet
284.196289062 334.876953125 m 5
 284.196289062 334.876953125 314.500533876 303.93359375 392.916992188 303.93359375 c 4
 442.729676444 303.93359375 468.916992188 325.347240692 468.916992188 359.93359375 c 0
 468.916992188 400.148083846 443.050003175 419.9921875 385.916992188 419.9921875 c 0
 324.568311683 419.9921875 279.26953125 388.427734375 279.26953125 388.427734375 c 1
 248 575.840820312 l 1
 248 575.840820312 316.89574128 619.9921875 426.916992188 619.9921875 c 0
 596.572792658 619.9921875 701.916992188 523.502051577 701.916992188 354.93359375 c 0
 701.916992188 209.376953125 600.627894175 114.93359375 436.916992188 114.93359375 c 0
 323.528692805 114.93359375 255.2578125 159.43359375 255.2578125 159.43359375 c 1
 284.196289062 334.876953125 l 5
339.857421875 731.010742188 m 1
 345.287109375 0 l 1
 98.9580078125 0 l 1
 103.279296875 530.083984375 l 1
 15.1279296875 528.080078125 l 1
 18.748046875 731.010742188 l 1
 339.857421875 731.010742188 l 1
EndSplineSet
EndChar

StartChar: thorn
Encoding: 188 254 132
Width: 682
Flags: W
HStem: -10.0664 180<333.751 503.667> 326.934 180<334.211 503.667>
VStem: 83.8301 216.329<242.934 594.084> 217 83.1592<67.4988 410.507> 450 212<190.5 307.876>
LayerCount: 2
Fore
SplineSet
315 249.93359375 m 0xc8
 315 201.04453125 341.055304867 169.93359375 382 169.93359375 c 0
 423.555974787 169.93359375 450 201.04453125 450 249.93359375 c 0
 450 296.989579977 423.555974787 326.93359375 382 326.93359375 c 0
 341.055304867 326.93359375 315 296.989579977 315 249.93359375 c 0xc8
217 242.93359375 m 4xd8
 217 410.506546882 292.232292814 506.93359375 434 506.93359375 c 0
 573.333984375 506.93359375 662 406.989257812 662 249.93359375 c 0
 662 91.0439453125 573.333984375 -10.06640625 434 -10.06640625 c 0
 301.388473981 -10.06640625 217 67.49882185 217 242.93359375 c 4xd8
294.729492188 765.010742188 m 1
 300.159179688 -174 l 1xd8
 83.830078125 -174 l 1xe8
 88.1513671875 594.083984375 l 1
 10 592.080078125 l 1
 13.6201171875 765.010742188 l 1
 294.729492188 765.010742188 l 1
EndSplineSet
EndChar

StartChar: kgreenlandic
Encoding: 246 312 133
Width: 618
Flags: W
HStem: 0 21G<103.83 300.159> 346.084 150.927<13.6201 108.151> 494 20G<432.86 473.689>
VStem: 103.83 196.329<0 346.084>
AnchorPoint: "Anchor-2" 368 0 basechar 0
AnchorPoint: "Anchor-0" 354 497.019 basechar 0
LayerCount: 2
Fore
SplineSet
451 514 m 1xb0
 586 395 l 1
 436 255 l 1
 608 107 l 1
 461 -17 l 1
 217 256 l 1
 451 514 l 1xb0
294.729492188 497.010742188 m 1xd0
 300.159179688 0 l 1
 103.830078125 0 l 1
 108.151367188 346.083984375 l 1
 10 344.080078125 l 1
 13.6201171875 497.010742188 l 1
 294.729492188 497.010742188 l 1xd0
EndSplineSet
Validated: 5
EndChar

StartChar: Eng
Encoding: 264 330 134
Width: 830
Flags: W
HStem: 0 21G<123.83 340.159> 553.992 185<413.66 607.264> 558.08 172.931<13.6201 128.151>
VStem: 123.83 216.329<0 445.992> 566.872 219<65.869 507.346>
LayerCount: 2
Back
SplineSet
242.872070312 445.9921875 m 1xb8
 269.833984375 629.037109375 354.872070312 738.9921875 530.872070312 738.9921875 c 0
 688.88671875 738.9921875 785.872070312 652.708007812 785.872070312 430.9921875 c 0
 785.872070312 211.653320312 768.03125 -15 768.03125 -15 c 1
 546.702148438 0 l 1
 546.702148438 0 566.872070312 216.249023438 566.872070312 393.9921875 c 0
 566.872070312 495.55078125 538.45703125 553.9921875 457.872070312 553.9921875 c 0
 375.891601562 553.9921875 326.822265625 510.404296875 300.872070312 398.9921875 c 1
 242.872070312 445.9921875 l 1xb8
334.729492188 731.010742188 m 1
 340.159179688 0 l 1
 123.830078125 0 l 1
 128.151367188 560.083984375 l 1
 10 558.080078125 l 1
 13.6201171875 731.010742188 l 1
 334.729492188 731.010742188 l 1
EndSplineSet
Fore
SplineSet
242.872070312 445.9921875 m 1xd8
 269.833984375 629.037109375 354.872070312 738.9921875 530.872070312 738.9921875 c 4
 688.88671875 738.9921875 785.872070312 652.708007812 785.872070312 430.9921875 c 4
 785.872070312 274.59375 771.301757812 29.9814453125 771.301757812 29.9814453125 c 5
 626.142578125 -197.018554688 l 1
 428.142578125 -100.018554688 l 1
 551.97265625 69.9814453125 l 1
 551.97265625 69.9814453125 566.872070312 267.627929688 566.872070312 393.9921875 c 0
 566.872070312 495.55078125 538.45703125 553.9921875 457.872070312 553.9921875 c 0
 375.891601562 553.9921875 326.822265625 510.404296875 300.872070312 398.9921875 c 1
 242.872070312 445.9921875 l 1xd8
334.729492188 731.010742188 m 1xb8
 340.159179688 0 l 1
 123.830078125 0 l 1
 128.151367188 560.083984375 l 1
 10 558.080078125 l 1
 13.6201171875 731.010742188 l 1
 334.729492188 731.010742188 l 1xb8
EndSplineSet
Validated: 5
EndChar

StartChar: eng
Encoding: 265 331 135
Width: 653
Flags: W
HStem: 0 21G<103.83 300.159> 346.075 150.927<13.6201 108.151> 347.934 159<318.746 487.736>
VStem: 103.83 196.329<0 253.934> 436 192<16.0035 327.76>
LayerCount: 2
Back
SplineSet
188 253.93359375 m 5xb8
 210.000338808 411.989257812 279.388472577 506.93359375 423 506.93359375 c 4
 558.0703125 506.93359375 628 429.158131451 628 278.93359375 c 4
 628 134.376986611 610.159179688 -15 610.159179688 -15 c 5
 415.830078125 0 l 5
 415.830078125 0 436 138.277935542 436 251.93359375 c 4
 436 312.868913517 418.012695312 347.93359375 367 347.93359375 c 4
 307.390237894 347.93359375 282.693825662 311.094726562 266 216.93359375 c 5
 188 253.93359375 l 5xb8
EndSplineSet
Fore
SplineSet
436 251.93359375 m 0xb8
 436 312.868913517 418.012695312 347.93359375 367 347.93359375 c 4
 307.390237894 347.93359375 282.693825662 311.094726562 266 216.93359375 c 1
 188 253.93359375 l 1
 210.000338808 411.989257812 279.388472577 506.93359375 423 506.93359375 c 0
 558.0703125 506.93359375 628 429.158131451 628 278.93359375 c 0
 628 170.142989767 612.159179688 0 612.159179688 0 c 1
 495 -204 l 1
 313 -118 l 1
 417.830078125 18 l 1
 417.830078125 18 436 160.698425479 436 251.93359375 c 0xb8
294.729492188 497.001953125 m 1xd8
 300.159179688 0 l 1
 103.830078125 0 l 1
 108.151367188 346.075195312 l 1
 10 344.071289062 l 1
 13.6201171875 497.001953125 l 1
 294.729492188 497.001953125 l 1xd8
EndSplineSet
Validated: 5
EndChar

StartChar: OE
Encoding: 272 338 136
Width: 1125
Flags: W
HStem: -10.0664 236.351<322.688 460.306> 0 201.293<854.064 1111.54> 278 172<832.455 1059> 289 157<707 929.545> 502.583 236.351<322.688 460.306> 528 203.011<851.104 1103.73>
VStem: 20 249.487<280.153 445.681> 515.513 249.487<281.474 444.307> 703 151.018<289 446>
LayerCount: 2
Fore
SplineSet
707 446 m 1x1280
 1063 450 l 1
 1059 278 l 1x2280
 703 289 l 1
 707 446 l 1x1280
1103.72949219 731.010742188 m 1x4680
 1109.61328125 524 l 1
 851.103515625 528 l 5
 854.017578125 201.48046875 l 5
 854.064453125 201.29296875 l 5
 1115.15917969 202.930664062 l 1
 1111.5390625 0 l 1
 608.4296875 0 l 1
 613.151367188 731.010742188 l 1
 1103.72949219 731.010742188 l 1x4680
EndSplineSet
Refer: 43 79 N 1 0 0 1 0 0 2
EndChar

StartChar: longs
Encoding: 317 383 138
Width: 401
Flags: W
HStem: 0 21G<93.335 308.637> 326 171<12 187>
VStem: 74.8691 213.533<496.497 599.613> 93.335 215.302<0 331 399.965 476.558> 95.9941 94.0059<331 493>
AnchorPoint: "Anchor-2" 208 0 basechar 0
AnchorPoint: "Anchor-0" 254 765.01 basechar 0
LayerCount: 2
Fore
SplineSet
95.984375 412.096679688 m 2xd0
 95.9908695046 413.106851635 95.9940772295 414.107757517 95.9940772295 415.099589509 c 0xc8
 95.9940772295 495.588724833 74.869140625 516.320441961 74.869140625 580 c 0
 74.869140625 711.412976765 178.933523082 767.86158329 362.01953125 797.84375 c 1
 387.7265625 628.374023438 l 1
 315.458737611 616.168643108 288.40234375 595.276646113 288.40234375 556 c 0xe0
 288.40234375 514.735543854 303.871883933 476.557950382 304.637695312 399.96484375 c 2
 308.63671875 0 l 1
 93.3349609375 0 l 1
 95.984375 412.096679688 l 2xd0
187 331 m 5
 7 326 l 5
 12 497 l 1
 190 493 l 1
 187 331 l 5
EndSplineSet
EndChar

StartChar: uni018F
Encoding: 318 399 139
Width: 761
Flags: W
HStem: -9.99805 215<306.965 434.759> 283.566 162.587<275.162 612.81> 525.63 229.048<189.663 343.86>
VStem: 20 720.81<200.958 398.734>
LayerCount: 2
Back
SplineSet
20 361.93359375 m 0
 20 592.358449127 162.722067273 738.9921875 387 738.9921875 c 0
 692.703602516 738.9921875 740.809570312 528.036293548 740.809570312 395.250976562 c 0
 740.809570312 330.260178936 729.916992188 282.840820312 729.916992188 282.840820312 c 5
 148 284 l 5
 137 441 l 1
 505.647460938 445.427734375 l 1
 505.647460938 445.427734375 494.816386769 543.9921875 381 543.9921875 c 0
 300.33283944 543.9921875 249 476.30370791 249 369.93359375 c 0
 249 231.45533579 353.417075805 194.391339376 594.1484375 183.364257812 c 1
 571.146484375 -25.68359375 l 1
 248.292348682 -22.428262906 20 98.1280331654 20 361.93359375 c 0
EndSplineSet
Fore
SplineSet
740.809570312 357.060546875 m 0
 740.809570312 132.746806831 598.08750304 -9.998046875 373.809570312 -9.998046875 c 0
 68.1059677965 -9.998046875 20 200.957847077 20 333.743164062 c 0
 20 398.73396169 30.892578125 446.153320312 30.892578125 446.153320312 c 1
 612.809570312 444.994140625 l 1
 623.809570312 287.994140625 l 1
 275.162109375 283.56640625 l 1
 275.162109375 283.56640625 275.616998934 279.06031843 277.541992188 272 c 0
 283.009175624 251.947952597 303.334491422 205.001953125 373.809570312 205.001953125 c 0
 439.809974407 205.001953125 481.809570312 261.023933843 481.809570312 349.060546875 c 4
 481.809570312 480.116456609 386.468335317 515.193845941 166.661132812 525.629882812 c 1
 189.663085938 754.677734375 l 1
 512.51722163 751.338420391 740.809570312 627.671934681 740.809570312 357.060546875 c 0
EndSplineSet
EndChar

StartChar: ordfeminine
Encoding: 104 170 140
Width: 488
Flags: W
HStem: 252 114<50 451> 402 130<127.5 253.439> 410 113<428 479> 618 130<127.5 253.573>
VStem: 13 167<536.076 613.006> 276 150<599 741> 276 66<493 690>
LayerCount: 2
Fore
SplineSet
49 366 m 1x98
 455 370 l 1
 451 248 l 1
 50 252 l 1
 49 366 l 1x98
258 574 m 4
 258 600.888888889 243.586206897 618 220 618 c 4
 196 618 180 600.888888889 180 574 c 4
 180 548.153846154 196 532 220 532 c 4xd8
 243.586206897 532 258 548.153846154 258 574 c 4
342 599 m 0xda
 342 493 285 402 178 402 c 0
 77 402 13 469 13 574 c 0
 13 680 77 748 178 748 c 0
 278 748 342 690 342 599 c 0xda
273 410 m 1xbc
 276 741 l 1
 426 741 l 1
 428 523 l 1
 481 525 l 1
 479 410 l 1
 273 410 l 1xbc
EndSplineSet
EndChar

StartChar: ordmasculine
Encoding: 120 186 141
Width: 399
Flags: W
HStem: 252 114<20 375> 403 134<167.471 231.111> 614 134<167.471 231.111>
VStem: 13 151<541.516 610.816> 235 151<541.516 610.816>
LayerCount: 2
Fore
SplineSet
19 366 m 1
 379 370 l 1
 375 248 l 5
 20 252 l 5
 19 366 l 1
164 576 m 0
 164 552.12244898 178.142857143 537 200 537 c 0
 221.636363636 537 235 552.12244898 235 576 c 0
 235 598.958333333 221.636363636 614 200 614 c 0
 178.142857143 614 164 598.958333333 164 576 c 0
13 577 m 0
 13 682 85 748 199 748 c 0
 313 748 386 682 386 577 c 0
 386 471 313 403 199 403 c 0
 85 403 13 471 13 577 c 0
EndSplineSet
EndChar

StartChar: germandbls
Encoding: 157 223 142
Width: 688
Flags: W
HStem: 0 21G<93.335 288.637> 346 151<12 187> 620.374 154.47<295.949 415.464>
VStem: 83.8691 189.533<495.071 601.683> 93.335 195.302<0 351 399.965 471.157> 96.0016 90.9984<351 493> 443.509 193.491<475.058 593.329>
LayerCount: 2
Fore
SplineSet
190 493 m 1xe6
 187 351 l 1
 7 346 l 1
 12 497 l 1
 190 493 l 1xe6
95.984375 412.096679688 m 2
 95.9959086754 413.890657241 96.0015537459 415.65609147 96.0015537459 417.394009255 c 0xe6
 96.0015537459 493.127137489 83.869140625 513.271391285 83.869140625 574 c 0
 83.869140625 695.157825515 184.622253137 774.84375 362.01953125 774.84375 c 0
 527.334691649 774.84375 637 698.279980665 637 526.93359375 c 0
 637 443.441123355 611.232421875 379.700195312 611.232421875 379.700195312 c 1
 611.232421875 379.700195312 530.431640625 376 530.431640625 344 c 0
 530.431640625 331.900390625 537.382388187 323.3204705 577.732421875 303.299804688 c 0
 642.576171875 271.125976562 668.2890625 233.5 668.2890625 172 c 0
 668.2890625 -19.900390625 363.0390625 -23.900390625 363.0390625 -23.900390625 c 1
 341.569335938 111.900390625 l 1
 341.569335938 111.900390625 462.4375 117.099609375 462.4375 164 c 0
 462.4375 183.099609375 451.040579251 193.35623053 422.036132812 208.700195312 c 0
 347.750425897 247.998903291 320 278.099609375 320 335 c 0
 320 413.997836806 378.180596977 455.870611384 438.392578125 478.052734375 c 1
 438.392578125 478.052734375 443.508789062 496.000078927 443.508789062 525.416015625 c 0
 443.508789062 579.058451197 417.394432109 620.374023438 354 620.374023438 c 0
 294.917149093 620.374023438 273.40234375 585.894193802 273.40234375 545 c 0xf2
 273.40234375 506.644561465 283.925886059 471.156893728 284.637695312 399.96484375 c 2
 288.63671875 0 l 1
 93.3349609375 0 l 1xea
 95.984375 412.096679688 l 2
EndSplineSet
Validated: 5
EndChar

StartChar: florin
Encoding: 319 402 144
Width: 433
Flags: W
HStem: 326 171<12 224> 480 20G<190 412.57>
VStem: 74.8691 213.533<496.087 599.613> 95.9941 208.644<40 476.488>
LayerCount: 2
Fore
SplineSet
12 497 m 1x80
 190 493 l 1
 413 500 l 1x40
 409 314 l 1
 187 331 l 1
 7 326 l 1
 12 497 l 1x80
308.63671875 20 m 1
 201.477539062 -204 l 5
 9.4775390625 -118 l 1
 92.3076171875 40 l 1
 95.984375 412.096679688 l 2
 95.9940268621 413.125973228 95.994140625 414.120894614 95.994140625 415.099609375 c 0x10
 95.994140625 494.065459228 74.869140625 515.800022262 74.869140625 580 c 0
 74.869140625 711.412976765 178.933523082 767.86158329 362.01953125 797.84375 c 1
 387.7265625 628.374023438 l 1
 315.458737611 616.168643108 288.40234375 595.276646112 288.40234375 556 c 0x20
 288.40234375 514.735543853 303.87258163 476.48816976 304.637695312 399.96484375 c 2x10
 308.63671875 20 l 1
EndSplineSet
EndChar

StartChar: circumflex
Encoding: 427 710 145
Width: 332
Flags: W
HStem: 516 232
LayerCount: 2
Fore
SplineSet
164 748 m 25
 337 612 l 25
 229 516 l 25
 165 590 l 29
 99 522 l 25
 -5 606 l 25
 164 748 l 25
EndSplineSet
EndChar

StartChar: caron
Encoding: 428 711 146
Width: 332
Flags: W
HStem: 516 232
LayerCount: 2
Fore
SplineSet
168 516 m 25
 -5 652 l 25
 103 748 l 25
 167 674 l 29
 233 742 l 25
 337 658 l 25
 168 516 l 25
EndSplineSet
EndChar

StartChar: tilde
Encoding: 434 732 147
Width: 384
Flags: W
HStem: 503.187 244.475 517.141 21G<74.515 113.838> 713.706 20G<272.718 310.146>
LayerCount: 2
Fore
SplineSet
235.321289062 670.379882812 m 1x80
 289.98046875 733.706054688 l 1x20
 383.66015625 640.795898438 l 1
 246.280273438 503.186523438 l 1x80
 155.33984375 580.467773438 l 1
 94.6806640625 517.140625 l 1x40
 1 610.051757812 l 1
 143.380859375 747.661132812 l 1
 235.321289062 670.379882812 l 1x80
EndSplineSet
EndChar

StartChar: zero.superior
Encoding: 660 8304 148
Width: 449
HStem: 342 152<188.666 260.74> 691 152<189.147 260.252>
VStem: 13 157<510.98 672.801> 279 157<510.98 672.801>
LayerCount: 2
Fore
SplineSet
170 591 m 0
 170 532 191 494 224 494 c 4
 258 494 279 532 279 591 c 0
 279 652 258 691 224 691 c 0
 191 691 170 652 170 591 c 0
13 591 m 0
 13 745 96 843 225 843 c 0
 354 843 436 745 436 591 c 0
 436 439 354 342 225 342 c 0
 96 342 13 439 13 591 c 0
EndSplineSet
EndChar

StartChar: one.superior
Encoding: 119 185 149
Width: 252
HStem: 699 138<9 73>
VStem: 9 221<700 837> 70 164<350 700>
LayerCount: 2
Fore
SplineSet
230 837 m 5xc0
 234 350 l 5
 70 350 l 5xa0
 73 700 l 5
 7 699 l 1
 9 837 l 1
 230 837 l 5xc0
EndSplineSet
EndChar

StartChar: two.superior
Encoding: 112 178 150
Width: 396
HStem: 350 144<242 377> 698 145<79.7858 192.447>
VStem: 200 170<597.582 689.273>
LayerCount: 2
Fore
SplineSet
242 494 m 5
 383 498 l 1
 377 350 l 1
 20 350 l 1
 13 470 l 1
 13 470 200 550 200 643 c 0
 200 680 182 698 150 698 c 0
 92 698 58 658 58 658 c 1
 11 792 l 1
 11 792 74 843 181 843 c 0
 303 843 370 781 370 683 c 0
 370 553 242 494 242 494 c 5
EndSplineSet
EndChar

StartChar: three.superior
Encoding: 113 179 151
Width: 387
HStem: 343 136<34.4459 200.777> 486 20G<29.6716 34> 691 146<20 170>
VStem: 204 169<484.151 541.981>
LayerCount: 2
Fore
SplineSet
271 630 m 1
 271 630 278 628 289 625 c 0
 325 614 373 581 373 494 c 0
 373 395 297 343 178 343 c 0
 57 343 5 372 5 372 c 1
 34 506 l 1
 34 506 82 479 150 479 c 0
 189 479 204 492 204 514 c 0
 204 534 187 548 154 548 c 0
 121 548 104 542 104 542 c 1
 87 617 l 1
 170 695 l 5
 13 691 l 1
 20 837 l 1
 353 837 l 1
 359 718 l 1
 271 630 l 1
EndSplineSet
EndChar

StartChar: four.superior
Encoding: 661 8308 152
Width: 472
HStem: 449 134<188 453> 717 20G<238.793 390.207>
LayerCount: 2
Fore
SplineSet
390 737 m 1
 394 350 l 1
 235 350 l 1
 239 737 l 1
 390 737 l 1
199 852 m 1
 320 788 l 5
 188 583 l 1
 457 586 l 1
 453 444 l 1
 34 449 l 1
 9 553 l 1
 199 852 l 1
EndSplineSet
EndChar

StartChar: five.superior
Encoding: 662 8309 153
Width: 387
Flags: W
HStem: 343 136<48.7181 201.153> 488 20G<28.6589 33> 703 134<173 346>
VStem: 207 166<485.858 555.525>
LayerCount: 2
Fore
SplineSet
346 702 m 5
 173 703 l 5
 163 657 l 5
 163 657 177 669 217 669 c 4
 330 669 373 607 373 514 c 4
 373 395 297 343 178 343 c 4
 57 343 5 379 5 379 c 5
 33 508 l 5
 33 508 85 479 156 479 c 4
 190 479 207 495 207 520 c 4
 207 546 190 561 156 561 c 4
 120 561 99 542 99 542 c 5
 13 604 l 5
 53 837 l 5
 346 837 l 5
 346 702 l 5
EndSplineSet
EndChar

StartChar: six.superior
Encoding: 663 8310 154
Width: 412
HStem: 342 129<178.35 242.338> 546 114<181.033 300.5> 713 136<248.812 332.824>
VStem: 13 162<475.23 610.984> 246 153<474.709 543.649>
LayerCount: 2
Fore
SplineSet
332 849 m 1
 348 713 l 5
 200 698 181 646 181 646 c 1
 181 646 201 660 256 660 c 0
 345 660 399 599 399 506 c 0
 399 413 347 342 211 342 c 0
 93 342 13 406 13 560 c 0
 13 699 90 836 332 849 c 1
175 509 m 0
 175 486 189 471 211 471 c 0
 233 471 246 486 246 509 c 0
 246 532 233 546 211 546 c 0
 189 546 175 532 175 509 c 0
EndSplineSet
EndChar

StartChar: seven.superior
Encoding: 664 8311 155
Width: 385
LayerCount: 2
Fore
SplineSet
5 629 m 1
 25 837 l 1
 358 837 l 5
 392 725 l 5
 241 332 l 1
 80 375 l 1
 209 687 l 1
 151 686 l 1
 141 617 l 1
 5 629 l 1
EndSplineSet
EndChar

StartChar: eight.superior
Encoding: 665 8312 156
Width: 410
HStem: 342 130<164.158 234.904> 715 128<178.495 237.13>
VStem: 13 149<479.065 549.661> 238 159<474.857 534.015> 239 139<647.257 754.981>
LayerCount: 2
Fore
SplineSet
202 472 m 0xf0
 224 472 238 484 238 502 c 0xf0
 238 524 224 535 180 552 c 0
 80 590 31 632 31 707 c 0
 31 790 100 843 208 843 c 0
 312 843 378 796 378 712 c 0
 378 618 273 584 273 584 c 1
 184 627 l 1
 184 627 239 651 239 684 c 0xe8
 239 703 228 715 208 715 c 0
 190 715 178 705 178 689 c 0
 178 672 189 664 223 654 c 0
 351 616 397 569 397 493 c 0
 397 399 325 342 206 342 c 0
 90 342 13 398 13 481 c 0
 13 578 112 609 112 609 c 1
 204 561 l 1
 204 561 162 544 162 505 c 0
 162 485 178 472 202 472 c 0xf0
EndSplineSet
EndChar

StartChar: nine.superior
Encoding: 666 8313 157
Width: 412
HStem: 336 135<80.1704 164.145> 525 114<111.5 231.856> 714 129<170.241 234.225>
VStem: 13 153<642.594 711.517> 237 162<576.796 709.546>
LayerCount: 2
Fore
SplineSet
81 336 m 1
 65 471 l 5
 213 486 232 540 232 540 c 5
 232 540 211 525 156 525 c 0
 67 525 13 583 13 672 c 0
 13 769 66 843 202 843 c 0
 320 843 399 782 399 632 c 0
 399 490 323 350 81 336 c 1
237 676 m 0
 237 699 224 714 202 714 c 0
 180 714 166 699 166 676 c 0
 166 653 180 639 202 639 c 0
 224 639 237 653 237 676 c 0
EndSplineSet
EndChar

StartChar: zero.inferior
Encoding: 667 8320 158
Width: 449
HStem: -358 152<188.666 260.74> -9 152<189.147 260.252>
VStem: 13 157<-189.02 -27.1988> 279 157<-189.02 -27.1988>
LayerCount: 2
Fore
SplineSet
170 -109 m 0
 170 -168 191 -206 224 -206 c 4
 258 -206 279 -168 279 -109 c 0
 279 -48 258 -9 224 -9 c 0
 191 -9 170 -48 170 -109 c 0
13 -109 m 0
 13 45 96 143 225 143 c 0
 354 143 436 45 436 -109 c 0
 436 -261 354 -358 225 -358 c 0
 96 -358 13 -261 13 -109 c 0
EndSplineSet
EndChar

StartChar: one.inferior
Encoding: 668 8321 159
Width: 252
HStem: -1 138<9 73>
VStem: 9 221<0 137> 70 164<-350 0>
LayerCount: 2
Fore
SplineSet
230 137 m 5xc0
 234 -350 l 5
 70 -350 l 5xa0
 73 0 l 5
 7 -1 l 1
 9 137 l 1
 230 137 l 5xc0
EndSplineSet
EndChar

StartChar: two.inferior
Encoding: 669 8322 160
Width: 396
HStem: -350 144<242 377> -2 145<79.7858 192.447>
VStem: 200 170<-102.418 -10.7266>
LayerCount: 2
Fore
SplineSet
242 -206 m 5
 383 -202 l 1
 377 -350 l 1
 20 -350 l 1
 13 -230 l 1
 13 -230 200 -150 200 -57 c 0
 200 -20 182 -2 150 -2 c 0
 92 -2 58 -41 58 -41 c 1
 11 92 l 1
 11 92 74 143 181 143 c 0
 303 143 370 81 370 -17 c 0
 370 -147 242 -206 242 -206 c 5
EndSplineSet
EndChar

StartChar: three.inferior
Encoding: 670 8323 161
Width: 387
HStem: -357 136<34.4459 200.777> -9 146<20 170>
VStem: 204 169<-215.849 -157.849>
LayerCount: 2
Fore
SplineSet
271 -70 m 1
 271 -70 278 -71 289 -74 c 0
 325 -85 373 -119 373 -206 c 0
 373 -305 297 -357 178 -357 c 0
 57 -357 5 -328 5 -328 c 1
 34 -194 l 1
 34 -194 82 -221 150 -221 c 0
 189 -221 204 -208 204 -186 c 0
 204 -165 187 -152 154 -152 c 0
 121 -152 104 -158 104 -158 c 1
 87 -82 l 1
 170 -5 l 5
 13 -9 l 1
 20 137 l 1
 353 137 l 1
 359 18 l 1
 271 -70 l 1
EndSplineSet
EndChar

StartChar: four.inferior
Encoding: 671 8324 162
Width: 472
HStem: -251 134<188 453>
LayerCount: 2
Fore
SplineSet
390 39 m 1
 394 -350 l 1
 235 -350 l 1
 239 39 l 1
 390 39 l 1
199 156 m 1
 320 90 l 5
 188 -117 l 1
 457 -114 l 1
 453 -256 l 1
 34 -251 l 1
 9 -147 l 1
 199 156 l 1
EndSplineSet
EndChar

StartChar: five.inferior
Encoding: 672 8325 163
Width: 387
HStem: -357 136<48.7181 201.153> 3 134<173 346>
VStem: 207 166<-214.142 -144.112>
LayerCount: 2
Fore
SplineSet
346 2 m 1
 173 3 l 1
 163 -43 l 1
 163 -43 177 -31 217 -31 c 0
 330 -31 373 -93 373 -186 c 0
 373 -305 297 -357 178 -357 c 0
 57 -357 5 -321 5 -321 c 1
 33 -192 l 1
 33 -192 85 -221 156 -221 c 0
 190 -221 207 -205 207 -180 c 4
 207 -154 190 -138 156 -138 c 0
 120 -138 99 -158 99 -158 c 1
 13 -96 l 1
 53 137 l 1
 346 137 l 1
 346 2 l 1
EndSplineSet
EndChar

StartChar: six.inferior
Encoding: 673 8326 164
Width: 412
HStem: -358 129<178.35 242.338> -154 114<181.033 300.5> 14 135<248.812 332.83>
VStem: 13 162<-224.77 -89.0156> 246 153<-225.291 -156.351>
LayerCount: 2
Fore
SplineSet
332 149 m 1
 348 14 l 5
 200 -1 181 -55 181 -55 c 1
 181 -55 201 -40 256 -40 c 0
 345 -40 399 -101 399 -194 c 0
 399 -287 347 -358 211 -358 c 0
 93 -358 13 -294 13 -140 c 0
 13 -1 90 136 332 149 c 1
175 -191 m 0
 175 -214 189 -229 211 -229 c 0
 233 -229 246 -214 246 -191 c 0
 246 -168 233 -154 211 -154 c 0
 189 -154 175 -168 175 -191 c 0
EndSplineSet
EndChar

StartChar: seven.inferior
Encoding: 674 8327 165
Width: 385
LayerCount: 2
Fore
SplineSet
5 -68 m 1
 25 137 l 1
 358 137 l 5
 392 27 l 5
 241 -361 l 1
 80 -319 l 1
 209 -11 l 1
 151 -12 l 1
 141 -80 l 1
 5 -68 l 1
EndSplineSet
EndChar

StartChar: eight.inferior
Encoding: 675 8328 166
Width: 410
HStem: -358 130<164.158 234.904> 15 128<178.495 237.13>
VStem: 13 149<-220.935 -150.077> 238 159<-225.143 -165.985> 239 139<-52.7433 54.981>
LayerCount: 2
Fore
SplineSet
202 -228 m 0xf0
 224 -228 238 -216 238 -198 c 0xf0
 238 -176 224 -165 180 -148 c 0
 80 -110 31 -68 31 7 c 0
 31 90 100 143 208 143 c 0
 312 143 378 96 378 12 c 0
 378 -82 273 -116 273 -116 c 1
 184 -73 l 1
 184 -73 239 -49 239 -16 c 0xe8
 239 3 228 15 208 15 c 0
 190 15 178 5 178 -11 c 0
 178 -28 189 -36 223 -46 c 0
 351 -84 397 -131 397 -207 c 0
 397 -301 325 -358 206 -358 c 0
 90 -358 13 -302 13 -219 c 0
 13 -122 112 -91 112 -91 c 1
 204 -138 l 1
 204 -138 162 -156 162 -195 c 0
 162 -215 178 -228 202 -228 c 0xf0
EndSplineSet
EndChar

StartChar: nine.inferior
Encoding: 676 8329 167
Width: 412
HStem: -365 136<80.1765 164.145> -175 114<111.5 231.856> 14 129<170.241 234.225>
VStem: 13 153<-57.4062 11.5169> 237 162<-124.204 11.8258>
LayerCount: 2
Fore
SplineSet
81 -365 m 1
 65 -229 l 5
 213 -214 232 -160 232 -160 c 5
 232 -160 211 -175 156 -175 c 0
 67 -175 13 -117 13 -28 c 0
 13 69 66 143 202 143 c 0
 320 143 399 81 399 -69 c 0
 399 -211 323 -351 81 -365 c 1
237 -24 m 0
 237 -1 224 14 202 14 c 0
 180 14 166 -1 166 -24 c 0
 166 -47 180 -61 202 -61 c 0
 224 -61 237 -47 237 -24 c 0
EndSplineSet
EndChar

StartChar: fraction
Encoding: 655 8260 168
Width: 238
Flags: W
LayerCount: 2
Fore
SplineSet
432.329101562 666.93359375 m 5
 193.708984375 339.799804688 l 5
 -13.2412109375 -31 l 5
 -154.5703125 57 l 5
 87.908203125 388.200195312 l 5
 297.599609375 753.93359375 l 5
 432.329101562 666.93359375 l 5
EndSplineSet
EndChar

StartChar: perthousand
Encoding: 646 8240 169
Width: 1159
Flags: W
HStem: -10 128.558<626.449 711.656 906.674 994.272> 242.225 128.654<623.649 712.053 906.281 994.669> 358.113 128.558<170.95 257.364> 610.338 128.654<170.557 257.761>
VStem: 19.5205 139.304<497.566 597.934> 269.784 139.336<497.982 597.529> 479.521 133.304<129.452 229.82> 779.521 59.5996<64.4329 297.192> 1005.78 133.336<129.869 229.415>
LayerCount: 2
Fore
SplineSet
158.82421875 549.370117188 m 0xbf80
 158.82421875 511.054017468 180.287135827 486.670898438 214.015625 486.670898438 c 0
 248.096453661 486.670898438 269.784179688 511.054017468 269.784179688 549.370117188 c 0
 269.784179688 586.628380427 248.096453661 610.337890625 214.015625 610.337890625 c 0
 180.287135827 610.337890625 158.82421875 586.628380427 158.82421875 549.370117188 c 0xbf80
19.5205078125 549.512695312 m 0
 19.5205078125 665.306018314 95.1511135263 738.9921875 214 738.9921875 c 0
 333.240276768 738.9921875 409.120117188 665.306018314 409.120117188 549.512695312 c 0
 409.120117188 432.546187025 333.240276768 358.11328125 214 358.11328125 c 0
 95.1511135263 358.11328125 19.5205078125 432.546187025 19.5205078125 549.512695312 c 0
894.82421875 181.256835938 m 4
 894.82421875 142.94125414 916.286671796 118.557617188 950.015625 118.557617188 c 4
 984.096470543 118.557617188 1005.78417969 142.94125414 1005.78417969 181.256835938 c 4
 1005.78417969 218.515347083 984.096470543 242.224609375 950.015625 242.224609375 c 4xdf80
 916.286671796 242.224609375 894.82421875 218.515347083 894.82421875 181.256835938 c 4
779.520507812 181.399414062 m 0
 779.520507812 297.192382812 847.373594989 370.87890625 954 370.87890625 c 0
 1067.12911492 370.87890625 1139.12011719 297.192382812 1139.12011719 181.399414062 c 0
 1139.12011719 64.4326171875 1067.12911492 -10 954 -10 c 0
 847.373594989 -10 779.520507812 64.4326171875 779.520507812 181.399414062 c 0
612.82421875 181.256835938 m 0
 612.82421875 142.940736218 634.287135827 118.557617188 668.015625 118.557617188 c 0
 702.096453661 118.557617188 723.784179688 142.940736218 723.784179688 181.256835938 c 0
 723.784179688 218.515099177 702.096453661 242.224609375 668.015625 242.224609375 c 0
 634.287135827 242.224609375 612.82421875 218.515099177 612.82421875 181.256835938 c 0
479.520507812 181.399414062 m 0
 479.520507812 297.192737064 551.26224047 370.87890625 664 370.87890625 c 0
 771.018033517 370.87890625 839.120117188 297.192737064 839.120117188 181.399414062 c 0
 839.120117188 64.4329057751 771.018033517 -10 664 -10 c 0
 551.26224047 -10 479.520507812 64.4329057749 479.520507812 181.399414062 c 0
EndSplineSet
Refer: 168 8260 N 1 0 0 1 304 0 2
EndChar

StartChar: uni2031
Encoding: 647 8241 170
Width: 1439
Flags: W
HStem: -10 128.558<626.949 712.156 900.888 987.434 1176.84 1261.43> 242.225 128.654<626.556 712.553 900.496 987.83 1176.45 1261.82> 358.113 128.558<170.95 257.364> 610.338 128.654<170.557 257.761>
VStem: 19.5205 139.304<497.566 597.934> 269.784 139.336<497.982 597.529> 479.521 134.304<129.452 229.82> 769.521 69.5996<64.4329 297.192> 1059.52 59.5996<64.4326 297.192> 1274.78 144.336<129.869 229.415>
LayerCount: 2
Fore
SplineSet
158.82421875 549.370117188 m 0xbfc0
 158.82421875 511.054017468 180.287135827 486.670898438 214.015625 486.670898438 c 0
 248.096453661 486.670898438 269.784179688 511.054017468 269.784179688 549.370117188 c 0
 269.784179688 586.628380427 248.096453661 610.337890625 214.015625 610.337890625 c 0
 180.287135827 610.337890625 158.82421875 586.628380427 158.82421875 549.370117188 c 0xbfc0
19.5205078125 549.512695312 m 0
 19.5205078125 665.306018314 95.1511135263 738.9921875 214 738.9921875 c 0
 333.240276768 738.9921875 409.120117188 665.306018314 409.120117188 549.512695312 c 0
 409.120117188 432.546187025 333.240276768 358.11328125 214 358.11328125 c 0
 95.1511135263 358.11328125 19.5205078125 432.546187025 19.5205078125 549.512695312 c 0
1163.82421875 181.256835938 m 4
 1163.82421875 142.94125414 1185.2866718 118.557617188 1219.015625 118.557617188 c 4
 1253.09647055 118.557617188 1274.78417969 142.94125414 1274.78417969 181.256835938 c 4
 1274.78417969 218.515347083 1253.09647055 242.224609375 1219.015625 242.224609375 c 4xdfc0
 1185.2866718 242.224609375 1163.82421875 218.515347083 1163.82421875 181.256835938 c 4
1059.52050781 181.399414062 m 0
 1059.52050781 297.192382812 1127.37359499 370.87890625 1234 370.87890625 c 0
 1347.12911492 370.87890625 1419.12011719 297.192382812 1419.12011719 181.399414062 c 0
 1419.12011719 64.4326171875 1347.12911492 -10 1234 -10 c 0
 1127.37359499 -10 1059.52050781 64.4326171875 1059.52050781 181.399414062 c 0
888.82421875 181.256835938 m 0
 888.82421875 142.94125414 910.286671796 118.557617188 944.015625 118.557617188 c 0
 978.096470543 118.557617188 999.784179688 142.94125414 999.784179688 181.256835938 c 0
 999.784179688 218.515347083 978.096470543 242.224609375 944.015625 242.224609375 c 0
 910.286671796 242.224609375 888.82421875 218.515347083 888.82421875 181.256835938 c 0
769.520507812 181.399414062 m 0
 769.520507812 297.192382812 837.373594989 370.87890625 944 370.87890625 c 0
 1051.01799547 370.87890625 1119.12011719 297.192382812 1119.12011719 181.399414062 c 0
 1119.12011719 64.4326171875 1051.01799547 -10 944 -10 c 0
 837.373594989 -10 769.520507812 64.4326171875 769.520507812 181.399414062 c 0
613.82421875 181.256835938 m 0
 613.82421875 142.940736218 635.287135827 118.557617188 669.015625 118.557617188 c 0
 703.096453661 118.557617188 724.784179688 142.940736218 724.784179688 181.256835938 c 0
 724.784179688 218.515099177 703.096453661 242.224609375 669.015625 242.224609375 c 0
 635.287135827 242.224609375 613.82421875 218.515099177 613.82421875 181.256835938 c 0
479.520507812 181.399414062 m 0
 479.520507812 297.192737064 551.26224047 370.87890625 664 370.87890625 c 0
 771.018033517 370.87890625 839.120117188 297.192737064 839.120117188 181.399414062 c 0
 839.120117188 64.4329057751 771.018033517 -10 664 -10 c 0
 551.26224047 -10 479.520507812 64.4329057749 479.520507812 181.399414062 c 0
EndSplineSet
Refer: 168 8260 N 1 0 0 1 304 0 2
EndChar

StartChar: Lslash
Encoding: 255 321 171
Width: 620
Flags: W
HStem: 0 201.293<359.064 606.539> 495 20G<405.247 448.714> 711.011 20G<13.2633 354.729>
VStem: 113.43 245.635<201.293 530.084>
LayerCount: 2
Fore
SplineSet
443 515 m 13
 477 396 l 21
 259 320.293945312 l 1
 49 207 l 9
 11 329 l 17
 233 403.75 l 1
 443 515 l 13
EndSplineSet
Refer: 44 76 N 1 0 0 1 0 0 2
EndChar

StartChar: lslash
Encoding: 256 322 172
Width: 407
Flags: W
HStem: 0 21G<93.8301 393.958> 735.002 20G<13.2014 304.88>
VStem: 93.8301 215.299<171.397 584.075>
LayerCount: 2
Fore
SplineSet
363 555 m 13
 397 436 l 21
 219 360.293945312 l 1
 49 257 l 9
 11 379 l 17
 193 443.75 l 1
 363 555 l 13
EndSplineSet
Refer: 8 108 N 1 0 0 1 0 0 2
EndChar

StartChar: quoteright
Encoding: 635 8217 173
Width: 229
Flags: W
HStem: 445 320
VStem: 1 227
LayerCount: 2
Fore
SplineSet
1 723 m 9
 189 765 l 1
 228 626 l 1
 130 445 l 1
 12 487 l 21
 69 596 l 1
 1 723 l 9
EndSplineSet
Validated: 1
EndChar

StartChar: uni2120
Encoding: 702 8480 179
Width: 540
Flags: W
HStem: 518 21G<361.055 383.861>
VStem: 8.00098 96.9072<651.153 689.211> 90.0488 96.8857<546.92 591.269>
LayerCount: 2
Fore
SplineSet
150.276367188 765.357421875 m 1xc0
 150.276367188 765.357421875 8.0009765625 762.795898438 8.0009765625 671.666015625 c 0xc0
 8.0009765625 635.641601562 23 614 69.361328125 591.0625 c 0
 85.667126102 582.995124534 90.048828125 576.771484375 90.048828125 568.400390625 c 0
 90.048828125 539.849609375 18.888671875 536.673828125 18.888671875 536.673828125 c 1
 29.77734375 462.049804688 l 1
 29.77734375 462.049804688 186.934570312 464.396484375 186.934570312 570.418945312 c 0xa0
 186.934570312 604.958007812 174.68359375 627.94140625 140.114257812 644.260742188 c 0
 110.004882812 658.475585938 104.908203125 664.848632812 104.908203125 672.774414062 c 0
 104.908203125 693.403320312 162.6171875 697.837890625 162.6171875 697.837890625 c 1
 150.276367188 765.357421875 l 1xc0
237.327148438 688.084960938 m 1
 191 685.631835938 l 1
 189.248046875 762.404296875 l 1
 334.091796875 766.404296875 l 1
 375 664.799804688 l 5
 426.599609375 766 l 5
 512.200195312 762.400390625 l 5
 535.799804688 472 l 5
 447 466.400390625 l 5
 435.400390625 626.400390625 l 5
 372.200195312 518 l 5
 313.799804688 622.799804688 l 1
 300.200195312 467.599609375 l 1
 219.799804688 473.599609375 l 1
 237.327148438 688.084960938 l 1
EndSplineSet
EndChar

StartChar: trademark
Encoding: 703 8482 180
Width: 608
Flags: W
HStem: 518 21G<428.255 451.061> 693.2 12.833<74.4609 157.642> 693.232 69.1719<5.44824 74.4609 157.642 227.492>
VStem: 72.7324 86.5312<470 705.2>
LayerCount: 2
Fore
SplineSet
157.641601562 705.200195312 m 1xd0
 159.263671875 470 l 1
 72.732421875 470 l 1
 74.4609375 706.033203125 l 1
 157.641601562 705.200195312 l 1xd0
116.841796875 693.200195312 m 1
 4 693.232421875 l 1
 5.4482421875 762.404296875 l 1
 227.4921875 762.404296875 l 1xb0
 229.845703125 691.599609375 l 1
 116.841796875 693.200195312 l 1
304.52734375 688.084960938 m 1
 258.200195312 685.631835938 l 1
 256.448242188 762.404296875 l 1
 401.291992188 766.404296875 l 1
 442.200195312 664.799804688 l 5
 493.799804688 766 l 5
 579.400390625 762.400390625 l 5
 603 472 l 5
 514.200195312 466.400390625 l 5
 502.599609375 626.400390625 l 5
 439.400390625 518 l 5
 381 622.799804688 l 1
 367.400390625 467.599609375 l 1
 287 473.599609375 l 1
 304.52734375 688.084960938 l 1
EndSplineSet
EndChar

StartChar: uni2117
Encoding: 701 8471 181
Width: 795
Flags: W
HStem: -10.0664 100.877<283.004 518.138> 248.358 105<391.657 478.964> 466.193 117.6<391.098 479.182> 466.193 33.7549<311.555 389.957> 640.64 98.2939<286.076 514.996>
VStem: 20 108<243.344 482.978> 268.919 121.038<140.398 275.059 371.924 499.948> 490.305 125.4<364.278 453.008> 674.117 100.883<243.344 482.978>
LayerCount: 2
Fore
SplineSet
391.956054688 140.3984375 m 5xdf80
 265.216796875 140.3984375 l 5
 268.918945312 499.948242188 l 5
 389.95703125 499.948242188 l 5
 391.956054688 140.3984375 l 5xdf80
365.072265625 371.923828125 m 5
 365.072265625 371.923828125 382.251476068 353.358398438 426.705078125 353.358398438 c 4
 468.39017366 353.358398438 490.3046875 374.924775946 490.3046875 409.7578125 c 4
 490.3046875 447.546355308 467.304943681 466.193359375 416.504882812 466.193359375 c 4
 311.554584177 466.193359375 218.116210938 423.254882812 218.116210938 423.254882812 c 5
 193.354492188 539.302734375 l 5
 193.354492188 539.302734375 262.95343682 583.79296875 426.705078125 583.79296875 c 4xef80
 543.304882812 583.79296875 615.705078125 519.346289063 615.705078125 406.7578125 c 4
 615.705078125 310.69078505 552.638281249 248.358398438 450.705078125 248.358398438 c 4
 386.416821768 248.358398438 347.708984375 275.05859375 347.708984375 275.05859375 c 5
 365.072265625 371.923828125 l 5
20 361.93359375 m 0
 20 592.322641811 166.610951939 738.93359375 397 738.93359375 c 0
 628.000476926 738.93359375 775 592.322641811 775 361.93359375 c 0
 775 134.599173678 628.000476926 -10.06640625 397 -10.06640625 c 0
 166.610951939 -10.06640625 20 134.599173678 20 361.93359375 c 0
128 361.93359375 m 0
 128 196.246930926 232.9990625 90.810546875 398 90.810546875 c 0
 566.738726451 90.810546875 674.1171875 196.246930926 674.1171875 361.93359375 c 0
 674.1171875 532.255308483 566.738726451 640.639648438 398 640.639648438 c 0
 232.9990625 640.639648438 128 532.255308483 128 361.93359375 c 0
EndSplineSet
EndChar

StartChar: lira
Encoding: 679 8356 182
Width: 576
Flags: W
HStem: 0 171.293<259.064 556.539> 218 109<254.044 428> 226 100<14 351.33> 358 109<269.935 438> 366 100<24 374.22>
LayerCount: 2
Back
SplineSet
14 326 m 1
 430 327 l 1
 428 218 l 1
 12 226 l 1
 14 326 l 1
24 466 m 1
 440 467 l 1
 438 358 l 1
 22 366 l 1
 24 466 l 1
EndSplineSet
Fore
SplineSet
14 326 m 1xa0
 208 320.466796875 l 1
 430 327 l 1
 428 218 l 1xc0
 190 227.577148438 l 1
 12 226 l 1
 14 326 l 1xa0
24 466 m 5x88
 225 461 l 5
 440 467 l 5
 438 358 l 5x90
 215 367.288085938 l 5
 22 366 l 5
 24 466 l 5x88
259.064453125 171.29296875 m 1
 560.159179688 172.930664062 l 1
 556.5390625 0 l 1
 23.4296875 0 l 1
 44.9454523104 452.125433501 138.308892123 623.005046291 431.930664062 747.6640625 c 1
 528.798828125 596.354492188 l 1
 358.057748787 525.209540867 278.173342051 399.323518271 259.064453125 171.29296875 c 1
EndSplineSet
Validated: 5
EndChar

StartChar: Euro
Encoding: 684 8364 183
Width: 541
Flags: W
HStem: 246 100<12 252.122> 378 109<369.91 462.978>
LayerCount: 2
Fore
SplineSet
12 346 m 1
 238 339.5078125 l 1
 456.83984375 347 l 1
 436.7734375 238 l 1
 232 252.213867188 l 5
 10 246 l 1
 12 346 l 1
15 486 m 1
 248 472.45703125 l 1
 483.043945312 487 l 1
 462.977539062 378 l 1
 240 387.963867188 l 1
 13 386 l 1
 15 486 l 1
488 -33.06640625 m 1
 220.944259941 -11.8298471102 51 120.543550932 51 361.93359375 c 0
 51 598.46956446 224.833144608 728.46176596 498 748.9921875 c 1
 522 553.9921875 l 1
 372.276861082 531.667398071 277 479.303808586 277 361.93359375 c 0
 277 240.322050781 357.522558594 186.909497364 515 162.93359375 c 1
 488 -33.06640625 l 1
EndSplineSet
Validated: 5
EndChar

StartChar: uni20B5
Encoding: 691 8373 184
Width: 461
Flags: W
HStem: 0 21G<225.82 362.82> 91.9014 123.099<242.82 343.82> 524 95.457<240.82 341.82> 719 20G<221.82 358.82>
VStem: 20 203.22<291.265 424.607>
LayerCount: 2
Fore
SplineSet
362.8203125 0 m 1
 225.8203125 0 l 1
 242.8203125 215 l 1
 343.8203125 215 l 1
 362.8203125 0 l 1
221.8203125 739 m 1
 358.8203125 739 l 1
 341.8203125 524 l 1
 240.8203125 524 l 1
 221.8203125 739 l 1
20 357.576171875 m 0
 20 517.614257812 126.452148438 619.45703125 293.735351562 619.45703125 c 0
 406.329101562 619.45703125 454.184570312 569.0703125 454.184570312 569.0703125 c 1
 405.112304688 429.358398438 l 1
 405.112304688 429.358398438 371.970703125 458.0390625 320.436523438 458.0390625 c 0
 261.025390625 458.0390625 223.219726562 421.354492188 223.219726562 363.708007812 c 0
 223.219726562 297.145507812 257.775390625 254.787109375 325.35546875 254.787109375 c 0
 400.325195312 254.787109375 438.297851562 286.900390625 438.297851562 286.900390625 c 1
 471.774414062 132.869140625 l 1
 471.774414062 132.869140625 428.375976562 91.9013671875 293.735351562 91.9013671875 c 0
 126.452148438 91.9013671875 20 195.21875 20 357.576171875 c 0
EndSplineSet
Validated: 5
EndChar

StartChar: uni20B2
Encoding: 688 8370 185
Width: 542
Flags: W
HStem: 0 21G<225.82 362.82> 91.9014 123.099<242.82 343.82> 248.989 122.445<469.916 530.564> 524 95.457<240.82 341.82> 719 20G<221.82 358.82>
VStem: 20 203.22<284.251 424.607> 328.557 203.564<256.849 371.435> 343.82 126.096<135.789 215>
LayerCount: 2
Fore
SplineSet
221.8203125 739 m 5xfc
 358.8203125 739 l 5
 341.8203125 524 l 5
 240.8203125 524 l 5
 221.8203125 739 l 5xfc
362.8203125 0 m 5
 225.8203125 0 l 5
 242.8203125 215 l 5
 343.8203125 215 l 5xfd
 362.8203125 0 l 5
20 357.576171875 m 4
 20 517.614257812 126.452148438 619.45703125 293.735351562 619.45703125 c 4
 406.329101562 619.45703125 454.184570312 569.0703125 454.184570312 569.0703125 c 5
 405.112304688 429.358398438 l 5
 405.112304688 429.358398438 371.970703125 458.0390625 320.436523438 458.0390625 c 4
 261.025390625 458.0390625 223.219726562 421.354492188 223.219726562 363.708007812 c 4
 223.219726562 297.145507812 251.008789062 254.787109375 305.35546875 254.787109375 c 4
 321 254.787109375 328.556640625 256.848632812 328.556640625 256.848632812 c 5
 329.6875 371.434570312 l 5
 530.564453125 371.434570312 l 5
 532.12109375 248.02734375 l 5xfe
 469.916015625 248.989257812 l 5
 471.774414062 132.869140625 l 5
 471.774414062 132.869140625 428.375976562 91.9013671875 293.735351562 91.9013671875 c 4
 126.452148438 91.9013671875 20 195.21875 20 357.576171875 c 4
EndSplineSet
EndChar

StartChar: uni20AD
Encoding: 685 8365 186
Width: 707
Flags: W
HStem: 0 21G<123.83 340.159> 302 124<24 233.668> 312.186 104.282<118.332 460.102> 560.084 170.927<13.6201 128.151>
VStem: 123.83 216.329<0 312.186 416.467 560.084>
LayerCount: 2
Fore
SplineSet
24 426 m 5xd8
 326 416.46749226 l 5
 670 427 l 5
 668 294 l 5
 330 312.185758514 l 5xb8
 22 302 l 5
 24 426 l 5xd8
334.729492188 731.010742188 m 1
 340.159179688 0 l 1
 123.830078125 0 l 1
 128.151367188 560.083984375 l 1
 10 558.080078125 l 1
 13.6201171875 731.010742188 l 1
 334.729492188 731.010742188 l 1
478 745.0078125 m 1
 672 641.0078125 l 1
 466 364 l 1
 697 88 l 1
 493 -27 l 1
 264 364 l 1
 478 745.0078125 l 1
EndSplineSet
Validated: 5
EndChar

StartChar: uni20AE
Encoding: 686 8366 187
Width: 550
Flags: W
HStem: 0 21G<161.83 378.159> 482.5 20G<410.224 469.302> 558 30<166.151 374.104> 558.08 172.931<13.6201 166.151 374.104 528.729>
VStem: 161.83 216.329<0 262.835 334.912 588>
LayerCount: 2
Fore
SplineSet
53.3798828125 202.71484375 m 5xc8
 268.721679688 262.834960938 l 5
 477.76953125 341.35546875 l 5
 512.74609375 221.365234375 l 5
 292.53515625 173.768554688 l 5
 83.9306640625 97.056640625 l 5
 53.3798828125 202.71484375 l 5xc8
39.08203125 363.859375 m 5
 254.423828125 423.98046875 l 5
 463.471679688 502.5 l 5
 498.448242188 382.509765625 l 5
 278.237304688 334.912109375 l 5
 69.6328125 258.200195312 l 5
 39.08203125 363.859375 l 5
374.103515625 588 m 1xe8
 378.159179688 0 l 1
 161.830078125 0 l 1
 166.151367188 590.083984375 l 1
 374.103515625 588 l 1xe8
272.103515625 558 m 1
 10 558.080078125 l 1
 13.6201171875 731.010742188 l 1xd8
 528.729492188 731.010742188 l 1
 534.61328125 554 l 1
 272.103515625 558 l 1
EndSplineSet
Validated: 5
EndChar

StartChar: uni20B1
Encoding: 687 8369 188
Width: 722
Flags: W
HStem: 0 21G<87.7705 299.003> 169.934 175<300.341 403.666> 286 100<12 214.906> 296 94.4668<464 653.712> 380.467 36.8213<178 243> 390.467 36.8213<575 676.743> 426 100<474 671.389> 511 31.9922<107.075 266> 542.992 196<8.50073 394.495> 542.992 56.2578<118.508 295.67>
VStem: 87.7705 211.232<0 194.434 287.577 365.877 380.467 417.288 511 599.25> 472 162.917<426 526>
LayerCount: 2
Fore
SplineSet
464 396 m 1x9030
 568 390.466796875 l 1
 705 397 l 1
 703 288 l 1
 550 297.577148438 l 1
 462 296 l 1
 464 396 l 1x9030
474 526 m 1x8230
 585 521 l 1
 712 527 l 1
 710 418 l 1
 575 427.288085938 l 1x8430
 472 426 l 1
 474 526 l 1x8230
12 386 m 5xa030
 178 380.466796875 l 1x8830
 243 387 l 1
 241 278 l 1
 160 287.577148438 l 1
 10 286 l 5
 12 386 l 5xa030
14 516 m 5
 195 511 l 1x8930
 266 517 l 1
 264 408 l 1
 185 417.288085938 l 1
 12 416 l 5
 14 516 l 5
299.002929688 0 m 1
 87.7705078125 0 l 1
 93.9404296875 599.25 l 1
 295.669921875 599.25 l 1x8070
 299.002929688 0 l 1
214.196289062 365.876953125 m 1
 214.196289062 365.876953125 249.885742188 344.93359375 330.916992188 344.93359375 c 0
 400.392578125 344.93359375 435.916992188 381.877929688 435.916992188 439.93359375 c 0
 435.916992188 502.9140625 392.583984375 542.9921875 303.916992188 542.9921875 c 0
 118.5078125 542.9921875 9.26953125 531.427734375 9.26953125 531.427734375 c 1
 -2 724.840820312 l 1
 -2 724.840820312 86.1025390625 738.9921875 316.916992188 738.9921875 c 0
 511.25 738.9921875 634.916992188 619.581054688 634.916992188 431.93359375 c 0
 634.916992188 271.821289062 526.805664062 169.93359375 356.916992188 169.93359375 c 0xc0b0
 249.770507812 169.93359375 185.2578125 194.43359375 185.2578125 194.43359375 c 1
 214.196289062 365.876953125 l 1
EndSplineSet
Validated: 5
EndChar

StartChar: uni20B3
Encoding: 689 8371 189
Width: 768
Flags: W
HStem: 110.712 109<103.25 756> 118.712 100<12 662.75> 250.712 109<133.25 716> 258.712 100<52 632.75> 529.069 191.931<83.8193 215.508> 711 20G<79.4395 488.11>
LayerCount: 2
Fore
SplineSet
215.5078125 534.112304688 m 1x04
 83.8193359375 529.069335938 l 1
 79.439453125 721 l 1x08
 481.548828125 731 l 1
 716.450195312 14.9111328125 l 1
 505.176757812 -15 l 1
 374.818359375 476.8671875 l 1
 237.819335938 -15 l 1
 28.2734375 19 l 1
 215.5078125 534.112304688 l 1x04
52 358.711914062 m 1x10
 718 359.711914062 l 1
 716 250.711914062 l 1x20
 50 258.711914062 l 1
 52 358.711914062 l 1x10
12 218.711914062 m 1x40
 758 219.711914062 l 1
 756 110.711914062 l 1x80
 10 118.711914062 l 1
 12 218.711914062 l 1x40
EndSplineSet
Validated: 5
EndChar

StartChar: uni20B4
Encoding: 690 8372 190
Width: 598
Flags: W
HStem: 228 109<330.881 556> 236 100<12 456.78> 368 109<350.106 586> 376 100<22 185.052 273 496.479> 718.393 20G<155.99 159.646>
VStem: 68 237.215<212.673 302.159>
LayerCount: 2
Fore
SplineSet
159.645507812 738.392578125 m 5x0c
 159.645507812 738.392578125 515.3359375 731.98828125 515.3359375 504.162109375 c 4
 515.3359375 414.102539062 486.291015625 366.442382812 356.934570312 302.655273438 c 4
 316.143554688 282.541015625 305.21484375 266.92578125 305.21484375 246 c 4
 305.21484375 174.623046875 488.115234375 166.682617188 488.115234375 166.682617188 c 5
 460.893554688 -19.8779296875 l 5
 460.893554688 -19.8779296875 68 -14.009765625 68 251.044921875 c 4
 68 337.392578125 98.6279296875 394.850585938 185.051757812 435.650390625 c 4
 260.326171875 471.186523438 273.067382812 487.119140625 273.067382812 506.93359375 c 4
 273.067382812 558.505859375 128.794921875 569.592773438 128.794921875 569.592773438 c 5
 159.645507812 738.392578125 l 5x0c
12 336 m 5x4c
 266 330.466796875 l 5
 558 337 l 5
 556 228 l 5x8c
 248 237.577148438 l 5
 10 236 l 5
 12 336 l 5x4c
22 476 m 5x1c
 283 471 l 5
 588 477 l 5
 586 368 l 5x2c
 273 377.288085938 l 5
 20 376 l 5
 22 476 l 5x1c
EndSplineSet
EndChar

StartChar: uni20B8
Encoding: 692 8376 191
Width: 590
Flags: W
HStem: 0 21G<181.83 398.159> 378 30<186.151 394.104> 378.08 142.931<13.6201 186.151 394.104 568.729> 578.08 152.931<23.6201 558.729>
VStem: 181.83 216.329<0 408>
LayerCount: 2
Fore
SplineSet
292.103515625 378 m 5xd8
 10 378.080078125 l 5
 13.6201171875 521.010742188 l 1
 568.729492188 521.010742188 l 1xb8
 574.61328125 374 l 5
 292.103515625 378 l 5xd8
394.103515625 408 m 5xd8
 398.159179688 0 l 1
 181.830078125 0 l 1
 186.151367188 410.083984375 l 5
 394.103515625 408 l 5xd8
20 578.080078125 m 1
 23.6201171875 731.010742188 l 1
 558.729492188 731.010742188 l 1
 564.61328125 574 l 1
 20 578.080078125 l 1
EndSplineSet
Validated: 5
EndChar

StartChar: uni20B9
Encoding: 693 8377 192
Width: 646
Flags: W
HStem: 411.934 109<465.935 634> 419.934 100<110 570.22> 562.992 176<31.6968 297.21>
VStem: 339.917 209<378.518 587.47>
LayerCount: 2
Fore
SplineSet
110 519.93359375 m 1x70
 421 514.93359375 l 1
 636 520.93359375 l 1
 634 411.93359375 l 1xb0
 411 421.221679688 l 1
 108 419.93359375 l 1
 110 519.93359375 l 1x70
124.196289062 386.876953125 m 1
 124.196289062 386.876953125 156.828125 374.93359375 230.916992188 374.93359375 c 0
 303.038085938 374.93359375 339.916992188 409.155273438 339.916992188 462.93359375 c 0
 339.916992188 524.081054688 295.270507812 562.9921875 203.916992188 562.9921875 c 0
 85.4541015625 562.9921875 19.26953125 537.427734375 19.26953125 537.427734375 c 1
 -2 710.840820312 l 1
 -2 710.840820312 52.2421875 738.9921875 226.916992188 738.9921875 c 0
 423.6953125 738.9921875 548.916992188 650.858398438 548.916992188 480.93359375 c 0
 548.916992188 347.880917902 454.547056418 278.686259167 408.902246959 252.999999457 c 4
 394.342355093 244.806534126 384.740234375 241.040039062 384.740234375 241.040039062 c 1
 549.770507812 138 l 1
 425.770507812 -37 l 1
 83.2578125 228.43359375 l 1
 124.196289062 386.876953125 l 1
EndSplineSet
EndChar

StartChar: uni20BA
Encoding: 694 8378 193
Width: 643
Flags: W
HStem: -9.99805 200.877<240.95 409.979> 711.01 20G<110.621 316.809>
VStem: 105.348 215.635<293.769 382.835 454.912 731.01>
LayerCount: 2
Fore
SplineSet
15.2978515625 322.71484375 m 1
 230.639648438 382.834960938 l 1
 439.6875 461.35546875 l 1
 474.6640625 341.365234375 l 1
 254.453125 293.768554688 l 1
 45.8486328125 217.056640625 l 1
 15.2978515625 322.71484375 l 1
1 483.859375 m 1
 216.341796875 543.98046875 l 1
 425.389648438 622.5 l 1
 460.366210938 502.509765625 l 1
 240.155273438 454.912109375 l 1
 31.55078125 378.200195312 l 1
 1 483.859375 l 1
320.982421875 195.29296875 m 1
 320.982421875 195.29296875 331.477539062 190.87890625 351.380859375 190.87890625 c 0
 398.19921875 190.87890625 429.047851562 211.090820312 445.91796875 293 c 1
 631.91796875 256 l 1
 607.461914062 105.546875 538.724609375 -9.998046875 299.91796875 -9.998046875 c 0
 181.982421875 -9.998046875 105.34765625 0 105.34765625 0 c 1
 110.76953125 731.009765625 l 1
 316.647460938 731.009765625 l 1
 320.982421875 195.29296875 l 1
EndSplineSet
Validated: 5
EndChar

StartChar: breve
Encoding: 430 728 194
Width: 332
Flags: W
HStem: 556 150<106.846 232.636>
LayerCount: 2
Fore
SplineSet
168 556 m 0
 61.9767473296 556 -5 636 -5 636 c 25
 83 748 l 25
 83 748 117.959200659 706 167 706 c 0
 215 706 253 742 253 742 c 29
 337 642 l 25
 337 642 286 556 168 556 c 0
EndSplineSet
EndChar

StartChar: dotaccent
Encoding: 431 729 195
Width: 240
Flags: W
HStem: 559.008 180<57.3847 182.615>
VStem: 30 180<586.392 711.623>
LayerCount: 2
Fore
SplineSet
30 649.0078125 m 0
 30 704.008167614 64.9996448864 739.0078125 120 739.0078125 c 0
 175.000355114 739.0078125 210 704.008167614 210 649.0078125 c 0
 210 594.007457386 175.000355114 559.0078125 120 559.0078125 c 0
 64.9996448864 559.0078125 30 594.007457386 30 649.0078125 c 0
EndSplineSet
Validated: 1
EndChar

StartChar: ogonek
Encoding: 433 731 196
Width: 207
Flags: W
HStem: -248 91<140.432 195.462>
VStem: 20 114<-150.473 -53.6959>
LayerCount: 2
Fore
SplineSet
190 18 m 1
 190 18 134 -59.806451614 134 -114 c 0
 134 -147.041407437 153.490909091 -156.413636364 201 -157 c 1
 195 -248 l 1
 79.5177664972 -242 20 -216.730463477 20 -136 c 0
 20 -47.52 97 22 97 22 c 1
 190 18 l 1
EndSplineSet
EndChar

StartChar: ring
Encoding: 432 730 197
Width: 307
Flags: W
HStem: 478.113 99.3027<130.799 180.1> 639.593 99.3994<130.717 180.184>
VStem: 20 108.384<579.276 638.541> 181.184 106.416<578.014 639.052>
LayerCount: 2
Fore
SplineSet
128.383789062 609.416015625 m 0
 128.383789062 589.86077009 138.531705941 577.416015625 154.479492188 577.416015625 c 4
 170.798695111 577.416015625 181.18359375 589.86077009 181.18359375 609.416015625 c 0
 181.18359375 627.857579158 170.798695111 639.592773438 154.479492188 639.592773438 c 0
 138.531705941 639.592773438 128.383789062 627.857579158 128.383789062 609.416015625 c 0
20 609.512695312 m 0
 20 688.639014575 72.2975427796 738.9921875 154.479492188 738.9921875 c 0
 235.830785956 738.9921875 287.599609375 685.717408692 287.599609375 602 c 0
 287.599609375 526.291133604 235.830785956 478.11328125 154.479492188 478.11328125 c 0
 72.2975427796 478.11328125 20 529.212718171 20 609.512695312 c 0
EndSplineSet
EndChar

StartChar: hungarumlaut
Encoding: 435 733 198
Width: 420
Flags: W
HStem: 509.248 235.246
LayerCount: 2
Fore
SplineSet
290.5078125 744.494140625 m 1
 412.631835938 662.544921875 l 1
 283.493164062 509.248046875 l 1
 201.208984375 560.534179688 l 1
 290.5078125 744.494140625 l 1
100.5078125 744.494140625 m 1
 222.631835938 662.544921875 l 1
 93.4931640625 509.248046875 l 1
 11.208984375 560.534179688 l 1
 100.5078125 744.494140625 l 1
EndSplineSet
EndChar

StartChar: partialdiff
Encoding: 714 8706 199
Width: 615
Flags: W
HStem: -10.0664 174.925<240.19 350.504> 342.009 154.925<245.753 358.249>
VStem: 20 194.375<189.865 312.608> 380.625 214.375<196.085 451.398>
LayerCount: 2
Fore
SplineSet
214.375 249.858398438 m 0
 214.375 197.913856907 245.793945312 164.858398438 292.025390625 164.858398438 c 0
 347.391601562 164.858398438 380.625 201.802734375 380.625 259.858398438 c 0
 380.625 310.061705126 350.836461863 342.008789062 304.025390625 342.008789062 c 0
 249.238805404 342.008789062 214.375 306.172851562 214.375 249.858398438 c 0
20 239.93359375 m 0
 20 403.100373145 114.111328125 496.93359375 262 496.93359375 c 0
 359.9299275 496.93359375 403.90234375 447.057617188 403.90234375 447.057617188 c 5
 383.782977401 519.482091024 328.206747095 562.088829469 172.021484375 589.267578125 c 1
 212.770507812 753.510742188 l 1
 476.724663068 732.027172961 595 570.795761438 595 332 c 0
 595 103.182430662 473.373723448 -10.06640625 279 -10.06640625 c 0
 121.944335938 -10.06640625 20 87.155085637 20 239.93359375 c 0
EndSplineSet
Validated: 1
EndChar

StartChar: emptyset
Encoding: 715 8709 200
Width: 795
Flags: W
HStem: -10.0664 100.877<283.004 518.138> 640.64 98.2939<286.076 524.103>
VStem: 20 108<243.344 482.978> 674.117 100.883<243.344 482.978>
LayerCount: 2
Fore
SplineSet
710.94921875 726.93359375 m 5
 442.330078125 339.799804688 l 5
 185.37890625 -81 l 5
 84.05078125 -17 l 5
 366.529296875 378.200195312 l 5
 616.220703125 793.93359375 l 5
 710.94921875 726.93359375 l 5
20 361.93359375 m 0
 20 592.322641811 166.610951939 738.93359375 397 738.93359375 c 0
 628.000476926 738.93359375 775 592.322641811 775 361.93359375 c 0
 775 134.599173678 628.000476926 -10.06640625 397 -10.06640625 c 0
 166.610951939 -10.06640625 20 134.599173678 20 361.93359375 c 0
128 361.93359375 m 0
 128 196.246930926 232.9990625 90.810546875 398 90.810546875 c 0
 566.738726451 90.810546875 674.1171875 196.246930926 674.1171875 361.93359375 c 0
 674.1171875 532.255308483 566.738726451 640.639648438 398 640.639648438 c 0
 232.9990625 640.639648438 128 532.255308483 128 361.93359375 c 0
EndSplineSet
Validated: 5
EndChar

StartChar: Delta
Encoding: 716 8710 201
Width: 670
Flags: W
HStem: 0 178.317<234.086 432.606> 529.069 191.931<45.8193 177.508> 711 20G<41.4395 450.764>
LayerCount: 2
Fore
SplineSet
177.5078125 534.112304688 m 1xa0
 45.8193359375 529.069335938 l 1
 41.439453125 721 l 1xc0
 443.548828125 731 l 1
 660 131 l 1
 643 0 l 1
 27 0 l 1
 10 127 l 1
 177.5078125 534.112304688 l 1xa0
432.606445312 179.631835938 m 5
 336.818359375 476.8671875 l 1
 234.0859375 178.317382812 l 1
 432.606445312 179.631835938 l 5
EndSplineSet
Validated: 1
EndChar

StartChar: notequal
Encoding: 726 8800 202
Width: 450
Flags: W
HStem: 147 156<223 393> 158 159<49 223> 349 168<174.455 401> 360 153<49 271.545>
LayerCount: 2
Fore
SplineSet
256.526367188 596.734375 m 5x00
 368.124023438 560.322265625 l 5
 263.0859375 315.234375 l 5
 192.477539062 78.1787109375 l 5
 81.7880859375 115.673828125 l 5
 183.328125 343.390625 l 5
 256.526367188 596.734375 l 5x00
EndSplineSet
Refer: 19 61 N 1 0 0 1 0 0 2
EndChar

StartChar: approxequal
Encoding: 725 8776 203
Width: 450
Flags: W
LayerCount: 2
Fore
SplineSet
279.991210938 281.168945312 m 1
 374.650390625 344.280273438 l 1
 446.330078125 239 l 1
 284.950195312 116.959960938 l 1
 170.009765625 207.791015625 l 1
 85.3505859375 144.6796875 l 1
 3.669921875 249.959960938 l 1
 165.05078125 372 l 1
 279.991210938 281.168945312 l 1
279.991210938 501.168945312 m 1
 374.650390625 564.280273438 l 1
 446.330078125 459 l 1
 284.950195312 336.959960938 l 1
 170.009765625 427.791015625 l 1
 85.3505859375 364.6796875 l 1
 3.669921875 469.959960938 l 1
 165.05078125 592 l 1
 279.991210938 501.168945312 l 1
EndSplineSet
Validated: 1
EndChar

StartChar: product
Encoding: 717 8719 204
Width: 853
Flags: W
HStem: 550.084 180.927<13.6201 118.151 325.838 527.979 736.073 840.369>
VStem: 113.83 216.329<-173.994 550.084> 523.83 216.329<-173.994 548.628>
LayerCount: 2
Fore
SplineSet
113.830078125 -173.994140625 m 1
 118.151367188 550.083984375 l 1
 10 548.080078125 l 1
 13.6201171875 731.010742188 l 1
 840.369140625 731.010742188 l 1
 843.989257812 548.080078125 l 1
 736.073242188 550.080078125 l 5
 740.159179688 -173.994140625 l 5
 523.830078125 -173.994140625 l 5
 527.979492188 548.627929688 l 5
 325.837890625 550.083984375 l 1
 330.159179688 -173.994140625 l 1
 113.830078125 -173.994140625 l 1
EndSplineSet
Validated: 1
EndChar

StartChar: summation
Encoding: 718 8721 205
Width: 670
Flags: W
HStem: -173.994 171.293<281.064 656.539> 558.08 172.931<13.6201 138.151 358.104 648.729>
LayerCount: 2
Fore
SplineSet
648.729492188 731.010742188 m 1
 654.61328125 554 l 1
 358.103515625 558 l 5
 504 301 l 5
 281.017578125 -2.513671875 l 5
 281.064453125 -2.701171875 l 5
 660.159179688 -1.0634765625 l 1
 656.5390625 -173.994140625 l 1
 63.4296875 -173.994140625 l 1
 54.87109375 -2.994140625 l 1
 276 302 l 1
 138.151367188 560.083984375 l 1
 10 558.080078125 l 1
 13.6201171875 731.010742188 l 1
 648.729492188 731.010742188 l 1
EndSplineSet
Validated: 1
EndChar

StartChar: integral
Encoding: 724 8747 206
Width: 523
Flags: W
LayerCount: 2
Fore
SplineSet
352.01953125 797.84375 m 5
 507.7265625 688.374023438 l 5
 354.637695312 529.96484375 l 5
 308.63671875 10 l 1
 171.477539062 -204 l 1
 -10.5224609375 -118 l 1
 112.307617188 30 l 1
 165.984375 592.096679688 l 5
 352.01953125 797.84375 l 5
EndSplineSet
Validated: 1
EndChar

StartChar: angleleft
Encoding: 729 9001 268
Width: 382
Flags: W
LayerCount: 2
Fore
SplineSet
212.13671875 300.836914062 m 1
 381 -148.994140625 l 1
 201 -198.994140625 l 1
 1 301.005859375 l 1
 201 791.001953125 l 1
 381 741.001953125 l 1
 212.13671875 300.836914062 l 1
EndSplineSet
Validated: 1
EndChar

StartChar: angleright
Encoding: 730 9002 269
Width: 382
Flags: W
LayerCount: 2
Fore
SplineSet
169.86328125 291.170898438 m 1
 1 741.001953125 l 1
 181 791.001953125 l 1
 381 291.001953125 l 1
 181 -198.994140625 l 1
 1 -148.994140625 l 1
 169.86328125 291.170898438 l 1
EndSplineSet
Validated: 1
EndChar

StartChar: dcroat
Encoding: 207 273 271
Width: 682
Flags: W
HStem: -10.0664 180<179.541 337.898> 0 21G<382.271 668.799> 326.934 180<178.333 348.249> 534 140<292 613.66> 735.002 20G<386.875 594.262>
VStem: 20 212<188.991 306.367> 382.271 82.7295<121.651 416.323> 387 207.17<273.934 755.002>
AnchorPoint: "Anchor-0" 483 755.01 basechar 0
AnchorPoint: "Anchor-2" 328 0 basechar 0
LayerCount: 2
Fore
SplineSet
292 674 m 5x3c
 493 669 l 5
 668 675 l 5
 666 526 l 5
 483 535.288085938 l 5
 290 534 l 5
 292 674 l 5x3c
EndSplineSet
Refer: 5 100 N 1 0 0 1 0 0 2
EndChar

StartChar: Hbar
Encoding: 228 294 272
Width: 830
Flags: W
HStem: 0 21G<113.83 360.159 503.83 750.159> 165 192<377.455 604> 176 177<252 474.545> 387.934 99<133.308 818> 396 90<31 713.692> 530.084 200.927<13.6201 118.151 413.62 508.151>
VStem: 113.83 246.329<0 176 353 530.084> 248 112.159<176 353> 503.83 246.329<0 165 357 530.084>
AnchorPoint: "Anchor-0" 386 731.008 basechar 0
AnchorPoint: "Anchor-2" 432 0 basechar 0
AnchorPoint: "Anchor-2" 432 0 basechar 0
LayerCount: 2
Fore
SplineSet
354.729492188 731.010742188 m 1x8680
 360.159179688 0 l 1
 113.830078125 0 l 1
 118.151367188 530.083984375 l 1
 10 528.080078125 l 1
 13.6201171875 731.010742188 l 1
 13.6201171875 731.010742188 354.729492188 731.010742188 354.729492188 731.010742188 c 1x8680
744.729492188 731.010742188 m 1
 750.159179688 0 l 1
 503.830078125 0 l 1
 508.151367188 530.083984375 l 1
 410 528.080078125 l 1
 413.620117188 731.010742188 l 1
 413.620117188 731.010742188 744.729492188 731.010742188 744.729492188 731.010742188 c 1
252 353 m 1xa580
 608 357 l 1
 604 165 l 1xc580
 248 176 l 1
 252 353 l 1xa580
31 486 m 1x8c80
 820 486.93359375 l 1
 818 387.93359375 l 5x9480
 29 396 l 5
 31 486 l 1x8c80
EndSplineSet
EndChar

StartChar: hbar
Encoding: 229 295 273
Width: 653
Flags: W
HStem: 0 21G<83.8301 300.159> 327.934 179<319.285 490.535> 539 119<245.472 406> 547 110<12 345.08> 735.002 20G<88.0369 294.873>
VStem: 83.8301 216.329<0 253.934 548.288 755.002> 416 212<-1.22201 314.71>
AnchorPoint: "Anchor-0" 174 755.01 basechar 0
AnchorPoint: "Anchor-2" 360 0 basechar 0
LayerCount: 2
Fore
SplineSet
188 253.93359375 m 1xce
 210.000338808 411.989257812 279.388472577 506.93359375 423 506.93359375 c 0
 558.0703125 506.93359375 628 429.158131451 628 278.93359375 c 0
 628 134.376986611 610.159179688 -15 610.159179688 -15 c 1
 395.830078125 0 l 1
 395.830078125 0 416 138.277935542 416 251.93359375 c 0
 416 300.174055232 400.619551064 327.93359375 357 327.93359375 c 0
 309.194151182 327.93359375 289.38811761 296.718981095 276 216.93359375 c 1
 188 253.93359375 l 1xce
12 657 m 1xde
 203 652 l 1
 408 658 l 1
 406 539 l 5xee
 193 548.288085938 l 5
 10 547 l 5
 12 657 l 1xde
294.729492188 755.001953125 m 1
 300.159179688 0 l 1
 83.830078125 0 l 1
 88.1513671875 755.001953125 l 1
 294.729492188 755.001953125 l 1
EndSplineSet
EndChar

StartChar: Tbar
Encoding: 292 358 275
Width: 590
Flags: W
HStem: 0 21G<166.83 413.159> 229 169<373.092 512> 239 157<80 415.947> 528 20<171.151 409.104> 528.08 202.931<13.6201 171.151 409.104 568.729>
VStem: 166.83 246.329<0 548>
AnchorPoint: "Anchor-0" 289 731.008 basechar 0
AnchorPoint: "Anchor-2" 288 0 basechar 0
AnchorPoint: "Anchor-2" 288 0 basechar 0
LayerCount: 2
Fore
SplineSet
80 396 m 5xa4
 295 392 l 5
 516 398 l 5
 512 229 l 5xc4
 288 240.288085938 l 5
 76 239 l 5
 80 396 l 5xa4
EndSplineSet
Refer: 61 84 N 1 0 0 1 0 0 2
EndChar

StartChar: tbar
Encoding: 293 359 276
Width: 443
Flags: W
HStem: 215.712 79<251.008 404> 223.712 70<20 345.94> 477 20G<11.4152 190 190 422.57>
VStem: 93.8301 199.299<208.854 483.061>
AnchorPoint: "Anchor-0" 203 648.019 basechar 0
AnchorPoint: "Anchor-2" 248 0 basechar 0
LayerCount: 2
Fore
SplineSet
20 293.711914062 m 5x70
 211 288.711914062 l 5
 406 294.711914062 l 5
 404 215.711914062 l 1xb0
 201 225 l 1
 18 223.711914062 l 1
 20 293.711914062 l 5x70
EndSplineSet
Refer: 7 116 N 1 0 0 1 0 0 2
EndChar

StartChar: .notdef
Encoding: 738 -1 362
Width: 795
Flags: W
HStem: -10.0664 100.877<283.004 518.138> 141.077 132<323.786 426.214> 299.857 113.903<329.412 412.072> 500.477 93.8301<316.33 393.988> 640.64 98.2939<286.076 514.996>
VStem: 20 108<243.344 482.978> 309 132<155.863 258.291> 415.2 122.399<418.986 479.955> 674.117 100.883<243.344 482.978>
LayerCount: 2
Fore
SplineSet
299.400390625 500.4765625 m 5xfd80
 317.694335938 594.306640625 l 5
 468.5 575.315429688 537.599609375 530.359375 537.599609375 451.237304688 c 4
 537.599609375 366.676757812 427.99609375 339.077148438 427.99609375 339.077148438 c 5
 420 294.077148438 l 5
 420 294.077148438 406.799804688 299.857421875 376.200195312 299.857421875 c 4
 345.599609375 299.857421875 329.400390625 292.876953125 329.400390625 292.876953125 c 5
 320.943359375 416.4765625 l 5
 320.943359375 416.4765625 334.200195312 413.760742188 360.599609375 413.760742188 c 4
 392.400390625 413.760742188 415.200195312 423.676757812 415.200195312 450.077148438 c 4
 415.200195312 478.921875 388.900390625 489.6875 299.400390625 500.4765625 c 5xfd80
309 207.077148438 m 4xfe80
 309 247.41015625 334.666015625 273.077148438 375 273.077148438 c 4
 415.333984375 273.077148438 441 247.41015625 441 207.077148438 c 4
 441 166.743164062 415.333984375 141.077148438 375 141.077148438 c 4
 334.666015625 141.077148438 309 166.743164062 309 207.077148438 c 4xfe80
20 361.93359375 m 0
 20 592.322641811 166.610951939 738.93359375 397 738.93359375 c 0
 628.000476926 738.93359375 775 592.322641811 775 361.93359375 c 0
 775 134.599173678 628.000476926 -10.06640625 397 -10.06640625 c 0
 166.610951939 -10.06640625 20 134.599173678 20 361.93359375 c 0
128 361.93359375 m 0
 128 196.246930926 232.9990625 90.810546875 398 90.810546875 c 0
 566.738726451 90.810546875 674.1171875 196.246930926 674.1171875 361.93359375 c 0
 674.1171875 532.255308483 566.738726451 640.639648438 398 640.639648438 c 0
 232.9990625 640.639648438 128 532.255308483 128 361.93359375 c 0
EndSplineSet
Validated: 1
EndChar

StartChar: uni0326
Encoding: 452 806 363
Width: 0
Flags: W
HStem: -216.337 221.029
VStem: 0 205.796
AnchorPoint: "Anchor-2" 138 21 mark 0
AnchorPoint: "Anchor-2" 138 21 mark 0
LayerCount: 2
Fore
SplineSet
57.78125 4.6923828125 m 25
 205.795898438 -65.037109375 l 25
 97.78125 -216.336914062 l 25
 0 -173 l 29
 57.78125 4.6923828125 l 25
EndSplineSet
EndChar

StartChar: dcaron
Encoding: 205 271 403
Width: 682
Flags: W
HStem: -10.0664 180<179.541 337.898> 0 21G<382.271 668.799> 326.934 180<178.333 348.249> 735.002 20G<386.875 594.262>
VStem: 20 212<188.991 306.367> 382.271 82.7295<121.651 416.323> 387 207.17<273.934 755.002>
LayerCount: 2
Fore
SplineSet
827 728.9921875 m 5x38
 754 476 l 29
 635 484 l 1
 625 751 l 25
 827 728.9921875 l 5x38
EndSplineSet
Refer: 5 100 N 1 0 0 1 0 0 2
EndChar

StartChar: Lcaron
Encoding: 251 317 404
Width: 620
Flags: W
HStem: 0 201.293<359.064 606.539> 711.011 20G<13.2633 354.729>
VStem: 113.43 245.635<201.293 530.084>
LayerCount: 2
Fore
SplineSet
637 728.9921875 m 5
 564 476 l 29
 465 484 l 5
 455 751 l 29
 637 728.9921875 l 5
EndSplineSet
Refer: 44 76 N 1 0 0 1 0 0 2
EndChar

StartChar: lcaron
Encoding: 252 318 405
Width: 407
Flags: W
HStem: 0 21G<93.8301 393.958> 735.002 20G<13.2014 304.88>
VStem: 93.8301 215.299<171.397 584.075>
LayerCount: 2
Fore
SplineSet
531 728.9921875 m 5
 458 476 l 29
 359 484 l 5
 349 751 l 29
 531 728.9921875 l 5
EndSplineSet
Refer: 8 108 N 1 0 0 1 0 0 2
EndChar

StartChar: tcaron
Encoding: 291 357 409
Width: 443
Flags: W
HStem: 477 20G<11.4152 190 190 422.57>
VStem: 93.8301 199.299<208.854 483.061>
LayerCount: 2
Fore
SplineSet
522 728.9921875 m 5
 454 551 l 29
 340 549 l 1
 343 751 l 25
 522 728.9921875 l 5
EndSplineSet
Refer: 7 116 N 1 0 0 1 0 0 2
EndChar

StartChar: uni030F
Encoding: 448 783 435
Width: 0
Flags: W
HStem: 509.248 235.246
AnchorPoint: "Anchor-0" 248.423 491 mark 0
LayerCount: 2
Fore
SplineSet
122.124023438 744.494140625 m 5
 211.422851562 560.534179688 l 1
 129.138671875 509.248046875 l 1
 0 662.544921875 l 1
 122.124023438 744.494140625 l 5
312.124023438 744.494140625 m 5
 401.422851562 560.534179688 l 1
 319.138671875 509.248046875 l 1
 190 662.544921875 l 1
 312.124023438 744.494140625 l 5
EndSplineSet
EndChar

StartChar: uni031B
Encoding: 450 795 463
Width: 0
Flags: W
VStem: 56 164<521.293 669.532>
LayerCount: 2
Fore
SplineSet
9 707 m 5
 175 750 l 1
 175 750 220 696.444114829 220 611 c 0
 220 463.181818182 89 404 89 404 c 1
 0 483 l 1
 0 483 56 521 56 597.989257812 c 0
 56 655.705457589 9 707 9 707 c 5
EndSplineSet
EndChar

StartChar: Uhorn
Encoding: 322 431 464
Width: 847
Flags: W
HStem: -10 222<372.241 481.472> 530.084 200.927<13.6201 125.151 407.62 496.151>
VStem: 113.517 238.643<232.922 630.378> 500.83 236.812<233.955 526.709>
AnchorPoint: "Anchor-0" 386 731.008 basechar 0
AnchorPoint: "Anchor-0" 386 731.008 basechar 0
AnchorPoint: "Anchor-2" 425 0 basechar 0
AnchorPoint: "Anchor-2" 425 0 basechar 0
AnchorPoint: "Anchor-3" 495 0 basechar 0
LayerCount: 2
Fore
SplineSet
617 790 m 5
 764 860.93359375 l 1
 764 860.93359375 827 822 827 754 c 0
 827 671 766 645 686 642 c 1
 599 731.0078125 l 5
 642 731.0078125 662 735 662 753 c 4
 662 776 617 790 617 790 c 5
EndSplineSet
Refer: 53 85 N 1 0 0 1 0 0 2
EndChar

StartChar: uhorn
Encoding: 323 432 465
Width: 687
Flags: W
HStem: -9.93164 179<172.98 317.291> 0 21G<353.271 639.799> 477.002 20G<42.8408 257.17 357.81 565.334>
VStem: 25 212<183.037 498.226> 358 207.17<213.068 497.002> 502 165<502.672 571.519>
AnchorPoint: "Anchor-0" 298 496.019 basechar 0
AnchorPoint: "Anchor-2" 325 0 basechar 0
AnchorPoint: "Anchor-3" 465 0 basechar 0
LayerCount: 2
Fore
SplineSet
457 584.002929688 m 5x34
 604 654.936523438 l 1
 604 654.936523438 667 605.80837261 667 527 c 0
 667 440.398359395 601.673758865 410.707408558 516 408.002929688 c 1
 439 497.010742188 l 5
 482 497.010742188 502 503.362787592 502 532.002929688 c 4
 502 571 457 584.002929688 457 584.002929688 c 5x34
EndSplineSet
Refer: 27 117 N 1 0 0 1 0 0 2
EndChar

StartChar: uni01B7
Encoding: 324 439 466
Width: 644
Flags: W
HStem: -183.994 184<104.192 334.117> 532.008 199<30 323.848>
VStem: 376.917 246<40.9075 159.598>
AnchorPoint: "Anchor-2" 296 -174 basechar 0
AnchorPoint: "Anchor-0" 306 731.008 basechar 0
LayerCount: 2
Fore
SplineSet
416 351 m 1
 416 351 436.211099875 348.118776465 463.999998746 337.12235721 c 4
 525.12597903 312.934032595 622.916992188 249.480491523 622.916992188 91.056640625 c 0
 622.916992188 -89.1445157095 488.361564767 -183.994140625 276.916992188 -183.994140625 c 0
 88.2072104288 -183.994140625 8 -129.842773438 8 -129.842773438 c 1
 60 43.072265625 l 1
 60 43.072265625 121.038085938 0.005859375 233.916992188 0.005859375 c 0
 334.674804688 0.005859375 376.916992188 38.525390625 376.916992188 99.056640625 c 0
 376.916992188 159.212890625 335.536132812 197.9921875 240.916992188 197.9921875 c 0
 174.966796875 197.9921875 145.2578125 188.43359375 145.2578125 188.43359375 c 1
 129 312 l 1
 323.84765625 538.0078125 l 1
 20 532.0078125 l 1
 30 731.0078125 l 1
 569.016601562 731.0078125 l 1
 599.016601562 573.0078125 l 1
 416 351 l 1
EndSplineSet
EndChar

StartChar: uni0292
Encoding: 426 658 467
Width: 498
Flags: W
HStem: -183.994 157<65.2485 262.839> 338 159.011<30 233.848>
VStem: 280.917 196<-5.9971 81.4853>
AnchorPoint: "Anchor-0" 241 496.019 basechar 0
AnchorPoint: "Anchor-2" 226 -174 basechar 0
LayerCount: 2
Back
SplineSet
20 338 m 5
 30 497 l 5
 399.016601562 497 l 5
 431.016601562 369 l 5
 257.168945312 164 l 5
 441.016601562 170 l 5
 431.016601562 0 l 5
 41 0 l 5
 12 128 l 5
 193.84765625 344 l 5
 20 338 l 5
EndSplineSet
Fore
SplineSet
318 221 m 1
 318 221 334.439779657 218.601794326 356.744133459 210 c 4
 403.786642276 191.857802785 476.916992188 146.119699886 476.916992188 37.0830078125 c 0
 476.916992188 -114.514620659 373.472646251 -183.994140625 210.916992188 -183.994140625 c 0
 71.3290030521 -183.994140625 12 -149.842773438 12 -149.842773438 c 1
 44 6.072265625 l 1
 44 6.072265625 87.6838942308 -26.994140625 194 -26.994140625 c 0
 249.844503796 -26.994140625 280.916992188 -2.09823650541 280.916992188 37.056640625 c 0
 280.916992188 77.7558593356 247.422314453 103.9921875 181.916992188 103.9921875 c 0
 134.067708965 103.9921875 105.2578125 97.43359375 105.2578125 97.43359375 c 1
 85 212 l 1
 233.84765625 344 l 1
 20 338 l 1
 30 497.010742188 l 1
 426.016601562 497 l 1
 459.016601562 369 l 1
 318 221 l 1
EndSplineSet
EndChar

StartChar: infinity
Encoding: 723 8734 470
Width: 579
Flags: W
HStem: 221 110.59<363.476 437.458> 221 101.588<141.816 243.05> 404.634 110.051<141.393 218.637> 412.315 102.369<335.563 435.715>
VStem: 20 117.069<328 399.5> 441.665 118.119<337.001 406.859>
LayerCount: 2
Fore
SplineSet
441.665039062 370.404296875 m 4x9c
 441.665039062 346.333984375 425.881835938 331.58984375 400.116210938 331.58984375 c 4x9c
 376.522460938 331.58984375 363.36328125 345.263671875 345.504882812 388.341796875 c 4
 314.42578125 463.3125 263.467773438 514.684570312 175.237304688 514.684570312 c 4
 80.34375 514.684570312 20 457.278320312 20 367.000976562 c 4
 20 280.737304688 75.1875 221 162.53515625 221 c 4
 269.056640625 221 309.377929688 301.271484375 309.377929688 301.271484375 c 5
 261.307617188 372.428710938 l 5
 261.307617188 372.428710938 231.27734375 322.587890625 182.021484375 322.587890625 c 4
 154.068359375 322.587890625 137.069335938 337.98046875 137.069335938 363.291015625 c 4
 137.069335938 388.787109375 154.357421875 404.633789062 182.170898438 404.633789062 c 4x6c
 206.815429688 404.633789062 220.095703125 390.28125 232.903320312 354.533203125 c 4
 267.490234375 257.99609375 314.149414062 221 401.311523438 221 c 4
 500.095703125 221 559.784179688 276.083984375 559.784179688 367.248046875 c 4
 559.784179688 455.794921875 501.685546875 514.684570312 414.331054688 514.684570312 c 4
 318.250976562 514.684570312 276.788085938 443.2109375 276.788085938 443.2109375 c 5
 329.979492188 379.119140625 l 5
 329.979492188 379.119140625 351.071289062 412.315429688 396.541992188 412.315429688 c 4
 423.866210938 412.315429688 441.665039062 395.784179688 441.665039062 370.404296875 c 4x9c
EndSplineSet
Validated: 5
EndChar

StartChar: radical
Encoding: 722 8730 471
Width: 659
Flags: W
HStem: 0 21G<230.526 440.599> 491 20G<10 264.279>
LayerCount: 2
Fore
SplineSet
434.607421875 0 m 1
 237.174804688 0 l 1
 120.151367188 352 l 1
 17.0458984375 344 l 1
 10 497 l 1
 258.546875 511 l 1
 337.905273438 234.1328125 l 1
 473 783 l 1
 659 749 l 5
 434.607421875 0 l 1
EndSplineSet
Validated: 1
EndChar

StartChar: lessequal
Encoding: 727 8804 472
Width: 450
Flags: W
HStem: 64 156<189.667 430> 76 141<21 258.333>
LayerCount: 2
Fore
SplineSet
299.37109375 441.5 m 1x00
 435.349609375 391 l 5
 375.349609375 242 l 5
 14.650390625 432 l 1
 375.349609375 651 l 1
 435.349609375 502 l 1
 299.37109375 441.5 l 1x00
21 217 m 5x40
 432 220 l 5
 430 64 l 5x80
 18 76 l 5
 21 217 l 5x40
EndSplineSet
Validated: 1
EndChar

StartChar: greaterequal
Encoding: 728 8805 473
Width: 450
Flags: W
HStem: 64 156<189.667 430> 76 141<21 258.333>
LayerCount: 2
Fore
SplineSet
150.62890625 451.5 m 1x00
 14.650390625 502 l 1
 74.650390625 651 l 1
 435.349609375 461 l 1
 74.650390625 242 l 1
 14.650390625 391 l 1
 150.62890625 451.5 l 1x00
21 217 m 5x40
 432 220 l 5
 430 64 l 5x80
 18 76 l 5
 21 217 l 5x40
EndSplineSet
Validated: 1
EndChar

StartChar: three.ss01.superior
Encoding: 739 -1 507
Width: 391
HStem: 342 117<35.0242 223.486> 548 101<100.01 212.014> 726 117<55.0479 209.536>
VStem: 216 149<656.878 717.07> 232 146<470.781 538.411>
LayerCount: 2
Fore
SplineSet
34 486 m 1xe8
 34 486 87 459 160 459 c 0
 209 459 232 477 232 506 c 0xe8
 232 532 211 548 162 548 c 0
 113 548 100 544 100 544 c 1
 100 652 l 1
 100 652 112 649 152 649 c 0
 197 649 216 664 216 686 c 0
 216 711 196 726 151 726 c 0
 86 726 43 698 43 698 c 1
 14 814 l 1
 14 814 63 843 176 843 c 0
 294 843 365 793 365 712 c 0xf0
 365 629 289 606 289 606 c 1
 289 606 378 585 378 480 c 0
 378 395 301 342 180 342 c 0
 57 342 5 372 5 372 c 1
 34 486 l 1xe8
EndSplineSet
Validated: 1
EndChar

StartChar: five.ss02.superior
Encoding: 740 -1 508
Width: 387
Flags: W
HStem: 343 116<48.7181 215.906> 562 107<149.471 273.827> 715 168<251 346> 716 121<159 246>
VStem: 227 146<471.792 549.201> 251 95<837 881>
LayerCount: 2
Fore
SplineSet
346 715 m 5xe4
 159 716 l 25
 149 657 l 17
 149 657 167 669 217 669 c 0
 330 669 373 607 373 514 c 0
 373 395 297 343 178 343 c 0
 57 343 5 379 5 379 c 1
 33 488 l 1
 33 488 85 459 156 459 c 0
 204 459 227 480 227 513 c 0
 227 543 203 562 154 562 c 0
 110 562 84 542 84 542 c 1
 13 605 l 1
 53 837 l 1
 246 837 l 5xd8
 251 881 l 5
 346 883 l 5
 346 715 l 5xe4
EndSplineSet
EndChar

StartChar: three.ss01.inferior
Encoding: 741 -1 509
Width: 391
HStem: -358 117<34.9278 223.35> -152 101<99.0096 211.443> 26 117<55.1607 209.536>
VStem: 216 149<-44.2665 17.0475> 232 146<-228.721 -161.089>
LayerCount: 2
Fore
SplineSet
34 -214 m 1xe8
 34 -214 86 -241 159 -241 c 0
 208 -241 232 -223 232 -194 c 0xe8
 232 -168 210 -152 161 -152 c 0
 112 -152 99 -156 99 -156 c 1
 99 -48 l 1
 99 -48 111 -51 152 -51 c 0
 198 -51 216 -36 216 -14 c 0
 216 11 196 26 151 26 c 0
 85 26 42 -3 42 -3 c 1
 14 113 l 1
 14 113 63 143 176 143 c 0
 294 143 365 92 365 12 c 0xf0
 365 -71 289 -93 289 -93 c 1
 289 -93 378 -114 378 -219 c 0
 378 -304 301 -358 180 -358 c 0
 57 -358 5 -328 5 -328 c 1
 34 -214 l 1xe8
EndSplineSet
Validated: 1
EndChar

StartChar: five.ss02.inferior
Encoding: 742 -1 510
Width: 387
HStem: -357 116<46.6761 215.906> -138 107<149.471 273.827> 16 166<251 346> 16 121<159 246>
VStem: 227 146<-228.208 -150.799> 251 95<137 182>
LayerCount: 2
Fore
SplineSet
346 15 m 5xe4
 159 16 l 25
 149 -43 l 17
 149 -43 167 -31 217 -31 c 0
 330 -31 373 -93 373 -186 c 0
 373 -305 297 -357 178 -357 c 0
 57 -357 5 -321 5 -321 c 1
 33 -213 l 1
 33 -213 85 -241 156 -241 c 0
 204 -241 227 -220 227 -187 c 0
 227 -157 203 -138 154 -138 c 0
 110 -138 84 -158 84 -158 c 1
 13 -95 l 1
 53 137 l 1
 246 137 l 5xd8
 251 182 l 5
 346 183 l 5
 346 15 l 5xe4
EndSplineSet
EndChar

StartChar: guilsinglleft
Encoding: 651 8249 511
Width: 372
Flags: W
HStem: 491 20G<213.112 259.982>
LayerCount: 2
Fore
SplineSet
225.720703125 261.5 m 5
 371.69921875 121 l 1
 231.69921875 2 l 1
 -9 252 l 1
 231.69921875 511 l 1
 371.69921875 412 l 1
 225.720703125 261.5 l 5
EndSplineSet
EndChar

StartChar: guilsinglright
Encoding: 652 8250 512
Width: 373
Flags: W
HStem: 491 20G<117.471 160.256>
LayerCount: 2
Fore
SplineSet
146.978515625 251.5 m 5
 1 392 l 1
 141 511 l 1
 381.69921875 261 l 1
 141 2 l 1
 1 101 l 1
 146.978515625 251.5 l 5
EndSplineSet
EndChar

StartChar: dagger
Encoding: 640 8224 513
Width: 520
Flags: W
HStem: 395.934 170<14 222.322> 400.345 157.524<45.6784 369.008>
VStem: 154 208.329<-170 23.2571> 177.616 161.554<288.743 600.787>
LayerCount: 2
Fore
SplineSet
14 565.93359375 m 5x80
 254 557.869140625 l 5
 510 569.93359375 l 5
 506 384.93359375 l 5
 255 400.344726562 l 5x40
 10 395.93359375 l 5
 14 565.93359375 l 5x80
356.899414062 788.9921875 m 1
 339.169921875 478 l 5x10
 362.329101562 -170 l 1
 154 -170 l 1x20
 177.616210938 482 l 5x10
 160.169921875 788.9921875 l 1
 356.899414062 788.9921875 l 1
EndSplineSet
Validated: 5
EndChar

StartChar: daggerdbl
Encoding: 641 8225 514
Width: 520
Flags: W
HStem: 104.934 170<14 222.322> 109.345 157.524<45.6784 369.008> 266.869 143.476<45.6784 369.008> 405.934 170<14 222.322> 410.345 157.524<45.6784 369.008>
VStem: 178 160.898<155.008 576.144> 338.898 171.102<154.732 249 488 576.144>
LayerCount: 2
Fore
SplineSet
14 274.93359375 m 5x82
 254 266.869140625 l 5
 510 278.93359375 l 5
 506 93.93359375 l 5
 255 109.344726562 l 5x42
 10 104.93359375 l 5
 14 274.93359375 l 5x82
14 575.93359375 m 5x12
 254 567.869140625 l 5x0a
 510 579.93359375 l 5
 506 394.93359375 l 5
 255 410.344726562 l 5x22
 10 405.93359375 l 5
 14 575.93359375 l 5x12
356.899414062 788.9921875 m 5
 337.169921875 488 l 5
 338.8984375 249 l 5
 362.329101562 -170 l 5
 154 -170 l 5
 178 249 l 5x04
 179.616210938 492 l 5
 160.169921875 788.9921875 l 5
 356.899414062 788.9921875 l 5
EndSplineSet
Validated: 5
EndChar

StartChar: uni20A6
Encoding: 680 8358 515
Width: 831
Flags: W
HStem: -10 21G<504.31 711.539> 0 21G<125.21 331.539> 226 100<22 224.906> 236 94.4668<573 762.712> 320.467 36.8213<188 253> 330.467 36.8213<684 785.743> 356 100<24 251.405> 366 100<583 780.389>
VStem: 125.21 206.329<0 227.577 320.467 331.793> 513 193.109<461 731.011>
LayerCount: 2
Fore
SplineSet
573 336 m 5x10c0
 677 330.466796875 l 5
 814 337 l 5
 812 228 l 5
 659 237.577148438 l 5
 571 236 l 5
 573 336 l 5x10c0
583 466 m 5x01c0
 694 461 l 5
 821 467 l 5
 819 358 l 5
 684 367.288085938 l 5x04c0
 581 366 l 5
 583 466 l 5x01c0
22 326 m 1x20c0
 188 320.466796875 l 1x08c0
 253 327 l 1
 251 218 l 1
 170 227.577148438 l 1
 20 226 l 1
 22 326 l 1x20c0
24 456 m 1x02c0
 205 451 l 1
 276 457 l 1
 274 348 l 1
 195 357.288085938 l 1x08c0
 22 356 l 1
 24 456 l 1x02c0
706.109375 731.010742188 m 1
 711.5390625 0 l 1x40c0
 515.209960938 -10 l 1x80c0
 328.92578125 331.79296875 l 1
 331.5390625 0 l 1
 125.209960938 0 l 1x40c0
 129.53125 564.083984375 l 1
 14.3798828125 558.080078125 l 1
 10 731.010742188 l 1
 346.109375 741.010742188 l 1
 509.151367188 389.888671875 l 1
 513 731.010742188 l 1
 706.109375 731.010742188 l 1
EndSplineSet
Validated: 5
EndChar

StartChar: peseta
Encoding: 681 8359 516
Width: 732
Flags: W
HStem: 0 21G<97.7705 309.003> 169.934 175<310.341 451.327> 356 100<24 251.405> 366 100<484 681.389> 542.992 196<314.505 407.906> 542.992 56.2578<155.68 305.67>
VStem: 97.7705 211.232<0 194.434 348 357.288 451 599.25> 484 160.917<366 466>
LayerCount: 2
Fore
SplineSet
484 466 m 1xd3
 595 461 l 1
 722 467 l 1
 720 358 l 1
 585 367.288085938 l 1
 482 366 l 1
 484 466 l 1xd3
24 456 m 1xe3
 205 451 l 1
 276 457 l 1
 274 348 l 1
 195 357.288085938 l 1
 22 356 l 1
 24 456 l 1xe3
309.002929688 0 m 1
 97.7705078125 0 l 1
 103.940429688 599.25 l 1
 305.669921875 599.25 l 1xc7
 309.002929688 0 l 1
224.196289062 365.876953125 m 1
 224.196289062 365.876953125 259.885810621 344.93359375 340.916992188 344.93359375 c 0
 410.392578125 344.93359375 445.916992188 381.877929688 445.916992188 439.93359375 c 0
 445.916992188 502.9140625 412.583984375 542.9921875 328.916992188 542.9921875 c 4
 155.6796875 542.9921875 29.26953125 491.427734375 29.26953125 491.427734375 c 1
 -2 684.840820312 l 1
 -2 684.840820312 96.10249859 738.9921875 326.916992188 738.9921875 c 0xcb
 521.25 738.9921875 644.916992188 619.581054688 644.916992188 431.93359375 c 0
 644.916992188 271.821289062 536.805664062 169.93359375 366.916992188 169.93359375 c 0
 259.770507812 169.93359375 195.2578125 194.43359375 195.2578125 194.43359375 c 1
 224.196289062 365.876953125 l 1
EndSplineSet
Validated: 5
EndChar

StartChar: uni20A9
Encoding: 682 8361 517
Width: 1082
Flags: W
HStem: 0 21G<289.598 510.838 618.578 840.127> 236 94.4668<794 983.712> 245 93.7119<164.139 342> 330.467 36.8213<898 1035> 340 30<173.5 241> 375.533 92.8896<151.436 321> 716 20G<841.08 973.284>
LayerCount: 2
Fore
SplineSet
321 370 m 1x8e
 237 375.533203125 l 1
 80 369 l 1
 82 478 l 1
 215 468.422851562 l 1
 323 470 l 1
 321 370 l 1x8e
342 240 m 1
 251 245 l 1
 104 239 l 1
 106 348 l 1
 241 338.711914062 l 1xae
 344 340 l 1
 342 240 l 1
794 336 m 1
 898 330.466796875 l 1
 1035 337 l 1
 1033 228 l 1
 880 237.577148438 l 1
 792 236 l 1xc6
 794 336 l 1
834 466 m 1
 945 461 l 1
 1072 467 l 1
 1070 358 l 1
 935 367.288085938 l 1x96
 832 366 l 1
 834 466 l 1
504.607421875 0 m 1
 295.174804688 0 l 1
 140.151367188 556 l 1
 17.0458984375 548 l 1
 10 732 l 1
 298.546875 746 l 1
 409.905273438 284.1328125 l 1
 513.904296875 759 l 1
 730.450195312 725 l 1
 504.607421875 0 l 1
833.607421875 0 m 1
 624.174804688 0 l 1
 503 433 l 1
 646.395507812 623 l 1
 736.905273438 284.1328125 l 1
 845.904296875 736 l 1
 1062.45019531 702 l 1
 833.607421875 0 l 1
EndSplineSet
Validated: 5
EndChar

